<svg width="24" height="19" viewBox="0 0 24 19" fill="none" xmlns="http://www.w3.org/2000/svg">
<g clip-path="url(#clip0_83_4804)">
<path d="M3.5625 8.3125C4.87246 8.3125 5.9375 7.24746 5.9375 5.9375C5.9375 4.62754 4.87246 3.5625 3.5625 3.5625C2.25254 3.5625 1.1875 4.62754 1.1875 5.9375C1.1875 7.24746 2.25254 8.3125 3.5625 8.3125ZM20.1875 8.3125C21.4975 8.3125 22.5625 7.24746 22.5625 5.9375C22.5625 4.62754 21.4975 3.5625 20.1875 3.5625C18.8775 3.5625 17.8125 4.62754 17.8125 5.9375C17.8125 7.24746 18.8775 8.3125 20.1875 8.3125ZM21.375 9.5H19C18.3469 9.5 17.7568 9.76348 17.3264 10.1902C18.8219 11.0104 19.8832 12.491 20.1133 14.25H22.5625C23.2193 14.25 23.75 13.7193 23.75 13.0625V11.875C23.75 10.565 22.685 9.5 21.375 9.5ZM11.875 9.5C14.1721 9.5 16.0312 7.64082 16.0312 5.34375C16.0312 3.04668 14.1721 1.1875 11.875 1.1875C9.57793 1.1875 7.71875 3.04668 7.71875 5.34375C7.71875 7.64082 9.57793 9.5 11.875 9.5ZM14.725 10.6875H14.417C13.6451 11.0586 12.7879 11.2812 11.875 11.2812C10.9621 11.2812 10.1086 11.0586 9.33301 10.6875H9.025C6.66484 10.6875 4.75 12.6023 4.75 14.9625V16.0312C4.75 17.0146 5.54785 17.8125 6.53125 17.8125H17.2188C18.2021 17.8125 19 17.0146 19 16.0312V14.9625C19 12.6023 17.0852 10.6875 14.725 10.6875ZM6.42363 10.1902C5.99316 9.76348 5.40312 9.5 4.75 9.5H2.375C1.06504 9.5 0 10.565 0 11.875V13.0625C0 13.7193 0.530664 14.25 1.1875 14.25H3.63301C3.8668 12.491 4.92813 11.0104 6.42363 10.1902Z" fill="white"/>
</g>
<defs>
<clipPath id="clip0_83_4804">
<rect width="23.75" height="19" fill="white"/>
</clipPath>
</defs>
</svg>
