<svg width="15" height="16" viewBox="0 0 15 16" fill="none" xmlns="http://www.w3.org/2000/svg">
<path d="M14.2066 12.4689C13.9552 13.0279 13.6577 13.5424 13.313 14.0155C12.8431 14.6604 12.4584 15.1068 12.1619 15.3547C11.7023 15.7616 11.2098 15.97 10.6825 15.9818C10.3039 15.9818 9.84735 15.8781 9.31592 15.6678C8.78274 15.4584 8.29275 15.3547 7.84472 15.3547C7.37484 15.3547 6.87089 15.4584 6.33186 15.6678C5.79201 15.8781 5.35712 15.9878 5.02461 15.9986C4.51892 16.0194 4.01488 15.8051 3.51175 15.3547C3.19063 15.0851 2.78898 14.6229 2.30781 13.9681C1.79156 13.2688 1.36713 12.458 1.03462 11.5336C0.678514 10.5351 0.5 9.5682 0.5 8.63213C0.5 7.55987 0.740686 6.63506 1.22278 5.86007C1.60166 5.23757 2.1057 4.74652 2.73655 4.38604C3.3674 4.02556 4.04904 3.84186 4.7831 3.83011C5.18476 3.83011 5.71148 3.94971 6.36603 4.18476C7.01873 4.42061 7.43783 4.54021 7.62157 4.54021C7.75895 4.54021 8.22452 4.40036 9.01378 4.12156C9.76015 3.863 10.3901 3.75594 10.9061 3.79811C12.3045 3.90675 13.3551 4.4374 14.0537 5.39342C12.8031 6.12288 12.1845 7.14457 12.1968 8.45525C12.208 9.47616 12.5928 10.3257 13.3489 11.0003C13.6916 11.3133 14.0742 11.5553 14.5 11.7272C14.4077 11.9849 14.3102 12.2318 14.2066 12.4689ZM10.9995 0.320091C10.9995 1.12027 10.6958 1.8674 10.0905 2.55894C9.36003 3.38104 8.47649 3.85608 7.51836 3.78112C7.50616 3.68512 7.49908 3.58409 7.49908 3.47792C7.49908 2.70975 7.84646 1.88765 8.46336 1.21547C8.77135 0.875136 9.16305 0.592152 9.63806 0.36641C10.112 0.144037 10.5604 0.0210593 10.982 0C10.9944 0.106972 10.9995 0.213951 10.9995 0.320081V0.320091Z" fill="#DADADA"/>
</svg>
