<svg width="20" height="21" viewBox="0 0 20 21" fill="none" xmlns="http://www.w3.org/2000/svg">
<g clip-path="url(#clip0_1169_146)">
<path d="M17.9995 3.5H8.44552C8.00552 3.5 7.37452 3.736 7.04352 4.025L0.247524 9.973C0.169816 10.037 0.107234 10.1174 0.0642696 10.2084C0.0213052 10.2994 -0.000976562 10.3988 -0.000976562 10.4995C-0.000976562 10.6002 0.0213052 10.6996 0.0642696 10.7906C0.107234 10.8816 0.169816 10.962 0.247524 11.026L7.04352 16.973C7.37452 17.262 8.00552 17.5 8.44552 17.5H17.9995C19.0995 17.5 19.9995 16.6 19.9995 15.5V5.5C19.9995 4.4 19.0995 3.5 17.9995 3.5ZM15.1905 14.5L12.6335 11.943L10.0775 14.5L8.63452 13.057L11.1905 10.5L8.63452 7.943L10.0775 6.5L12.6345 9.055L15.1895 6.5L16.6335 7.943L14.0775 10.5L16.6345 13.055L15.1905 14.5Z" fill="white"/>
</g>
<defs>
<clipPath id="clip0_1169_146">
<rect width="20" height="20" fill="white" transform="translate(0 0.5)"/>
</clipPath>
</defs>
</svg>
