<svg width="35" height="35" viewBox="0 0 35 35" fill="none" xmlns="http://www.w3.org/2000/svg">
<rect width="35" height="35" rx="17.5" fill="white"/>
<path d="M21.8967 12.668C22.2592 12.7864 22.5 13.0935 22.5 13.4369V21.5631C22.5 21.9065 22.2583 22.2136 21.8967 22.332C21.2102 22.556 20.4565 22.556 19.77 22.332C19.5933 22.2738 19.4408 22.1691 19.333 22.0318C19.2252 21.8945 19.1671 21.7312 19.1667 21.5639V13.4376C19.1667 13.0942 19.4083 12.7871 19.77 12.668C20.4565 12.444 21.2102 12.444 21.8967 12.668ZM15.23 12.668C15.5925 12.7864 15.8333 13.0935 15.8333 13.4369V21.5631C15.8333 21.9065 15.5917 22.2136 15.23 22.332C14.5435 22.556 13.7898 22.556 13.1033 22.332C12.9266 22.2738 12.7741 22.1691 12.6663 22.0318C12.5585 21.8945 12.5005 21.7312 12.5 21.5639V13.4376C12.5 13.0942 12.7417 12.7871 13.1033 12.668C13.7898 12.444 14.5435 12.444 15.23 12.668Z" fill="#093B65"/>
</svg>
