<?xml version="1.0" encoding="UTF-8"?>
<svg id="Layer_2" data-name="Layer 2" xmlns="http://www.w3.org/2000/svg" viewBox="0 0 206.98 302.01">
  <defs>
    <style>
      .cls-1 {
        fill: #464646;
      }
    </style>
  </defs>
  <g id="Layer_1-2" data-name="Layer 1">
    <g>
      <path class="cls-1" d="M12.35,186.04c-.64-1.15-1.06-1.68-2.42-2.15-.18.27-.36.54-.54.81v1.34c.85.53.92.73,2.42.81.18-.27.36-.54.54-.81Z"/>
      <path class="cls-1" d="M89.93,71.14c-.81,1.05-1.51,1.37-1.88,2.95h.81c.72-.81,1.43-1.61,2.15-2.42-.36-.18-.72-.36-1.07-.54Z"/>
      <path class="cls-1" d="M74.09,131.81c-.57-.86-.28-.66-1.61-.81-.09.54-.18,1.07-.27,1.61.54.18,1.07.36,1.61.54l.54-.54c-.09-.27-.18-.54-.27-.81Z"/>
      <path class="cls-1" d="M182.81,196.24c5.28,5.82,10.56,11.63,15.84,17.45,1.98,2.46,5.17,7.29,8.32,8.32v-.27c-4.35-6.3-25.2-31.92-31.41-33.82,1.1,3.59,5.09,5.65,7.25,8.32Z"/>
      <path class="cls-1" d="M65.5,128.86c-.45-.54-.89-1.07-1.34-1.61-.45-.09-.89-.18-1.34-.27-.27.27-.54.54-.81.81.09.72.18,1.43.27,2.15.96.68.97.98,2.68,1.07.35-.7.48-.94.54-2.15Z"/>
      <path class="cls-1" d="M175.57,247.24c-.27-.72-.54-1.43-.81-2.15-.72-.27-1.43-.54-2.15-.81-.66,2.04.16,3.49,1.88,4.03.36-.36.72-.72,1.07-1.07Z"/>
      <path class="cls-1" d="M9.66,206.98c.72,3.49,11.64,15.22,14.76,16.64.18.18.36.36.54.54.18-.18.36-.36.54-.54-3.61-5.05-9.77-14.38-15.84-16.64Z"/>
      <path class="cls-1" d="M23.36,300.4c-.27.27-.54.54-.81.81v.81h1.07l.54-.54c-.37-1.02,0-.56-.81-1.07Z"/>
      <path class="cls-1" d="M62.28,302.01c.09-.18.18-.36.27-.54v-.27c-.45-.18-.89-.36-1.34-.54.28,1.33-.1.9,1.07,1.34Z"/>
      <path class="cls-1" d="M177.98,239.99c-.49-4.41-4.99-7.53-7.25-10.47-5.73-7.43-11.45-14.85-17.18-22.28-14.61-19.39-29.33-38.79-44.03-57.99-6.47-8.46-12.36-17.3-19.87-24.7h-.81c-19.33,19.86-38.66,39.73-57.99,59.6-3.04,3.06-19.23,17.35-19.87,20.13,4.74,5.1,9.49,10.2,14.23,15.3,1.9,2.57,2.06,5.98,3.76,8.86,3.31,4.03,6.62,8.05,9.93,12.08,2.65,3.39,11.83,9,12.08,13.42.89-.09,1.79-.18,2.68-.27,1.05,1.32,1.73,2.85,3.22,3.76,3.54-2.96,8.81-12.52,13.15-13.69-.18-.54-.36-1.07-.54-1.61.78-1.06,1.81-.74,2.68-1.61v-.54c1.18-1.57,3.91-6.71,4.56-8.32,1.34-.83,1.2-.44,3.22-.27,1.28-2.21,1.82-3.18,3.49-4.83-2.16-3.02-4.62-5.08-9.4-4.83-.09-.98-.18-1.97-.27-2.95-1.21-2.42-8.45-5.74-11.01-6.71-.41-2.21-.83-3.54-1.61-5.1,1.47-3.54,3.86-5.93,6.17-8.59,16.77-19.26,35.1,5.36,46.44,14.5,2.6,2.09,12.89,10.97,13.42,13.96.51,2.9-6.86,10.62-8.05,13.42-2,.8-3.69.26-6.17,1.61-3.92,2.14-6.13,7.78-10.2,9.93-1.1.41-1.77-.07-2.68-.54-.18.18-.36.36-.54.54.54.54,1.07,1.07,1.61,1.61-3.17,3.89-6.11,7.8-9.93,11.01v1.07h.27c5.11-3.13,8.66-7.97,13.42-11.54-.4,3.45-6.67,8.9-8.59,12.62-1.97.36-3.94.72-5.91,1.07-1.35,2.7-.1,5.79-1.61,8.32-5.53,9.27-14.86,15.61-21.74,23.62-.54-.36-1.07-.72-1.61-1.07-.45,1.16-.89,2.33-1.34,3.49h59.33c2.44-2.09,5.68-6.78,7.78-9.4,4.19-5.22,10.21-8.46,13.42-14.76.81.18,1.61.36,2.42.54,3.82-3.33,7.66-8.34,9.93-13.15-.45-1.25-.89-2.51-1.34-3.76,1.31-5.93,14.92-21.53,22.28-21.48ZM71.41,220.4c.36.18.72.36,1.07.54v.81h-1.07v-1.34ZM57.18,254.49c-.18-.09-.36-.18-.54-.27.18-.45.36-.89.54-1.34.36.09.72.18,1.07.27-.36.45-.72.89-1.07,1.34ZM92.88,270.6h-1.34c-.27-.36-.54-.72-.81-1.07.09-.36.18-.72.27-1.07.54-.18,1.07-.36,1.61-.54.45.09.89.18,1.34.27.09.27.18.54.27.81-.45.54-.89,1.07-1.34,1.61ZM105.77,262.01c.09-.27.18-.54.27-.81.09.09.18.18.27.27-.18.18-.36.36-.54.54ZM153.82,265.77v-.54c.24.48.26.07,0,.54Z"/>
      <path class="cls-1" d="M34.63,284.56c.27.36.54.72.81,1.07.45-.09.89-.18,1.34-.27v-1.61c-.57-.86-.28-.66-1.61-.81-.18.54-.36,1.07-.54,1.61Z"/>
      <path class="cls-1" d="M78.92,255.03c.18-.09.36-.18.54-.27.72-1.4.63-2.56-.54-3.49h-.81c-.4.79-.72,1.65-.27,2.68.27.36.54.72.81,1.07h.27Z"/>
      <path class="cls-1" d="M27.92,275.97c1.58,2.66,4.12,3.95,4.83,7.52h.81c.65-3.46-2.33-7.74-4.3-9.66h-.54c-.27.72-.54,1.43-.81,2.15Z"/>
      <path class="cls-1" d="M39.19,272.21c.09-.63.18-1.25.27-1.88-.27-.18-.54-.36-.81-.54h-.81c-.98,1.16-1.97,2.33-2.95,3.49.69.94.76,1.02,2.42,1.07.63-.72,1.25-1.43,1.88-2.15Z"/>
      <path class="cls-1" d="M95.57,256.91c.18-.63.36-1.25.54-1.88h-1.34c-.27.45-.54.89-.81,1.34.27.27.54.54.81.81.27-.09.54-.18.81-.27Z"/>
      <path class="cls-1" d="M79.73,216.37c-2.54-1.2-1.99-3.75-5.64-4.3-.18.27-.36.54-.54.81.59,3.1,2.45,4.39,4.03,6.44h1.07c1.38-1.03,3.28-2.04,4.56-3.22-.09-.54-.18-1.07-.27-1.61-.85-.53-.92-.73-2.42-.81-.27.89-.54,1.79-.81,2.68Z"/>
      <path class="cls-1" d="M93.96,0c-.4,1.66-.4,2.37,0,4.03.36.18.72.36,1.07.54.18-.09.36-.18.54-.27-.09-1.16-.18-2.33-.27-3.49-.54-.84-.13-.57-1.34-.81Z"/>
      <path class="cls-1" d="M0,247.78c.72,2.41,4.36,7.53,6.71,8.32-.49-3.95-3.5-7.2-6.71-8.32Z"/>
      <path class="cls-1" d="M8.59,182.55c-.18-.54-.36-1.07-.54-1.61-.54-.09-1.07-.18-1.61-.27-.18.45-.36.89-.54,1.34.09.18.18.36.27.54.72.09,1.43.18,2.15.27l.27-.27Z"/>
      <path class="cls-1" d="M128.32,121.88c.36.27.72.54,1.07.81-.52-.81-.05-.45-1.07-.81Z"/>
    </g>
  </g>
</svg>