<svg width="54" height="54" viewBox="0 0 54 54" fill="none" xmlns="http://www.w3.org/2000/svg">
<path d="M14.625 24.75L27 4.5L39.375 24.75H14.625ZM39.375 49.5C36.5625 49.5 34.1722 48.516 32.2043 46.548C30.2362 44.58 29.2515 42.189 29.25 39.375C29.2485 36.561 30.2332 34.1707 32.2043 32.2043C34.1752 30.2377 36.5655 29.253 39.375 29.25C42.1845 29.247 44.5755 30.2317 46.548 32.2043C48.5205 34.1768 49.5045 36.567 49.5 39.375C49.4955 42.183 48.5115 44.574 46.548 46.548C44.5845 48.522 42.1935 49.506 39.375 49.5ZM6.75 48.375V30.375H24.75V48.375H6.75ZM39.375 45C40.95 45 42.2812 44.4562 43.3687 43.3687C44.4562 42.2812 45 40.95 45 39.375C45 37.8 44.4562 36.4688 43.3687 35.3813C42.2812 34.2938 40.95 33.75 39.375 33.75C37.8 33.75 36.4688 34.2938 35.3813 35.3813C34.2938 36.4688 33.75 37.8 33.75 39.375C33.75 40.95 34.2938 42.2812 35.3813 43.3687C36.4688 44.4562 37.8 45 39.375 45ZM11.25 43.875H20.25V34.875H11.25V43.875ZM22.6125 20.25H31.3875L27 13.1625L22.6125 20.25Z" fill="white"/>
</svg>
