<svg width="21" height="21" viewBox="0 0 21 21" fill="none" xmlns="http://www.w3.org/2000/svg">
<path fill-rule="evenodd" clip-rule="evenodd" d="M13.125 1.09375H9.576C7.96775 1.09375 6.69375 1.09375 5.69713 1.22762C4.67163 1.36588 3.84125 1.65637 3.18588 2.31088C2.53137 2.96625 2.24088 3.79663 2.10263 4.82213C1.96875 5.81962 1.96875 7.09275 1.96875 8.701V14C1.96877 14.7817 2.24782 15.5378 2.75567 16.1321C3.26352 16.7264 3.96682 17.12 4.739 17.2419C4.85887 17.9104 5.09075 18.4809 5.5545 18.9455C6.08125 19.4722 6.7445 19.698 7.532 19.8048C8.29062 19.9062 9.25575 19.9062 10.4519 19.9062H13.1731C14.3693 19.9062 15.3344 19.9062 16.093 19.8048C16.8805 19.698 17.5438 19.4722 18.0705 18.9455C18.5972 18.4188 18.823 17.7555 18.9298 16.968C19.0312 16.2094 19.0312 15.2443 19.0312 14.0481V9.57687C19.0312 8.38075 19.0312 7.41562 18.9298 6.657C18.823 5.8695 18.5972 5.20625 18.0705 4.6795C17.6059 4.21575 17.0354 3.98387 16.3669 3.864C16.245 3.09182 15.8514 2.38852 15.2571 1.88067C14.6628 1.37282 13.9067 1.09377 13.125 1.09375ZM14.9887 3.73712C14.8557 3.34862 14.6045 3.01145 14.2703 2.77281C13.9361 2.53417 13.5357 2.406 13.125 2.40625H9.625C7.95638 2.40625 6.77163 2.408 5.87125 2.52875C4.99187 2.64688 4.48438 2.86912 4.11425 3.23925C3.74413 3.60938 3.52188 4.11687 3.40375 4.99712C3.283 5.89663 3.28125 7.08138 3.28125 8.75V14C3.281 14.4107 3.40917 14.8111 3.64781 15.1453C3.88645 15.4795 4.22362 15.7307 4.61212 15.8637C4.59375 15.33 4.59375 14.7263 4.59375 14.0481V9.57687C4.59375 8.38075 4.59375 7.41562 4.69613 6.657C4.80113 5.8695 5.02863 5.20625 5.5545 4.6795C6.08125 4.15275 6.7445 3.927 7.532 3.82113C8.29062 3.71875 9.25575 3.71875 10.4519 3.71875H13.1731C13.8513 3.71875 14.455 3.71875 14.9887 3.73712ZM6.482 5.60875C6.72437 5.36637 7.06387 5.20888 7.707 5.12225C8.36675 5.03387 9.2435 5.03212 10.4991 5.03212H13.1241C14.3797 5.03212 15.2556 5.03387 15.9171 5.12225C16.5594 5.20888 16.8989 5.36725 17.1413 5.60875C17.3836 5.85112 17.5411 6.19062 17.6278 6.83375C17.7161 7.4935 17.7179 8.37025 17.7179 9.62588V14.0009C17.7179 15.2565 17.7161 16.1324 17.6278 16.7939C17.5411 17.4361 17.3828 17.7756 17.1413 18.018C16.8989 18.2604 16.5594 18.4179 15.9163 18.5045C15.2556 18.5929 14.3797 18.5946 13.1241 18.5946H10.4991C9.2435 18.5946 8.36675 18.5929 7.70613 18.5045C7.06388 18.4179 6.72437 18.2595 6.482 18.018C6.23962 17.7756 6.08213 17.4361 5.9955 16.793C5.90713 16.1324 5.90538 15.2565 5.90538 14.0009V9.62588C5.90538 8.37025 5.90713 7.4935 5.9955 6.83288C6.08213 6.19063 6.2405 5.85112 6.482 5.60875Z" fill="white"/>
</svg>
