<svg width="19" height="19" viewBox="0 0 19 19" fill="none" xmlns="http://www.w3.org/2000/svg">
<path d="M14.0303 3.23742C14.3925 3.06226 14.6434 2.69265 14.6434 2.26367C14.6434 1.97707 14.5295 1.70221 14.3269 1.49955C14.1242 1.2969 13.8493 1.18304 13.5627 1.18304C13.2761 1.18304 13.0013 1.2969 12.7986 1.49955C12.596 1.70221 12.4821 1.97707 12.4821 2.26367C12.4821 2.69859 12.7389 3.07117 13.1085 3.24336C12.681 5.55898 12.0249 7.28234 9.58313 7.65047C9.58313 7.65047 10.2407 10.9384 13.3163 10.9384C16.392 10.9384 16.7037 7.68312 16.7037 7.68312C14.2084 7.81078 13.9977 4.67429 14.0303 3.23742Z" fill="#F19534"/>
<path d="M5.15674 3.23742C4.79455 3.06226 4.54369 2.69265 4.54369 2.26367C4.54369 1.97707 4.65754 1.70221 4.8602 1.49955C5.06286 1.2969 5.33772 1.18304 5.62432 1.18304C5.91092 1.18304 6.18578 1.2969 6.38843 1.49955C6.59109 1.70221 6.70494 1.97707 6.70494 2.26367C6.70494 2.69859 6.44814 3.07117 6.07854 3.24336C6.50604 5.55898 7.16213 7.28234 9.60393 7.65047C9.60393 7.65047 8.94635 10.9384 5.87072 10.9384C2.7951 10.9384 2.48486 7.68461 2.48486 7.68461C4.97861 7.81078 5.18939 4.67429 5.15674 3.23742Z" fill="#F19534"/>
<path d="M13.2748 10.9384C13.2881 10.9384 13.3015 10.9399 13.3149 10.9399C14.1624 10.9399 14.7992 10.692 15.2772 10.3342L13.2748 10.9384Z" fill="#FFCA28"/>
<path d="M17.6997 2.50266C17.2054 2.43586 16.7334 2.90641 16.6473 3.55062C16.5938 3.95289 16.7022 4.32844 16.9115 4.57039L16.5552 6.04734C16.5552 6.04734 16.0105 9.53711 13.2584 10.2259C11.0586 10.7766 10.2615 6.74945 10.0685 5.50555C10.4871 5.29773 10.7766 4.86726 10.7766 4.36703C10.7766 3.66492 10.2081 3.09641 9.50595 3.09641C8.80384 3.09641 8.23532 3.66492 8.23532 4.36703C8.23532 4.87023 8.52923 5.30516 8.95525 5.51C8.80235 6.73758 8.12845 10.6311 5.75345 10.2244C3.34282 9.81023 2.2904 5.75047 2.04696 4.64609C2.33642 4.40859 2.49821 3.99 2.43884 3.54023C2.35275 2.89453 1.84212 2.43141 1.29884 2.50414C0.755558 2.57687 0.385949 3.15875 0.472042 3.80297C0.534386 4.27203 0.822355 4.64461 1.18306 4.78562L3.07118 16.5166C3.07118 16.5166 4.71884 17.8184 9.50595 17.8184C14.2931 17.8184 15.9407 16.5166 15.9407 16.5166L17.8333 4.75445C18.1391 4.59414 18.3795 4.23344 18.4389 3.79109C18.5265 3.14539 18.1955 2.56945 17.6997 2.50266Z" fill="#FFCA28"/>
<path d="M9.56529 14.8304C10.3638 14.8304 11.0111 14.0588 11.0111 13.107C11.0111 12.1552 10.3638 11.3837 9.56529 11.3837C8.76681 11.3837 8.11951 12.1552 8.11951 13.107C8.11951 14.0588 8.76681 14.8304 9.56529 14.8304Z" fill="#26A69A"/>
<path d="M9.56529 11.8097C9.6217 11.872 9.67217 11.9863 9.56529 12.209C9.45842 12.4317 8.88248 12.733 8.77709 12.7938C8.6717 12.8562 8.60193 12.828 8.56928 12.8027C8.41342 12.6781 8.47279 12.396 8.57373 12.2238C8.79045 11.8513 9.24912 11.4668 9.56529 11.8097Z" fill="#69F0AE"/>
<path d="M9.45841 13.7498C9.29513 13.8285 8.75927 14.0674 8.93591 14.351C9.03982 14.5187 9.25505 14.5899 9.45247 14.5988C9.64989 14.6078 9.84435 14.5454 10.0195 14.4549C10.8508 14.0244 10.9176 12.8933 10.7558 12.8072C10.5895 12.7181 10.4767 12.9482 10.3906 13.0462C10.1288 13.3394 9.81212 13.5784 9.45841 13.7498Z" fill="#00796B"/>
<path d="M17.529 11.6969C17.7606 10.4158 16.8996 10.0952 16.8996 10.0952C16.8996 10.0952 16.3445 9.99427 16.0832 11.4356C15.822 12.8754 16.3771 12.9764 16.3771 12.9764C16.3771 12.9764 17.2959 12.9779 17.529 11.6969Z" fill="#26A69A"/>
<path d="M17.146 10.5331C17.3478 10.8033 17.1088 11.2026 16.7214 11.4683C16.6071 11.547 16.4557 11.5173 16.4335 11.452C16.3711 11.2649 16.3978 11.0527 16.481 10.8731C16.7274 10.3342 17.0435 10.3966 17.146 10.5331Z" fill="#69F0AE"/>
<path d="M1.44877 11.7355C1.21572 10.456 2.07815 10.1338 2.07815 10.1338C2.07815 10.1338 2.6333 10.0329 2.89455 11.4742C3.1558 12.9141 2.60065 13.015 2.60065 13.015C2.60065 13.015 1.68033 13.0165 1.44877 11.7355Z" fill="#26A69A"/>
<path d="M2.34235 10.5688C2.54126 10.7172 2.45962 10.9116 2.3097 11.0467C2.13899 11.2026 2.00837 11.3733 1.8629 11.5499C1.84063 11.5766 1.8154 11.6063 1.77977 11.6138C1.71149 11.6286 1.65657 11.5588 1.6343 11.492C1.57048 11.305 1.58235 11.0853 1.67735 10.9131C1.94751 10.4218 2.26516 10.5109 2.34235 10.5688Z" fill="#69F0AE"/>
<path d="M14.8422 12.9378C14.7398 13.5212 14.2722 13.9264 13.7957 13.8433C13.3192 13.7602 13.2539 13.2629 13.3563 12.6795C13.4588 12.0962 13.6888 11.6494 14.1638 11.7325C14.6403 11.8156 14.9446 12.356 14.8422 12.9378ZM4.51689 12.9378C4.61932 13.5212 5.08689 13.9264 5.56338 13.8433C6.03986 13.7602 6.10518 13.2629 6.00275 12.6795C5.90033 12.0962 5.67025 11.6494 5.19525 11.7325C4.72025 11.8156 4.41596 12.356 4.51689 12.9378Z" fill="#F44336"/>
<path d="M5.20717 12.5489C5.09882 12.6706 4.8346 12.9155 4.74108 12.7285C4.61342 12.4732 4.79007 12.0872 4.99194 11.9596C5.19382 11.8319 5.35858 11.9329 5.38678 12.0472C5.42092 12.1926 5.30366 12.439 5.20717 12.5489ZM13.6533 12.9215C13.5063 12.8992 13.49 12.393 13.8848 11.9952C14.0733 11.8052 14.3435 12.0308 14.2752 12.3351C14.2099 12.6246 13.9219 12.963 13.6533 12.9215Z" fill="#FFA8A4"/>
<path d="M16.202 14.5781C15.3128 15.0234 13.2733 16.2094 9.50745 16.2094C5.74159 16.2094 3.70206 15.0234 2.81292 14.5781C2.81292 14.5781 2.49377 14.7488 2.49377 14.9269V16.294C2.49377 16.4766 2.59026 16.6443 2.7476 16.7378C3.44229 17.1475 5.55901 18.1153 9.50893 18.1153C13.4589 18.1153 15.5756 17.1475 16.2703 16.7378C16.3475 16.6923 16.4115 16.6274 16.456 16.5496C16.5005 16.4717 16.524 16.3837 16.5241 16.294V14.9269C16.5211 14.7488 16.202 14.5781 16.202 14.5781Z" fill="#FFCA28"/>
<path d="M5.87818 16.4528C6.2938 16.5344 6.41998 16.5701 6.39177 16.8016C6.33388 17.2573 5.38833 17.149 4.82873 17.002C3.6724 16.6977 3.43787 16.3771 3.43787 16.0906C3.43787 15.8279 3.63974 15.7967 3.95146 15.9066C4.32404 16.0387 4.89998 16.2613 5.87818 16.4528Z" fill="#FFF59D"/>
<path d="M16.2019 14.8779C16.2019 14.8779 13.7423 16.2702 9.5074 16.2702C5.27248 16.2702 2.81287 14.8779 2.81287 14.8779" stroke="#F19534" stroke-width="0.59375" stroke-miterlimit="10" stroke-linecap="round"/>
<path d="M4.0034 7.35806C4.79309 6.794 5.21762 5.78314 5.25473 4.17407C5.2577 4.02861 5.29926 3.98556 5.37793 3.97665C5.5041 3.96329 5.52488 4.07759 5.5234 4.15923C5.48778 5.89595 5.2666 6.98103 4.39082 7.59259C4.34778 7.62228 4.04051 7.80931 3.90989 7.68017C3.75403 7.52876 3.95293 7.39368 4.0034 7.35806ZM4.72629 2.30673C4.70106 2.03806 4.7634 1.55415 5.46848 1.33447C5.67481 1.27064 5.80246 1.37157 5.82621 1.45025C5.88559 1.64618 5.7134 1.72337 5.63473 1.74861C5.09293 1.92376 5.06621 2.19392 4.95489 2.36611C4.84356 2.53829 4.7352 2.38837 4.72629 2.30673ZM11.6108 7.00181C12.3248 6.36798 12.7983 5.65993 13.11 4.0479C13.1382 3.9054 13.1798 3.86681 13.257 3.86978C13.3832 3.87275 13.3891 3.99001 13.3757 4.07017C13.1115 5.78907 12.8607 6.27892 11.9804 7.25415C11.881 7.364 11.639 7.46345 11.5025 7.34915C11.3793 7.24673 11.5218 7.08196 11.6108 7.00181ZM12.6618 2.32009C12.6365 2.05142 12.6989 1.56751 13.4039 1.34782C13.6103 1.284 13.7379 1.38493 13.7617 1.46361C13.8211 1.65954 13.6489 1.73673 13.5702 1.76197C13.0284 1.93712 13.0017 2.20728 12.8904 2.37947C12.7805 2.55165 12.6707 2.40173 12.6618 2.32009Z" fill="#FFCA28"/>
<path d="M4.68919 10.6311C2.96435 9.84883 2.45669 7.80781 2.18653 6.92164C2.15091 6.80438 2.16872 6.69305 2.28599 6.65742C2.40325 6.6218 2.47302 6.6975 2.51013 6.81477C2.70607 7.4575 3.46755 9.60391 5.0395 10.214C5.1538 10.2585 5.33192 10.3669 5.23544 10.5524C5.17161 10.6727 4.96677 10.7573 4.68919 10.6311ZM1.88224 3.65602C1.79911 3.48383 1.76497 3.32055 1.31224 3.13203C1.19794 3.08453 1.12224 2.97914 1.15341 2.86039C1.18458 2.74164 1.30333 2.65258 1.47552 2.68227C2.03513 2.77875 2.15685 3.34727 2.1806 3.54469C2.20286 3.73469 1.96685 3.8282 1.88224 3.65602ZM14.3792 10.6311C16.104 9.84883 16.6117 7.80781 16.8818 6.92164C16.9175 6.80438 16.8997 6.69305 16.7824 6.65742C16.6651 6.6218 16.5954 6.6975 16.5583 6.81477C16.3623 7.4575 15.6008 9.60391 14.0289 10.214C13.9146 10.2585 13.7365 10.3669 13.8329 10.5524C13.8968 10.6727 14.1016 10.7573 14.3792 10.6311ZM17.1861 3.65602C17.2693 3.48383 17.3034 3.32055 17.7561 3.13203C17.8704 3.08453 17.9461 2.97914 17.915 2.86039C17.8838 2.74164 17.765 2.65258 17.5929 2.68227C17.0333 2.77875 16.9115 3.34727 16.8878 3.54469C16.8655 3.73469 17.103 3.8282 17.1861 3.65602ZM8.81427 4.38633C8.90482 4.20078 9.06364 3.94696 9.58169 3.84008C9.7806 3.79852 9.83849 3.71242 9.82067 3.5818C9.78505 3.31016 9.44661 3.32946 9.26403 3.3725C8.65544 3.515 8.52036 4.05531 8.49513 4.26906C8.46989 4.47242 8.72521 4.57188 8.81427 4.38633Z" fill="#FFF59D"/>
</svg>
