<?xml version="1.0" encoding="UTF-8"?><svg id="Layer_2" xmlns="http://www.w3.org/2000/svg" viewBox="0 0 98 98"><defs><style>.cls-1{fill:#1d627d;}.cls-2{fill:#86201b;}.cls-3{fill:#051733;}.cls-4{fill:#fff;}.cls-5{fill:#611714;}.cls-6{fill:#d7eaf1;}.cls-7{fill:#0c415b;}</style></defs><g id="OBJECT"><path class="cls-6" d="M98,49c0,11.83-4.19,22.68-11.17,31.14-3.31,4.02-7.26,7.51-11.68,10.31-.79.5-1.58.98-2.4,1.42-7.03,3.91-15.13,6.13-23.75,6.13s-16.71-2.22-23.75-6.13c-.82-.45-1.62-.92-2.4-1.42-4.43-2.79-8.37-6.28-11.68-10.3C4.19,71.69,0,60.83,0,49,0,21.94,21.94,0,49,0s49,21.94,49,49Z"/><path class="cls-7" d="M86.83,80.14c-3.31,4.02-7.26,7.51-11.68,10.31-.79.5-1.58.98-2.4,1.42-7.03,3.91-15.13,6.13-23.75,6.13s-16.71-2.22-23.75-6.13c-.82-.45-1.62-.92-2.4-1.42-4.43-2.79-8.37-6.28-11.68-10.3,1.5-3.91,4.79-6.94,8.92-8.08l11.74-3.24,1.77-.49,3.96-1.09,2.17-.6,1.7-9.54.15-.87.57-3.21.88.35,5.96,2.33,5.96-2.33.88-.35.57,3.21,1.52,8.54.33,1.86,2.22.61,3.89,1.08,1.78.49,11.74,3.24c4.14,1.14,7.41,4.17,8.92,8.08Z"/><path class="cls-1" d="M64.39,68.74c0,4.97-6.89,8.99-15.39,8.99s-15.39-4.02-15.39-8.99v-.42l3.96-1.09,2.17-.6,2.43-13.61,6.84,2.68,6.84-2.68,2.43,13.61,2.22.61,3.89,1.08c0,.14.02.28.02.42Z"/><path class="cls-2" d="M60.48,67.25l-.19,1.5c0,1.53-4.4,4.45-11.29,4.45s-11.29-2.93-11.29-4.45l-.14-1.5,2.17-.6,1.7-9.54.73-4.08,6.84,2.68,6.84-2.68,2.09,11.75.33,1.86,2.22.61Z"/><path class="cls-5" d="M57.93,64.77c-2.11.63-3.66.63-3.66.63,0,0-8.64,0-12.83-8.3l.73-4.08,6.84,2.68,6.84-2.68,2.09,11.75Z"/><path class="cls-3" d="M65.19,22.47c-2.77-5.35-16.17-5.08-16.17-5.08h0s0,0,0,0c0,0-13.39-.27-16.16,5.08-2.28,4.7-1.99,27.75,4.71,28.4h22.91c6.7-.65,6.99-23.71,4.71-28.4Z"/><path class="cls-2" d="M66.68,41.74c-.69,1.01-1.71,1.78-2.9,2.05-.11.82-.26,1.6-.45,2.32-3.02,12.42-14.33,12.42-14.33,12.42,0,0-11.31,0-14.33-12.42-.18-.73-.33-1.5-.45-2.32-1.19-.27-2.22-1.04-2.9-2.05s-.98-2.28-.79-3.5c.09-.6.32-1.21.78-1.61.42-.36.98-.51,1.54-.49.52.02,1.02.19,1.5.42.03.02.05.02.08.04,0,0,0-1.09.12-2.67.29-4.05,1.31-11.32,4.87-11.43,3.24-.17,4.68.81,9.59.81s6.35-.98,9.59-.81c3.56.11,4.58,7.38,4.87,11.43.12,1.58.12,2.67.12,2.67.03-.02.05-.02.08-.04.48-.23.98-.39,1.5-.42.55-.02,1.12.13,1.54.49.46.4.69,1.01.78,1.61.18,1.22-.11,2.49-.79,3.5Z"/><path class="cls-3" d="M63.67,36.55l-.11,7.24-.23,2.32c-3.02,12.42-14.33,12.42-14.33,12.42,0,0-11.31,0-14.33-12.42l-.23-2.32-.11-7.24s.05.02.08.04c0,0,0-1.09.12-2.67.64.94,2.31,4.05,2.31,11.09,0,0,2.65.65,3.77,3.09,1.13,2.44,1.41,7.6,8.37,7.6s7.24-5.16,8.37-7.6c1.12-2.44,3.77-3.09,3.77-3.09,0-7.03,1.67-10.15,2.31-11.09.12,1.58.12,2.67.12,2.67.03-.02.05-.02.08-.04Z"/><path class="cls-3" d="M51.13,43.78c-1.24-.01-1.84.48-2.13.92-.29-.43-.89-.93-2.13-.92-1.65.02-5.54,1.55-5.54,1.55h15.34s-3.89-1.53-5.54-1.55Z"/><path class="cls-5" d="M48.29,34.59v8.65h1.47c2.51,0-1-7.66-1.47-8.65Z"/><path class="cls-3" d="M58.95,31.21c-2.03-1-4.28-1.15-6.39-.31-.89.36-.51,1.82.4,1.46,1.73-.69,3.54-.67,5.23.16.87.43,1.64-.87.76-1.31Z"/><circle class="cls-3" cx="55.7" cy="34.59" r="1.43"/><path class="cls-3" d="M39.05,31.21c2.03-1,4.28-1.15,6.39-.31.89.36.51,1.82-.4,1.46-1.73-.69-3.54-.67-5.23.16-.87.43-1.64-.87-.76-1.31Z"/><circle class="cls-3" cx="42.3" cy="34.59" r="1.43"/><path class="cls-4" d="M44.36,47.37c.5,1.88,2.39,3.27,4.65,3.27s4.14-1.4,4.65-3.27h-9.29Z"/><path class="cls-3" d="M75.15,90.45c-.79.5-1.58.98-2.4,1.42l.97-9.67,1.43,8.25Z"/><path class="cls-3" d="M25.26,91.87c-.82-.45-1.62-.92-2.4-1.42l1.43-8.25.97,9.67Z"/></g></svg>