<svg width="54" height="54" viewBox="0 0 54 54" fill="none" xmlns="http://www.w3.org/2000/svg">
<g clip-path="url(#clip0_1245_573)">
<path d="M39.1934 3.9841C37.8434 3.35044 36.5669 2.75391 35.4051 2.17088C32.4275 0.679127 29.7275 -0.0456543 27.154 -0.0456543C21.9709 -0.0456543 18.3841 2.9446 16.1346 5.19403L5.22665 16.1138C-0.610414 21.9568 -1.54276 27.9053 2.20681 35.4045C2.78821 36.5689 3.38643 37.848 4.01924 39.2031C7.43137 46.5007 10.9582 54.0472 16.7312 54.0472C16.8932 54.0472 17.0535 54.0421 17.2172 54.0294C23.1749 53.5629 24.8649 45.8932 26.3567 39.1271C26.5938 38.0556 26.8182 37.0278 27.0486 36.1065C27.4493 34.5135 28.2382 33.5238 30.3999 31.357L30.6969 31.0583L30.88 30.8753L31.3609 30.396C33.5277 28.2293 34.5174 27.4412 36.1121 27.0387C37.0249 26.8093 38.0502 26.5831 39.1192 26.3485C45.881 24.856 53.5473 23.1651 54.0114 17.1981C54.4796 11.1424 46.7095 7.50338 39.1934 3.9841ZM50.5445 16.8926C50.2162 21.0995 40.7985 22.3413 35.1934 23.747C32.7144 24.3731 31.2058 25.6851 28.9294 27.9624C28.7708 28.1209 28.6113 28.2796 28.4501 28.4407C28.2907 28.6002 28.132 28.7622 27.9725 28.92C25.6961 31.1989 24.3866 32.7067 23.763 35.1891C22.3565 40.7992 21.1163 50.2272 16.9144 50.558C16.8386 50.5635 16.7626 50.566 16.6865 50.5656C12.2281 50.5656 8.47683 40.4279 5.16685 33.8138C1.80535 27.0899 3.24558 22.7277 7.55888 18.4103C8.3866 17.5809 9.41592 16.5515 10.6773 15.2893C11.9657 13.9993 13.4979 12.4653 15.3137 10.6487C16.5742 9.38647 17.6028 8.35878 18.4313 7.52769C21.1102 4.84625 23.8069 3.27519 27.0756 3.27519C29.0693 3.27519 31.2749 3.85822 33.8188 5.13397C40.5401 8.50396 50.8988 12.3312 50.5445 16.8926ZM25.2489 18.5242H28.6239V15.1492H25.2489V18.5242ZM25.2489 13.4617H28.6239V10.0867H25.2489V13.4617ZM30.3114 13.4617H33.6864V10.0867H30.3114V13.4617ZM30.3114 18.5242H33.6864V15.1492H30.3114V18.5242ZM17.3971 28.6577L18.6804 27.3743C19.3132 26.7415 19.3132 25.7147 18.6804 25.0827C18.0476 24.4499 17.0224 24.4499 16.3896 25.0827L15.1054 26.3669L13.8212 25.0827C13.1884 24.4499 12.1633 24.4499 11.5305 25.0827C10.8977 25.7155 10.8977 26.7415 11.5305 27.3743L12.8146 28.6585L11.5305 29.9426C10.8977 30.5747 10.8977 31.6006 11.5305 32.2334C12.1633 32.8662 13.1893 32.8662 13.8212 32.2334L15.1054 30.9501L16.4267 32.2714C17.0596 32.9042 18.0847 32.9042 18.7175 32.2714C19.3503 31.6386 19.3503 30.6118 18.7175 29.979L17.3971 28.6577Z" fill="white"/>
</g>
<defs>
<clipPath id="clip0_1245_573">
<rect width="54" height="54" fill="white"/>
</clipPath>
</defs>
</svg>
