<svg width="17" height="16" viewBox="0 0 17 16" fill="none" xmlns="http://www.w3.org/2000/svg">
<path fill-rule="evenodd" clip-rule="evenodd" d="M16.18 8.18183C16.18 7.61456 16.1291 7.06911 16.0345 6.54547H8.5V9.64002H12.8055C12.62 10.64 12.0564 11.4873 11.2091 12.0546V14.0618H13.7945C15.3073 12.6691 16.18 10.6182 16.18 8.18183Z" fill="#DADADA"/>
<path fill-rule="evenodd" clip-rule="evenodd" d="M8.49998 15.9999C10.66 15.9999 12.4709 15.2835 13.7945 14.0617L11.2091 12.0544C10.4927 12.5344 9.57635 12.818 8.49998 12.818C6.41635 12.818 4.65271 11.4108 4.02362 9.51987H1.35089V11.5926C2.66725 14.2071 5.37271 15.9999 8.49998 15.9999Z" fill="#DADADA"/>
<path fill-rule="evenodd" clip-rule="evenodd" d="M4.02364 9.52005C3.86364 9.04005 3.77273 8.52732 3.77273 8.00005C3.77273 7.47277 3.86364 6.96005 4.02364 6.48005V4.40732H1.35091C0.809091 5.48732 0.5 6.70914 0.5 8.00005C0.5 9.29095 0.809091 10.5128 1.35091 11.5928L4.02364 9.52005Z" fill="#DADADA"/>
<path fill-rule="evenodd" clip-rule="evenodd" d="M8.49998 3.18182C9.67453 3.18182 10.7291 3.58545 11.5582 4.37818L13.8527 2.08364C12.4673 0.792727 10.6563 0 8.49998 0C5.37271 0 2.66725 1.79273 1.35089 4.40727L4.02362 6.48C4.65271 4.58909 6.41635 3.18182 8.49998 3.18182Z" fill="#DADADA"/>
</svg>
