<svg width="17" height="17" viewBox="0 0 17 17" fill="none" xmlns="http://www.w3.org/2000/svg">
<path opacity="0.5" fill-rule="evenodd" clip-rule="evenodd" d="M8.40234 0.472656C3.98407 0.472656 0.402344 4.05438 0.402344 8.47266C0.402344 12.8909 3.98407 16.4727 8.40234 16.4727C12.8206 16.4727 16.4023 12.8909 16.4023 8.47266C16.4023 4.05438 12.8206 0.472656 8.40234 0.472656ZM5.36488 2.77698C5.11888 2.93898 4.88788 3.11298 4.67188 3.29898L5.32888 4.32498C5.44288 4.52298 5.61388 4.62198 5.84188 4.62198C5.94388 4.62198 6.05188 4.58598 6.16588 4.51398C6.27988 4.44198 6.41788 4.36398 6.57988 4.27998C6.74188 4.18998 6.93388 4.10898 7.15588 4.03698C7.38388 3.96498 7.66288 3.92898 7.99288 3.92898C8.44288 3.92898 8.80288 4.04598 9.07288 4.27998C9.34888 4.51398 9.48688 4.82898 9.48688 5.22498C9.48688 5.54898 9.41488 5.83098 9.27088 6.07098C9.13288 6.30498 8.95888 6.51798 8.74888 6.70998C8.54488 6.89598 8.32288 7.07298 8.08288 7.24098C7.84888 7.40298 7.63588 7.57398 7.44388 7.75398C7.25188 7.92798 7.09888 8.12298 6.98488 8.33898C6.87088 8.54898 6.83488 8.79798 6.87688 9.08598L7.04788 10.544H8.74888L8.97388 9.25698C9.00988 9.07098 9.10288 8.90298 9.25288 8.75298C9.40888 8.59698 9.59188 8.44098 9.80188 8.28498C10.0119 8.12898 10.2339 7.96098 10.4679 7.78098C10.7019 7.60098 10.9149 7.38798 11.1069 7.14198C11.3049 6.89598 11.4669 6.60798 11.5929 6.27798C11.7249 5.94198 11.7909 5.54598 11.7909 5.08998C11.7909 4.61598 11.7039 4.18698 11.5299 3.80298C11.3619 3.41898 11.1219 3.09198 10.8099 2.82198C10.4979 2.54598 10.1229 2.33598 9.68488 2.19198C9.24688 2.04198 8.75788 1.96698 8.21788 1.96698C7.82788 1.96698 7.46188 2.00298 7.11988 2.07498C6.78388 2.14098 6.46888 2.23398 6.17488 2.35398C5.88688 2.47398 5.61688 2.61498 5.36488 2.77698ZM6.46288 13.307C6.39088 13.481 6.35488 13.667 6.35488 13.865C6.35488 14.069 6.39088 14.258 6.46288 14.432C6.54088 14.606 6.64588 14.759 6.77788 14.891C6.90988 15.017 7.06288 15.116 7.23688 15.188C7.41688 15.26 7.61188 15.296 7.82188 15.296C8.02588 15.296 8.21788 15.26 8.39788 15.188C8.57788 15.116 8.73388 15.017 8.86588 14.891C8.99788 14.759 9.09988 14.606 9.17188 14.432C9.24988 14.258 9.28888 14.069 9.28888 13.865C9.28888 13.667 9.24988 13.481 9.17188 13.307C9.09988 13.127 8.99788 12.974 8.86588 12.848C8.73388 12.716 8.57788 12.614 8.39788 12.542C8.21788 12.464 8.02588 12.425 7.82188 12.425C7.61188 12.425 7.41688 12.464 7.23688 12.542C7.06288 12.614 6.90988 12.716 6.77788 12.848C6.64588 12.974 6.54088 13.127 6.46288 13.307Z" fill="white"/>
</svg>
