<svg width="309" height="293" viewBox="0 0 309 293" fill="none" xmlns="http://www.w3.org/2000/svg">
<circle cx="154" cy="141" r="109" fill="white"/>
<path d="M295.058 210.689C290.244 210.579 285.965 212.863 283.314 216.432C282.419 217.637 280.561 217.639 279.666 216.434C277.076 212.947 272.933 210.685 268.254 210.685C263.575 210.685 259.432 212.947 256.842 216.434C255.947 217.639 254.089 217.637 253.195 216.432C250.543 212.863 246.264 210.579 241.451 210.689C234.078 210.858 227.923 216.852 227.573 224.218C227.184 232.392 233.696 239.142 241.785 239.142C246.463 239.142 250.606 236.88 253.196 233.393C254.091 232.189 255.949 232.189 256.843 233.393C259.433 236.88 263.577 239.142 268.255 239.142C272.933 239.142 277.076 236.88 279.666 233.393C280.561 232.189 282.419 232.189 283.313 233.393C285.903 236.88 290.047 239.142 294.725 239.142C302.813 239.142 309.326 232.392 308.936 224.218C308.586 216.852 302.431 210.859 295.058 210.689Z" fill="#BA91EF"/>
<path d="M67.5008 95.4032C62.6867 95.2926 58.408 97.5772 55.7567 101.146C54.8615 102.351 53.0034 102.352 52.109 101.148C49.5189 97.6607 45.3756 95.3993 40.6975 95.3993C36.0194 95.3993 31.876 97.6607 29.2859 101.148C28.3907 102.352 26.5327 102.351 25.6383 101.146C22.9869 97.5772 18.7075 95.2926 13.8941 95.4032C6.52167 95.5719 0.366697 101.566 0.0165754 108.932C-0.372536 117.106 6.13972 123.855 14.2283 123.855C18.9064 123.855 23.0498 121.594 25.6399 118.107C26.5343 116.903 28.3923 116.903 29.2867 118.107C31.8768 121.594 36.0202 123.855 40.6983 123.855C45.3764 123.855 49.5197 121.594 52.1098 118.107C53.0042 116.903 54.8623 116.903 55.7567 118.107C58.3468 121.594 62.4901 123.855 67.1682 123.855C75.2568 123.855 81.7683 117.106 81.38 108.932C81.0274 101.566 74.8725 95.5719 67.5008 95.4032Z" fill="#F7941D"/>
<path d="M114.552 273.274L139.475 286.27C141.58 287.368 140.799 290.554 138.425 290.554H104.101C102.083 290.554 100.61 288.647 101.118 286.694L104.611 273.274H114.552Z" fill="#9A73D8"/>
<path d="M121.9 277.072L116.523 285.822L116.862 286.03L122.239 277.281L121.9 277.072Z" fill="#223B36"/>
<path d="M124.591 278.461L120.061 285.83L120.4 286.039L124.93 278.669L124.591 278.461Z" fill="#223B36"/>
<path d="M127.293 279.852L123.625 285.819L123.964 286.028L127.632 280.06L127.293 279.852Z" fill="#223B36"/>
<path d="M54.2312 273.274L79.1543 286.27C81.2598 287.368 80.4792 290.554 78.1047 290.554H43.7801C41.7622 290.554 40.2885 288.647 40.7969 286.694L44.2902 273.274H54.2312Z" fill="#BA91EF"/>
<path d="M61.5677 277.082L56.1899 285.83L56.5288 286.039L61.9066 277.291L61.5677 277.082Z" fill="#223B36"/>
<path d="M64.2849 278.452L59.7555 285.823L60.0945 286.031L64.6239 278.661L64.2849 278.452Z" fill="#223B36"/>
<path d="M66.9733 279.855L63.306 285.822L63.645 286.031L67.3123 280.063L66.9733 279.855Z" fill="#223B36"/>
<path d="M104.611 273.274L109.664 252.486L127.448 251.027L114.552 273.274H104.611Z" fill="#EF6569"/>
<path d="M44.2902 273.274L49.3439 252.486L67.1284 251.027L54.2313 273.274H44.2902Z" fill="#FF9B9D"/>
<path d="M133.823 35.7338C135.024 33.9753 137.804 35.3965 139.584 36.5901C140.522 37.2187 141.506 36.9879 142.159 36.3919C142.786 38.4401 143.797 42.0209 144.539 44.6771L133.823 35.7338Z" fill="#EF6569"/>
<g opacity="0.2">
<path d="M133.823 35.7338C135.024 33.9753 137.804 35.3965 139.584 36.5901C140.522 37.2187 141.506 36.9879 142.159 36.3919C142.786 38.4401 143.797 42.0209 144.539 44.6771L133.823 35.7338Z" fill="#223B36"/>
</g>
<path d="M144.571 44.2466L144.926 70.0322L117.145 55.752C111.574 52.8882 104.738 55.1839 102.024 60.8304C99.6364 65.7997 101.237 71.7828 105.81 74.8623C117.826 82.9557 136.13 91.7198 150.301 84.4437C170.12 74.2687 150.066 43.8431 150.066 43.8431L144.571 44.2466Z" fill="#EF6569"/>
<path d="M108.838 53.5733C108.838 53.5733 128.923 71.8528 126.779 81.7819C124.635 91.7119 119.779 131.969 119.779 131.969H78.5448C78.5448 131.969 61.2217 60.7245 84.691 55.2308C108.161 49.7363 108.838 53.5733 108.838 53.5733Z" fill="#BA91EF"/>
<path d="M73.2397 100.406C91.1149 95.7382 94.3575 72.0446 94.3575 72.0446L72.393 85.7486C72.4232 90.5747 72.7495 95.5648 73.2397 100.406Z" fill="#9A73D8"/>
<path d="M83.4613 78.4959L83.0658 78.5395L88.9648 131.991L89.3603 131.947L83.4613 78.4959Z" fill="#223B36"/>
<path d="M99.9754 39.5215L111.541 44.6158L109 58.8967L111.03 61.459C111.913 62.5722 110.937 64.0244 109.293 64.0563C103.764 64.1645 93.6947 63.1961 92.5274 54.8656L99.9754 39.5215Z" fill="#FF9B9D"/>
<path d="M99.6603 40.953L104.43 41.4838L111.541 44.6158L110.493 50.5026C106.359 49.5294 101.07 47.0865 99.6603 40.953Z" fill="#EF6569"/>
<path d="M120.853 30.9281C124.938 23.3744 122.126 13.9392 114.573 9.85403C107.019 5.76887 97.5837 8.5807 93.4985 16.1344C89.4133 23.6881 92.2252 33.1233 99.7789 37.2085C107.333 41.2936 116.768 38.4818 120.853 30.9281Z" fill="#223B36"/>
<path d="M123.199 34.3771C122.817 35.6583 122.292 36.9155 121.631 38.1011L115.775 36.5495C115.775 36.5495 115.95 40.3292 118.194 42.5015C116.507 44.0612 114.509 45.2547 112.273 45.8993C105.319 47.9045 98.0617 43.8861 96.0564 36.9314C94.0591 29.9688 98.0776 22.7117 105.032 20.7065C111.987 18.7092 119.252 22.7276 121.249 29.6823C121.384 30.1359 121.48 30.5974 121.56 31.051C122.308 31.1862 123.071 31.1624 123.796 30.8759C123.931 30.8202 123.286 34.0588 123.199 34.3771Z" fill="#FF9B9D"/>
<path d="M114.437 17.0565C115.327 18.5906 115.992 20.2394 116.371 21.9112C118.215 30.0452 111.01 35.0328 104.222 37.4486C107.393 39.7205 112.045 64.5966 85.5639 69.6089C60.356 74.3801 53.2971 51.5323 69.2976 42.1267C69.2976 42.1267 66.8667 20.9253 87.2859 21.3693C86.5626 21.3534 89.9094 15.7252 90.1616 15.422C97.0845 7.10905 108.93 7.56421 114.437 17.0565Z" fill="#223B36"/>
<path d="M102.475 35.0829C101.728 32.4841 103.228 29.7714 105.827 29.0235C108.426 28.2763 111.139 29.777 111.887 32.3759C112.634 34.9747 111.133 37.6874 108.534 38.4353C105.935 39.1825 103.223 37.6818 102.475 35.0829Z" fill="#FF9B9D"/>
<path d="M110.748 35.9805L105.533 30.9268C105.533 30.9268 104.547 36.9823 110.748 35.9805Z" fill="#EF6569"/>
<path d="M141.022 16.6713C141.022 13.6842 138.6 11.262 135.612 11.262C132.625 11.262 130.204 13.6834 130.204 16.6713C130.204 19.6585 132.625 22.0807 135.612 22.0807C138.6 22.0807 141.022 19.6585 141.022 16.6713Z" fill="#9A73D8"/>
<path d="M131.119 14.6056C133.6 14.6056 135.612 12.5938 135.612 10.1121C135.612 7.63046 133.6 5.61865 131.119 5.61865C128.637 5.61865 126.625 7.63046 126.625 10.1121C126.625 12.5938 128.637 14.6056 131.119 14.6056Z" fill="#BA91EF"/>
<path d="M129.986 20.7924L141.867 18.6336L141.002 41.062C140.958 42.2119 139.386 42.5063 138.929 41.4504L129.986 20.7924Z" fill="#F7941D"/>
<path d="M142.878 33.91C142.755 33.6618 142.588 33.4206 142.325 33.2082C142.078 33.0085 141.789 32.8334 141.456 32.6942C130.786 28.2221 133.834 25.5127 133.834 25.5127L142.965 29.6982C134.618 21.3685 138.708 20.3389 138.708 20.3389L140.359 22.1977C140.2 20.1065 141.768 19.0354 141.768 19.0354L150.09 33.1557L150.302 44.2848L144.806 44.6874C136.465 40.5416 142.608 34.183 142.878 33.91Z" fill="#EF6569"/>
<path d="M62.2626 38.0669C61.0618 36.3084 58.2823 37.7295 56.5015 38.9231C55.5641 39.5518 54.5798 39.3202 53.9273 38.725C53.3003 40.7732 52.2889 44.354 51.5473 47.0101L62.2626 38.0669Z" fill="#EF6569"/>
<path d="M51.5154 46.5797L51.1605 72.3653L78.9419 58.0851C84.5128 55.2213 91.3489 57.5177 94.0615 63.1634C96.4495 68.1328 94.8493 74.1159 90.2762 77.1962C78.2599 85.2895 59.9557 94.4134 45.7846 87.138C25.9661 76.963 46.0201 46.177 46.0201 46.177L51.5154 46.5797Z" fill="#FF9B9D"/>
<path d="M74.3975 23.2415L50.7786 29.5226L58.7806 59.6126L82.3994 53.3315L74.3975 23.2415Z" fill="#EF4136"/>
<path d="M58.0675 43.267C58.7335 45.7704 61.3029 47.2608 63.8063 46.5948C66.3096 45.9287 67.8 43.3593 67.134 40.8559C66.468 38.3526 63.8986 36.8622 61.3952 37.5282C58.8918 38.1942 57.4014 40.7636 58.0675 43.267Z" fill="#F7941D"/>
<g opacity="0.2">
<path d="M58.0675 43.267C58.7335 45.7704 61.3029 47.2608 63.8063 46.5948C66.3096 45.9287 67.8 43.3593 67.134 40.8559C66.468 38.3526 63.8986 36.8622 61.3952 37.5282C58.8918 38.1942 57.4014 40.7636 58.0675 43.267Z" fill="#223B36"/>
</g>
<path d="M62.5833 40.256C62.7416 40.852 63.3535 41.2069 63.9495 41.0485C64.5455 40.8902 64.9004 40.2782 64.7421 39.6822C64.5837 39.0862 63.9718 38.7313 63.3758 38.8897C62.779 39.048 62.4241 39.66 62.5833 40.256Z" fill="#223B36"/>
<path d="M61.3546 44.1304C61.513 44.7264 62.1249 45.0813 62.7209 44.9229C63.3169 44.7646 63.6718 44.1527 63.5134 43.5567C63.3551 42.9607 62.7432 42.6058 62.1472 42.7641C61.5512 42.9225 61.1963 43.5344 61.3546 44.1304Z" fill="#223B36"/>
<path d="M59.9128 41.265C60.0305 41.7066 60.4833 41.97 60.9257 41.8522C61.3674 41.7344 61.6308 41.2817 61.513 40.8392C61.3952 40.3976 60.9424 40.1342 60.5 40.252C60.0584 40.3698 59.7958 40.8233 59.9128 41.265Z" fill="#223B36"/>
<path d="M73.5985 46.5383C74.4468 49.7292 72.5482 53.0036 69.3573 53.8518C66.1664 54.7001 62.892 52.8015 62.0437 49.6106C61.1955 46.4197 63.0941 43.1453 66.285 42.297C69.4759 41.4488 72.7503 43.3474 73.5985 46.5383Z" fill="#F7941D"/>
<path d="M66.698 46.0656C66.9001 46.8255 66.4481 47.6046 65.6882 47.8067C64.9283 48.0088 64.1484 47.5568 63.9471 46.7969C63.745 46.037 64.197 45.2572 64.9569 45.0558C65.716 44.8537 66.4958 45.3057 66.698 46.0656Z" fill="#223B36"/>
<path d="M70.5087 49.5748C70.7108 50.3347 70.2588 51.1137 69.4989 51.3158C68.739 51.5179 67.96 51.066 67.7579 50.306C67.5558 49.5461 68.0077 48.7663 68.7676 48.5642C69.5268 48.3629 70.3066 48.8148 70.5087 49.5748Z" fill="#223B36"/>
<path d="M70.1085 46.4038C69.7544 46.8669 69.0923 46.9552 68.6292 46.6011C68.1661 46.247 68.0778 45.585 68.4319 45.1219C68.786 44.6588 69.448 44.5704 69.9111 44.9245C70.3734 45.2786 70.4618 45.9407 70.1085 46.4038Z" fill="#223B36"/>
<path d="M73.6224 33.8026C74.2248 36.0673 72.8768 38.3916 70.6122 38.9932C68.3475 39.5955 66.024 38.2476 65.4216 35.9829C64.8192 33.7183 66.1672 31.3947 68.4319 30.7924C70.6965 30.1908 73.02 31.538 73.6224 33.8026Z" fill="#F7941D"/>
<path d="M68.7247 33.4668C68.8679 34.0063 68.5472 34.5593 68.0077 34.7026C67.4682 34.8458 66.9152 34.5251 66.772 33.9856C66.6287 33.4461 66.9494 32.8931 67.4889 32.7499C68.0284 32.6074 68.5814 32.9281 68.7247 33.4668Z" fill="#223B36"/>
<path d="M71.4302 35.9574C71.5734 36.4969 71.2527 37.05 70.7132 37.1932C70.1737 37.3364 69.6207 37.0158 69.4774 36.4763C69.3342 35.9368 69.6549 35.3837 70.1944 35.2405C70.7331 35.0973 71.2861 35.4179 71.4302 35.9574Z" fill="#223B36"/>
<path d="M71.1453 33.7071C70.8938 34.0358 70.4244 34.0986 70.0957 33.8472C69.7671 33.5957 69.7042 33.1262 69.9557 32.7976C70.2071 32.469 70.6766 32.4061 71.0053 32.6575C71.3339 32.9082 71.3967 33.3785 71.1453 33.7071Z" fill="#223B36"/>
<path d="M71.6677 26.464L51.3989 31.872L51.5015 32.2565L71.7702 26.8484L71.6677 26.464Z" fill="#223B36"/>
<path d="M71.939 27.4646L51.6702 32.8706L51.7727 33.255L72.0415 27.849L71.939 27.4646Z" fill="#223B36"/>
<path d="M53.2079 36.2431C53.3313 35.9948 53.4984 35.7537 53.761 35.5413C54.0077 35.3415 54.2973 35.1665 54.6299 35.0272C65.2999 30.5552 62.2522 27.8458 62.2522 27.8458L53.1204 32.0313C61.4676 23.7016 57.3776 22.6719 57.3776 22.6719L55.7264 24.5316C55.8856 22.4404 54.318 21.3685 54.318 21.3685L45.9954 35.4888L45.7838 46.6178L51.2799 47.0205C59.6215 42.8747 53.4777 36.516 53.2079 36.2431Z" fill="#FF9B9D"/>
<path d="M51.1605 72.3653V78.5195C51.1605 78.5195 54.606 76.1084 54.8265 70.481L51.1605 72.3653Z" fill="#EF6569"/>
<g opacity="0.2">
<path d="M144.925 76.1386V70.0322L140.982 68.0047C141.512 72.2212 144.925 76.1386 144.925 76.1386Z" fill="#223B36"/>
</g>
<path d="M122.171 131.968H74.4022V138.715H122.171V131.968Z" fill="#F7941D"/>
<path d="M122.171 138.716L144.926 187.943V266.708H100.924L113.785 191.226C113.785 191.226 75.8616 158.043 74.403 138.716H122.171V138.716Z" fill="#223B36"/>
<path d="M74.4022 138.716C74.4022 138.716 67.8382 151.114 76.6008 191.955C76.6008 191.955 47.384 223.059 32.3232 245.92L69.2976 269.964C118.16 217.116 114.15 138.716 114.15 138.716H74.4022V138.716Z" fill="#093B65"/>
<path d="M100.923 131.968H98.2868V138.715H100.923V131.968Z" fill="#093B65"/>
<path d="M45.9453 254.79L45.623 254.556L90.1402 192.74V138.716H90.538V192.869L90.4998 192.922L45.9453 254.79Z" fill="white"/>
<path d="M90.3502 151.313L90.3279 150.915C90.4545 150.908 102.981 150.056 104.797 138.684L105.19 138.747C103.323 150.438 90.4791 151.305 90.3502 151.313Z" fill="white"/>
<path d="M119.335 30.4741C119.335 30.9173 118.975 31.277 118.532 31.277C118.089 31.277 117.729 30.9173 117.729 30.4741C117.729 30.0308 118.089 29.6712 118.532 29.6712C118.975 29.6712 119.335 30.0308 119.335 30.4741Z" fill="#223B36"/>
<path d="M282.174 48.1918L275.591 60.6569L268.254 54.4772L277.336 43.006L282.174 48.1918Z" fill="#AA3F29"/>
<path d="M270.543 33.1732C272.348 32.044 274.325 34.4607 275.477 36.2678C276.083 37.2195 277.078 37.4025 277.914 37.1184C277.667 39.2462 277.157 42.932 276.771 45.663L270.543 33.1732Z" fill="#AA3F29"/>
<g opacity="0.2">
<path d="M275.478 36.2678C276.084 37.2195 277.079 37.4025 277.915 37.1184C277.668 39.2462 277.158 42.932 276.772 45.6629" fill="#223B36"/>
</g>
<path d="M271.768 44.0245L276.811 16.5472C276.943 15.8318 277.629 15.3584 278.345 15.4897L278.434 15.4793C279.149 15.6106 279.623 16.2973 279.491 17.0127L274.448 44.49C274.317 45.2054 273.63 45.6789 272.915 45.5476L272.825 45.5579C272.11 45.4266 271.637 44.7399 271.768 44.0245Z" fill="#223B36"/>
<path d="M277.305 20.1723L272.629 45.5229L273.021 45.5952L277.697 20.2446L277.305 20.1723Z" fill="white"/>
<path d="M279.535 35.7108C279.522 35.4338 279.465 35.1458 279.31 34.8466C279.164 34.5649 278.969 34.2888 278.719 34.027C270.739 25.6511 274.617 24.3915 274.617 24.3915L281.304 31.8889C276.998 20.9102 281.158 21.6072 281.158 21.6072L281.925 23.9729C282.618 21.994 284.484 21.6407 284.484 21.6407L286.444 37.9133L282.174 48.1926L276.978 46.3576C271 39.2136 279.179 35.8524 279.535 35.7108Z" fill="#AA3F29"/>
<path d="M233.983 274.882L258.907 287.878C261.012 288.976 260.231 292.161 257.857 292.161H223.532C221.514 292.161 220.041 290.254 220.549 288.302L224.042 274.882H233.983Z" fill="#F7941D"/>
<path d="M241.318 278.689L235.941 287.437L236.28 287.645L241.657 278.897L241.318 278.689Z" fill="#223B36"/>
<path d="M244.034 280.051L239.504 287.421L239.843 287.629L244.373 280.259L244.034 280.051Z" fill="#223B36"/>
<path d="M246.722 281.453L243.055 287.421L243.394 287.629L247.061 281.662L246.722 281.453Z" fill="#223B36"/>
<path d="M207.436 274.882L232.359 287.878C234.465 288.976 233.684 292.161 231.31 292.161H196.986C194.968 292.161 193.494 290.254 194.003 288.302L197.495 274.882H207.436Z" fill="#F2C977"/>
<path d="M214.772 278.692L209.394 287.44L209.733 287.649L215.111 278.901L214.772 278.692Z" fill="#223B36"/>
<path d="M217.475 280.068L212.945 287.437L213.283 287.645L217.814 280.276L217.475 280.068Z" fill="#223B36"/>
<path d="M220.175 281.455L216.508 287.422L216.847 287.63L220.514 281.663L220.175 281.455Z" fill="#223B36"/>
<path d="M233.983 274.882L244.191 154.418L212.605 147.167L220.449 201.358C220.449 201.358 204.262 212.739 224.042 274.882H233.983Z" fill="#223B36"/>
<path d="M207.728 274.882L217.936 154.418L186.349 147.167L194.194 201.358C194.194 201.358 178.007 212.739 197.787 274.882H207.728Z" fill="#093B65"/>
<path d="M193.981 44.8688L199.088 61.747L182.414 64.0085L181.128 44.0174L193.981 44.8688Z" fill="#E06346"/>
<path d="M269.766 48.1918L244.427 77.8916C244.427 77.8916 230.472 48.1576 210.949 53.7157C203.723 55.7727 214.007 83.6097 214.007 83.6097C214.007 83.6097 224.971 113.693 248.704 109.163C266.451 105.776 280.55 74.4159 277.562 58.8538L269.766 48.1918Z" fill="#F7941D"/>
<path d="M253.35 160.004L190.557 175.144L169.772 99.2896C169.772 99.2896 187.895 76.2365 169.532 65.7711C170.181 65.5379 170.838 65.3262 171.501 65.1369L210.949 53.7157L223.004 70.3584C228.43 77.8486 232.492 86.2277 235.008 95.1255L253.35 160.004Z" fill="#F2C977"/>
<path d="M175.94 88.1788C173.584 94.4388 169.773 99.2896 169.773 99.2896L170.569 102.198C176.205 97.5803 176.538 91.9028 175.94 88.1788Z" fill="#F7941D"/>
<path d="M197.549 56.6568C197.549 56.6568 199.505 64.2464 194.825 66.6861C190.144 69.1251 182.381 67.314 182.086 58.9031L192.683 55.3494L197.549 56.6568Z" fill="#E06346"/>
<path d="M194.066 66.8106L193.687 66.9291L224.928 166.85L225.307 166.732L194.066 66.8106Z" fill="white"/>
<path d="M176.973 125.569L180.015 136.672C184.273 134.056 191.091 128.546 188.172 121.334L176.973 125.569Z" fill="#F7941D"/>
<path d="M211.595 106.703L213.329 104.922C213.329 104.922 212.005 100.918 204.304 109.847L207.816 100.435C207.816 100.435 204.892 97.5923 201.207 108.558C201.091 108.901 200.938 109.202 200.757 109.462C200.564 109.739 200.336 109.924 200.097 110.065C199.972 109.958 198.658 108.862 196.92 108.316C196.855 107.895 196.922 107.437 197.186 106.974C198.247 105.112 199.462 102.236 197.622 101.166L191.821 109.243C191.102 109.869 190.418 110.77 189.813 112.037L189.48 112.502C189.528 112.484 189.583 112.465 189.632 112.447C189.584 112.555 189.536 112.656 189.489 112.769L190.289 118.222L201.374 117.203L214.853 107.878C214.851 107.879 213.668 106.393 211.595 106.703Z" fill="#E06346"/>
<path d="M189.134 108.559L191.819 121.577C183.993 138.545 149.297 142.735 143.005 138.351C124.131 125.2 143.872 85.0962 155.937 73.9321C159.868 70.2932 164.492 67.5145 169.532 65.7711C187.896 76.2365 169.772 99.2896 169.772 99.2896L162.846 114.43L189.134 108.559Z" fill="#F2C977"/>
<path d="M154 116.472L162.847 114.43L165.092 109.521C155.677 112.028 154 116.472 154 116.472Z" fill="#F7941D"/>
<path d="M192.895 43.5282C199.986 40.4858 203.268 32.2713 200.226 25.1805C197.184 18.0897 188.969 14.8078 181.878 17.8501C174.787 20.8925 171.505 29.107 174.548 36.1978C177.59 43.2886 185.805 46.5705 192.895 43.5282Z" fill="#223B36"/>
<path d="M195.953 51.3858L193.981 44.868L181.128 44.0166L181.305 46.7587C184.333 51.6747 190.556 53.7022 195.953 51.3858Z" fill="#AA3F29"/>
<path d="M185.427 26.0801C191.324 23.3348 198.328 25.8891 201.074 31.7854C201.253 32.1714 201.407 32.5621 201.542 32.9552C202.222 32.9695 202.9 32.8453 203.501 32.4889C203.615 32.4236 203.493 35.3861 203.455 35.6789C202.818 40.5536 199.917 45.3136 195.368 47.4319C189.472 50.1771 182.466 47.6228 179.722 41.7265C176.977 35.8301 179.532 28.8253 185.427 26.0801Z" fill="#E06346"/>
<path d="M189.696 37.9961C193.297 37.393 196.257 34.5323 196.809 30.7255C197.494 26.0092 194.225 21.6319 189.509 20.9476C188.3 20.7717 187.114 20.8601 186.006 21.1624C184.548 20.2068 182.872 19.536 181.033 19.2694C168.056 17.3867 162.256 33.8687 166.833 43.6315C168.125 46.3855 168.608 49.4705 168.208 52.4856C167.713 56.2239 165.848 59.8946 160.129 58.4217C160.129 58.4217 172.76 75.6341 185.387 63.278C193.777 55.0669 191.728 44.5561 189.408 38.4234C189.506 38.2818 189.605 38.1417 189.696 37.9961Z" fill="#223B36"/>
<path d="M185.161 39.1937C184.136 36.9911 185.09 34.3739 187.293 33.3482C189.496 32.3225 192.113 33.2766 193.139 35.4792C194.164 37.6818 193.21 40.2989 191.007 41.3246C188.804 42.3511 186.187 41.3971 185.161 39.1937Z" fill="#E06346"/>
<path d="M192.63 38.838L187.297 35.079C187.297 35.079 187.265 40.591 192.63 38.838Z" fill="#AA3F29"/>
<path d="M143.53 124.963L143.539 124.73C144.797 91.9585 169.159 71.408 169.405 71.2043L169.658 71.5107C169.414 71.7128 145.303 92.0588 143.946 124.513L172.104 121.137L172.151 121.532L143.53 124.963Z" fill="white"/>
<path d="M265.961 62.4489C266.713 63.2629 266.662 64.5313 265.848 65.2825C265.034 66.0336 263.765 65.9827 263.014 65.1687C262.263 64.3547 262.314 63.0863 263.128 62.3351C263.941 61.5839 265.21 61.6348 265.961 62.4489Z" fill="white"/>
<path d="M270.827 56.9679C271.578 57.7819 271.527 59.0503 270.713 59.8015C269.899 60.5527 268.63 60.5017 267.879 59.6877C267.128 58.8737 267.179 57.6053 267.993 56.8541C268.807 56.1029 270.075 56.1539 270.827 56.9679Z" fill="white"/>
<path d="M242.045 88.3133L241.751 88.0443L262.867 65.0342L263.16 65.3032L242.045 88.3133Z" fill="white"/>
<path d="M199.088 33.5129C199.532 33.5129 199.891 33.1535 199.891 32.7101C199.891 32.2666 199.532 31.9072 199.088 31.9072C198.645 31.9072 198.285 32.2666 198.285 32.7101C198.285 33.1535 198.645 33.5129 199.088 33.5129Z" fill="#223B36"/>
<path d="M200.179 41.0278C199.551 41.0278 198.978 40.8981 198.465 40.6387C197.147 39.9703 196.727 38.69 196.711 38.6359L197.09 38.5149C197.094 38.5268 197.481 39.6958 198.651 40.2862C199.549 40.7398 200.673 40.7445 201.988 40.3013L202.115 40.6785C201.422 40.9116 200.775 41.0278 200.179 41.0278Z" fill="#223B36"/>
<path d="M225.124 100.104H182.551V102.869H225.124V100.104Z" fill="#BA91EF"/>
<path d="M215.254 87.2995H190.962V100.104H215.254V87.2995Z" fill="#F7941D"/>
<path d="M215.254 90.0957H193.886V100.104H215.254V90.0957Z" fill="#EF4136"/>
<path d="M215.254 93.503H196.833V93.9009H215.254V93.503Z" fill="white"/>
<path d="M215.254 96.4202H196.833V96.818H215.254V96.4202Z" fill="white"/>
<path d="M207.272 84.2232C207.272 82.5244 205.894 81.1461 204.195 81.1461C202.496 81.1461 201.117 82.5236 201.117 84.2232C201.117 85.9221 202.495 87.3003 204.195 87.3003C205.893 87.2995 207.272 85.9221 207.272 84.2232Z" fill="#EF4136"/>
<path d="M207.116 78.4468L204.038 82.7595L204.361 82.9902L207.44 78.6775L207.116 78.4468Z" fill="#093B65"/>
<path d="M176.244 120.957C176.244 122.064 175.347 122.962 174.239 122.962C173.132 122.962 172.234 122.064 172.234 120.957C172.234 119.849 173.132 118.951 174.239 118.951C175.346 118.951 176.244 119.849 176.244 120.957Z" fill="white"/>
<path d="M183.537 120.228C183.537 121.335 182.64 122.233 181.532 122.233C180.424 122.233 179.527 121.335 179.527 120.228C179.527 119.12 180.424 118.222 181.532 118.222C182.639 118.222 183.537 119.12 183.537 120.228Z" fill="white"/>
<path d="M83.2221 37.9675L88.0156 36.9211L83.1369 36.4023L82.0905 31.6088L81.5709 36.4874L76.7775 37.533L81.6561 38.0526L82.7025 42.8461L83.2221 37.9675Z" fill="white"/>
<path d="M264.506 26.649L269.3 25.6034L264.421 25.0838L263.375 20.2903L262.855 25.1689L258.061 26.2153L262.94 26.7341L263.986 31.5276L264.506 26.649Z" fill="#F7941D"/>
<path d="M151.127 6.35868L155.921 5.31229L151.042 4.79347L149.996 0L149.477 4.87862L144.683 5.92421L149.562 6.44382L150.608 11.2373L151.127 6.35868Z" fill="#F7941D"/>
<path d="M218.761 81.887L223.555 80.8406L218.676 80.321L217.63 75.5275L217.111 80.4061L212.317 81.4525L217.196 81.9721L218.242 86.7656L218.761 81.887Z" fill="white"/>
</svg>
