<svg width="24" height="25" viewBox="0 0 24 25" fill="none" xmlns="http://www.w3.org/2000/svg">
<path d="M7.475 21.5C5.95833 21.5 4.66667 20.9667 3.6 19.9C2.53333 18.8333 2 17.5417 2 16.025C2 14.5917 2.47933 13.354 3.438 12.312C4.39667 11.27 5.59233 10.691 7.025 10.575L3.725 3.95C3.55833 3.61667 3.571 3.29167 3.763 2.975C3.955 2.65833 4.24233 2.5 4.625 2.5H8.775C9.15833 2.5 9.50433 2.6 9.813 2.8C10.1217 3 10.3673 3.26667 10.55 3.6L12 6.5L13.45 3.6C13.6333 3.26667 13.8793 3 14.188 2.8C14.4967 2.6 14.8423 2.5 15.225 2.5H19.375C19.7583 2.5 20.046 2.65833 20.238 2.975C20.43 3.29167 20.4423 3.61667 20.275 3.95L17 10.525C18.4167 10.6583 19.6043 11.246 20.563 12.288C21.5217 13.33 22.0007 14.5673 22 16C22 17.5333 21.4667 18.8333 20.4 19.9C19.3333 20.9667 18.0333 21.5 16.5 21.5C16.35 21.5 16.196 21.496 16.038 21.488C15.88 21.48 15.7257 21.459 15.575 21.425C16.4917 20.825 17.2083 20.046 17.725 19.088C18.2417 18.13 18.5 17.1007 18.5 16C18.5 14.1833 17.8707 12.646 16.612 11.388C15.3533 10.13 13.816 9.50067 12 9.5C10.184 9.49933 8.64667 10.1287 7.388 11.388C6.12933 12.6473 5.5 14.1847 5.5 16C5.5 17.1333 5.73333 18.2 6.2 19.2C6.66667 20.2 7.4 20.9417 8.4 21.425C8.25 21.4583 8.096 21.4793 7.938 21.488C7.78 21.4967 7.62567 21.5007 7.475 21.5ZM12 20.5C10.75 20.5 9.68767 20.0627 8.813 19.188C7.93833 18.3133 7.50067 17.2507 7.5 16C7.49933 14.7493 7.937 13.687 8.813 12.813C9.689 11.939 10.7513 11.5013 12 11.5C13.2487 11.4987 14.3113 11.9363 15.188 12.813C16.0647 13.6897 16.502 14.752 16.5 16C16.498 17.248 16.0607 18.3107 15.188 19.188C14.3153 20.0653 13.2527 20.5027 12 20.5ZM12 17.35L13.225 18.275C13.325 18.3583 13.425 18.3627 13.525 18.288C13.625 18.2133 13.6583 18.1173 13.625 18L13.15 16.475L14.375 15.6C14.475 15.5167 14.5083 15.4207 14.475 15.312C14.4417 15.2033 14.3583 15.1493 14.225 15.15H12.725L12.25 13.525C12.2167 13.4083 12.1333 13.35 12 13.35C11.8667 13.35 11.7833 13.4083 11.75 13.525L11.275 15.15H9.775C9.64167 15.15 9.55833 15.2043 9.525 15.313C9.49167 15.4217 9.525 15.5173 9.625 15.6L10.85 16.475L10.375 18C10.3417 18.1167 10.375 18.2127 10.475 18.288C10.575 18.3633 10.675 18.359 10.775 18.275L12 17.35Z" fill="white"/>
</svg>
