<svg width="68" height="90" viewBox="0 0 68 90" fill="none" xmlns="http://www.w3.org/2000/svg">
<path d="M48.5042 24.8805C52.4698 22.7849 55.7894 19.6482 58.1062 15.8075C60.4229 11.9669 61.6493 7.56745 61.6533 3.08213C61.6533 2.2647 61.3286 1.48075 60.7506 0.902736C60.1726 0.324724 59.3886 0 58.5712 0H55.4891C51.0829 0.00166959 46.7576 1.18401 42.9633 3.42401C39.169 5.66401 36.0442 8.87984 33.9141 12.7369C31.784 8.87984 28.6593 5.66401 24.8649 3.42401C21.0706 1.18401 16.7454 0.00166959 12.3392 0H9.25706C8.43963 0 7.65567 0.324724 7.07766 0.902736C6.49965 1.48075 6.17493 2.2647 6.17493 3.08213C6.17493 3.89957 6.49965 4.68352 7.07766 5.26153C7.65567 5.83954 8.43963 6.16427 9.25706 6.16427H12.3392C16.7361 6.17029 20.9874 7.74014 24.333 10.5931C27.6786 13.446 29.9003 17.396 30.6008 21.7367C22.4426 22.5353 14.8499 26.2625 9.22832 32.2286C3.60678 38.1946 0.337132 45.9953 0.0246591 54.1866C-0.287814 62.3779 2.37805 70.405 7.52874 76.782C12.6794 83.1589 19.9661 87.4538 28.0398 88.8715C36.1136 90.2892 44.4276 88.7338 51.4427 84.4931C58.4578 80.2525 63.6989 73.6138 66.1958 65.8061C68.6927 57.9983 68.2763 49.5504 65.0236 42.0261C61.771 34.5018 55.9023 28.4107 48.5042 24.8805ZM55.2309 6.16427C54.504 10.4271 52.3088 14.3014 49.0256 17.1159C45.7425 19.9305 41.5783 21.5079 37.2544 21.5749C37.9813 17.3121 40.1765 13.4378 43.4597 10.6233C46.7428 7.80874 50.907 6.23132 55.2309 6.16427ZM55.4467 59.0691C54.6538 63.5374 52.5079 67.6543 49.299 70.8632C46.0901 74.0721 41.9731 76.2181 37.5048 77.011C37.3367 77.0383 37.1666 77.0525 36.9963 77.0533C36.2235 77.0522 35.4793 76.7607 34.9112 76.2368C34.3432 75.7129 33.9927 74.9946 33.9292 74.2244C33.8657 73.4543 34.0938 72.6883 34.5684 72.0784C35.043 71.4685 35.7294 71.0592 36.4916 70.9314C39.6988 70.3616 42.6537 68.8209 44.9571 66.5175C47.2604 64.2141 48.8012 61.2592 49.371 58.052C49.5125 57.2519 49.9642 56.5401 50.6278 56.0713C51.2914 55.6025 52.1133 55.4148 52.9146 55.5488C53.716 55.6829 54.432 56.128 54.9069 56.7872C55.3818 57.4464 55.5772 58.2665 55.4505 59.0691H55.4467Z" fill="white"/>
</svg>
