<svg width="74" height="98" viewBox="0 0 74 98" fill="none" xmlns="http://www.w3.org/2000/svg">
<path d="M52.9342 27.1529C57.2621 24.8659 60.8849 21.4427 63.4132 17.2513C65.9416 13.0598 67.2799 8.25861 67.2843 3.36363C67.2843 2.47154 66.9299 1.61599 66.2991 0.985186C65.6683 0.354382 64.8128 0 63.9207 0H60.5571C55.7484 0.00182208 51.0282 1.29215 46.8873 3.73674C42.7464 6.18133 39.3363 9.69086 37.0116 13.9002C34.687 9.69086 31.2768 6.18133 27.1359 3.73674C22.9951 1.29215 18.2748 0.00182208 13.4662 0H10.1025C9.21045 0 8.35489 0.354382 7.72409 0.985186C7.09328 1.61599 6.7389 2.47154 6.7389 3.36363C6.7389 4.25573 7.09328 5.11128 7.72409 5.74208C8.35489 6.37289 9.21045 6.72727 10.1025 6.72727H13.4662C18.2646 6.73385 22.9043 8.44707 26.5554 11.5606C30.2066 14.6741 32.6312 18.9849 33.3957 23.722C24.4923 24.5935 16.2061 28.6612 10.0712 35.1721C3.9362 41.683 0.367924 50.1962 0.0269113 59.1356C-0.314101 68.0751 2.59525 76.8354 8.21637 83.7947C13.8375 90.7541 21.7897 95.4412 30.6008 96.9885C39.4119 98.5357 48.4853 96.8382 56.1411 92.2102C63.7969 87.5822 69.5168 80.3372 72.2417 71.8164C74.9667 63.2955 74.5122 54.076 70.9625 45.8644C67.4127 37.6529 61.0081 31.0056 52.9342 27.1529ZM60.2754 6.72727C59.482 11.3795 57.0863 15.6076 53.5033 18.6792C49.9203 21.7508 45.3758 23.4723 40.657 23.5454C41.4503 18.8932 43.846 14.6651 47.429 11.5935C51.012 8.52194 55.5566 6.80044 60.2754 6.72727ZM60.5108 64.4641C59.6456 69.3404 57.3036 73.8334 53.8016 77.3354C50.2996 80.8374 45.8066 83.1794 40.9303 84.0446C40.7467 84.0744 40.5612 84.0899 40.3752 84.0909C39.5319 84.0896 38.7197 83.7716 38.0998 83.1998C37.4799 82.628 37.0973 81.8441 37.028 81.0036C36.9588 80.1631 37.2077 79.3272 37.7257 78.6616C38.2436 77.996 38.9927 77.5492 39.8245 77.4099C43.3246 76.7879 46.5494 75.1065 49.0632 72.5928C51.5769 70.079 53.2583 66.8542 53.8802 63.3541C54.0347 62.4809 54.5276 61.7041 55.2518 61.1925C55.976 60.6809 56.873 60.476 57.7475 60.6223C58.622 60.7686 59.4034 61.2543 59.9217 61.9738C60.44 62.6932 60.6532 63.5882 60.515 64.4641H60.5108Z" fill="#344E64"/>
</svg>
