<svg width="24" height="25" viewBox="0 0 24 25" fill="none" xmlns="http://www.w3.org/2000/svg">
<path fill-rule="evenodd" clip-rule="evenodd" d="M16.1251 12.5001C16.1251 12.3012 16.0461 12.1104 15.9054 11.9698C15.7647 11.8291 15.574 11.7501 15.3751 11.7501H4.40207L6.36307 10.0701C6.43792 10.006 6.49942 9.92783 6.54405 9.83998C6.58868 9.75213 6.61557 9.65635 6.62319 9.5581C6.6308 9.45986 6.61899 9.36108 6.58843 9.2674C6.55787 9.17372 6.50915 9.08697 6.44507 9.01212C6.38098 8.93727 6.30278 8.87577 6.21493 8.83114C6.12708 8.78651 6.0313 8.75961 5.93305 8.752C5.83481 8.74439 5.73603 8.7562 5.64235 8.78676C5.54867 8.81732 5.46192 8.86603 5.38707 8.93012L1.88707 11.9301C1.80473 12.0005 1.73863 12.0879 1.69331 12.1863C1.64798 12.2847 1.62451 12.3918 1.62451 12.5001C1.62451 12.6085 1.64798 12.7155 1.69331 12.8139C1.73863 12.9123 1.80473 12.9997 1.88707 13.0701L5.38707 16.0701C5.53824 16.1995 5.73464 16.2636 5.93305 16.2482C6.13147 16.2329 6.31564 16.1393 6.44507 15.9881C6.5745 15.8369 6.63857 15.6406 6.62319 15.4421C6.60781 15.2437 6.51424 15.0595 6.36307 14.9301L4.40307 13.2501H15.3751C15.574 13.2501 15.7647 13.1711 15.9054 13.0304C16.0461 12.8898 16.1251 12.699 16.1251 12.5001Z" fill="#F34348"/>
<path d="M9.375 8.5C9.375 9.202 9.375 9.553 9.544 9.806C9.61679 9.91478 9.71022 10.0082 9.819 10.081C10.072 10.25 10.423 10.25 11.125 10.25H15.375C15.9717 10.25 16.544 10.4871 16.966 10.909C17.3879 11.331 17.625 11.9033 17.625 12.5C17.625 13.0967 17.3879 13.669 16.966 14.091C16.544 14.5129 15.9717 14.75 15.375 14.75H11.125C10.423 14.75 10.072 14.75 9.819 14.918C9.71012 14.9911 9.61668 15.0849 9.544 15.194C9.375 15.447 9.375 15.798 9.375 16.5C9.375 19.328 9.375 20.743 10.254 21.621C11.132 22.5 12.546 22.5 15.374 22.5H16.374C19.204 22.5 20.617 22.5 21.496 21.621C22.375 20.743 22.375 19.328 22.375 16.5V8.5C22.375 5.672 22.375 4.257 21.496 3.379C20.617 2.5 19.203 2.5 16.375 2.5H15.375C12.546 2.5 11.132 2.5 10.254 3.379C9.375 4.257 9.375 5.672 9.375 8.5Z" fill="#F34348"/>
</svg>
