<svg width="234" height="52" viewBox="0 0 234 52" fill="none" xmlns="http://www.w3.org/2000/svg">
<path d="M58.9706 9.90909H66.7547V29.8523C66.7452 31.7462 66.267 33.4129 65.32 34.8523C64.3825 36.2822 63.0852 37.3996 61.428 38.2045C59.7802 39 57.8816 39.3977 55.7319 39.3977C53.8664 39.3977 52.1619 39.0758 50.6183 38.4318C49.0747 37.7784 47.8437 36.7557 46.9251 35.3636C46.0066 33.9621 45.552 32.1439 45.5615 29.9091H53.4592C53.4876 30.6383 53.6107 31.2538 53.8285 31.7557C54.0558 32.2576 54.3683 32.6364 54.766 32.892C55.1732 33.1383 55.6656 33.2614 56.2433 33.2614C56.8304 33.2614 57.3228 33.1335 57.7206 32.8778C58.1278 32.6222 58.4355 32.2434 58.6439 31.7415C58.8522 31.2301 58.9611 30.6004 58.9706 29.8523V9.90909ZM78.0544 39H69.5316L79.1339 9.90909H89.9294L99.5317 39H91.0089L84.6453 17.9205H84.418L78.0544 39ZM76.4635 27.5227H92.4862V33.4318H76.4635V27.5227ZM116.883 19C116.807 18.053 116.452 17.3144 115.817 16.7841C115.192 16.2538 114.24 15.9886 112.962 15.9886C112.148 15.9886 111.48 16.0881 110.959 16.2869C110.448 16.4763 110.069 16.7367 109.823 17.0682C109.577 17.3996 109.449 17.7784 109.439 18.2045C109.42 18.5549 109.482 18.8722 109.624 19.1562C109.775 19.4309 110.012 19.6818 110.334 19.9091C110.656 20.1269 111.068 20.3258 111.57 20.5057C112.072 20.6856 112.668 20.8466 113.36 20.9886L115.746 21.5C117.356 21.8409 118.734 22.2907 119.88 22.8494C121.025 23.4081 121.963 24.0663 122.692 24.8239C123.421 25.572 123.956 26.4148 124.297 27.3523C124.648 28.2898 124.828 29.3125 124.837 30.4205C124.828 32.3333 124.349 33.9527 123.402 35.2784C122.455 36.6042 121.101 37.6127 119.34 38.304C117.588 38.9953 115.481 39.3409 113.019 39.3409C110.49 39.3409 108.284 38.9669 106.4 38.2188C104.525 37.4706 103.066 36.3201 102.025 34.767C100.992 33.2045 100.472 31.2064 100.462 28.7727H107.962C108.009 29.6629 108.232 30.411 108.63 31.017C109.027 31.6231 109.586 32.0824 110.306 32.3949C111.035 32.7074 111.901 32.8636 112.905 32.8636C113.748 32.8636 114.454 32.7595 115.022 32.5511C115.59 32.3428 116.021 32.054 116.314 31.6847C116.608 31.3153 116.759 30.8939 116.769 30.4205C116.759 29.9754 116.613 29.5871 116.329 29.2557C116.054 28.9148 115.599 28.6117 114.965 28.3466C114.33 28.072 113.473 27.8163 112.394 27.5795L109.496 26.9545C106.92 26.3958 104.889 25.4631 103.402 24.1562C101.925 22.84 101.191 21.0455 101.201 18.7727C101.191 16.9261 101.684 15.3116 102.678 13.929C103.682 12.5369 105.069 11.4527 106.84 10.6761C108.62 9.89962 110.661 9.51136 112.962 9.51136C115.311 9.51136 117.342 9.90436 119.056 10.6903C120.77 11.4763 122.091 12.5843 123.019 14.0142C123.956 15.4347 124.43 17.0966 124.439 19H116.883ZM127.841 39V9.90909H148.807V16.2727H135.739V21.2727H147.728V27.6364H135.739V32.6364H148.75V39H127.841ZM152.724 39V9.90909H165.281C167.44 9.90909 169.329 10.3021 170.949 11.0881C172.568 11.8741 173.827 13.0057 174.727 14.483C175.627 15.9602 176.076 17.7311 176.076 19.7955C176.076 21.8788 175.612 23.6354 174.684 25.0653C173.766 26.4953 172.473 27.5748 170.807 28.304C169.149 29.0331 167.213 29.3977 164.997 29.3977H157.497V23.2614H163.406C164.334 23.2614 165.125 23.1477 165.778 22.9205C166.441 22.6837 166.948 22.3097 167.298 21.7983C167.658 21.2869 167.838 20.6193 167.838 19.7955C167.838 18.9621 167.658 18.285 167.298 17.7642C166.948 17.2339 166.441 16.8456 165.778 16.5994C165.125 16.3437 164.334 16.2159 163.406 16.2159H160.622V39H152.724ZM169.77 25.6477L177.042 39H168.463L161.36 25.6477H169.77ZM179.443 39V9.90909H200.409V16.2727H187.341V21.2727H199.329V27.6364H187.341V32.6364H200.352V39H179.443Z" fill="white"/>
<ellipse opacity="0.1" cx="21" cy="25.2" rx="20" ry="20" stroke="white" stroke-width="2"/>
<path d="M4.85352 37.0021C6.87366 39.7659 9.56941 41.9648 12.6827 43.3885C15.796 44.8122 19.2226 45.4129 22.6345 45.1331C26.0464 44.8533 29.3294 43.7025 32.1692 41.7906C35.009 39.8788 37.3105 37.2701 38.8534 34.2141C40.3964 31.1582 41.1291 27.7574 40.9814 24.3372C40.8337 20.917 39.8106 17.592 38.01 14.6804C36.2093 11.7689 33.6915 9.36823 30.6975 7.70833C27.7035 6.04843 24.3335 5.18483 20.9102 5.20021" stroke="#EE930E" stroke-width="2"/>
<path d="M90.0068 1L84.9999 5.89189" stroke="white" stroke-width="2" stroke-linecap="round"/>
<path d="M194.007 1L189 5.89189" stroke="white" stroke-width="2" stroke-linecap="round"/>
</svg>
