<svg width="17" height="16" viewBox="0 0 17 16" fill="none" xmlns="http://www.w3.org/2000/svg">
<g opacity="0.5" clip-path="url(#clip0_1699_2441)">
<path d="M7.40234 0H9.40234V8H7.40234V0ZM11.4023 0.59375L11.4492 0.609375C12.1784 0.911458 12.8451 1.3099 13.4492 1.80469C14.0534 2.29948 14.5742 2.86719 15.0117 3.50781C15.4492 4.14844 15.7904 4.84896 16.0352 5.60938C16.2799 6.36979 16.4023 7.16667 16.4023 8C16.4023 9.10417 16.194 10.1432 15.7773 11.1172C15.3607 12.0911 14.7904 12.9401 14.0664 13.6641C13.3424 14.388 12.4935 14.9583 11.5195 15.375C10.5456 15.7917 9.50651 16 8.40234 16C7.29818 16 6.25911 15.7917 5.28516 15.375C4.3112 14.9583 3.46224 14.388 2.73828 13.6641C2.01432 12.9401 1.44401 12.0911 1.02734 11.1172C0.610677 10.1432 0.402344 9.10417 0.402344 8C0.402344 7.16667 0.52474 6.36979 0.769531 5.60938C1.01432 4.84896 1.35547 4.14844 1.79297 3.50781C2.23047 2.86719 2.75651 2.29688 3.37109 1.79688C3.98568 1.29688 4.66276 0.895833 5.40234 0.59375L5.37109 2.82812C4.93359 3.08854 4.52995 3.40104 4.16016 3.76562C3.79036 4.13021 3.47526 4.53385 3.21484 4.97656C2.95443 5.41927 2.75391 5.89583 2.61328 6.40625C2.47266 6.91667 2.40234 7.44792 2.40234 8C2.40234 8.83333 2.55859 9.61458 2.87109 10.3438C3.18359 11.0729 3.61328 11.7083 4.16016 12.25C4.70703 12.7917 5.34245 13.2188 6.06641 13.5312C6.79036 13.8438 7.56901 14 8.40234 14C9.23568 14 10.0143 13.8438 10.7383 13.5312C11.4622 13.2188 12.0977 12.7917 12.6445 12.25C13.1914 11.7083 13.6211 11.0729 13.9336 10.3438C14.2461 9.61458 14.4023 8.83333 14.4023 8C14.4023 7.44792 14.332 6.91667 14.1914 6.40625C14.0508 5.89583 13.8477 5.41927 13.582 4.97656C13.3164 4.53385 12.9987 4.1276 12.6289 3.75781C12.2591 3.38802 11.8503 3.07292 11.4023 2.8125V0.59375Z" fill="white"/>
</g>
<defs>
<clipPath id="clip0_1699_2441">
<rect width="16" height="16" fill="white" transform="translate(0.402344)"/>
</clipPath>
</defs>
</svg>
