<svg width="24" height="25" viewBox="0 0 24 25" fill="none" xmlns="http://www.w3.org/2000/svg">
<g clip-path="url(#clip0_89_515)">
<path d="M17.0001 4.5C18.1061 4.5 18.9551 5.343 19.5841 6.25L19.7971 6.571L19.9921 6.891C20.0541 6.99567 20.1135 7.09833 20.1701 7.199C20.9571 8.606 21.6421 10.443 22.0951 12.258C22.5451 14.059 22.7941 15.94 22.6351 17.419C22.4751 18.904 21.7101 20.5 20.0001 20.5C18.4661 20.5 17.2571 19.68 16.2751 18.879L15.1651 17.948C14.2421 17.192 13.2321 16.5 12.0001 16.5C10.7681 16.5 9.75712 17.192 8.83612 17.948L7.72612 18.878C6.74212 19.68 5.53312 20.5 4.00012 20.5C2.28912 20.5 1.52412 18.904 1.36512 17.419C1.20712 15.939 1.45512 14.059 1.90512 12.258C2.35812 10.443 3.04312 8.606 3.83012 7.199L4.00812 6.89L4.20312 6.571L4.41612 6.25C5.04512 5.343 5.89412 4.5 7.00012 4.5C7.51012 4.5 8.01712 4.624 8.51512 4.77L9.10812 4.952C9.20612 4.982 9.30346 5.01067 9.40012 5.038C10.2651 5.286 11.1501 5.5 12.0001 5.5C12.8501 5.5 13.7351 5.286 14.6001 5.038L15.4851 4.771C15.9831 4.624 16.4901 4.5 17.0001 4.5ZM8.50012 8.5C7.83708 8.5 7.2012 8.76339 6.73236 9.23223C6.26352 9.70107 6.00012 10.337 6.00012 11C6.00012 11.663 6.26352 12.2989 6.73236 12.7678C7.2012 13.2366 7.83708 13.5 8.50012 13.5C9.16317 13.5 9.79905 13.2366 10.2679 12.7678C10.7367 12.2989 11.0001 11.663 11.0001 11C11.0001 10.337 10.7367 9.70107 10.2679 9.23223C9.79905 8.76339 9.16317 8.5 8.50012 8.5ZM15.5001 8.5C15.2349 8.5 14.9806 8.60536 14.793 8.79289C14.6055 8.98043 14.5001 9.23478 14.5001 9.5V10H14.0001C13.7349 10 13.4806 10.1054 13.293 10.2929C13.1055 10.4804 13.0001 10.7348 13.0001 11C13.0001 11.2652 13.1055 11.5196 13.293 11.7071C13.4806 11.8946 13.7349 12 14.0001 12H14.5001V12.5C14.5001 12.7652 14.6055 13.0196 14.793 13.2071C14.9806 13.3946 15.2349 13.5 15.5001 13.5C15.7653 13.5 16.0197 13.3946 16.2072 13.2071C16.3948 13.0196 16.5001 12.7652 16.5001 12.5V12H17.0001C17.2653 12 17.5197 11.8946 17.7072 11.7071C17.8948 11.5196 18.0001 11.2652 18.0001 11C18.0001 10.7348 17.8948 10.4804 17.7072 10.2929C17.5197 10.1054 17.2653 10 17.0001 10H16.5001V9.5C16.5001 9.23478 16.3948 8.98043 16.2072 8.79289C16.0197 8.60536 15.7653 8.5 15.5001 8.5ZM8.50012 10.5C8.63273 10.5 8.75991 10.5527 8.85368 10.6464C8.94745 10.7402 9.00012 10.8674 9.00012 11C9.00012 11.1326 8.94745 11.2598 8.85368 11.3536C8.75991 11.4473 8.63273 11.5 8.50012 11.5C8.36752 11.5 8.24034 11.4473 8.14657 11.3536C8.0528 11.2598 8.00012 11.1326 8.00012 11C8.00012 10.8674 8.0528 10.7402 8.14657 10.6464C8.24034 10.5527 8.36752 10.5 8.50012 10.5Z" fill="white"/>
</g>
<defs>
<clipPath id="clip0_89_515">
<rect width="24" height="24" fill="white" transform="translate(0 0.5)"/>
</clipPath>
</defs>
</svg>
