<svg width="34" height="35" viewBox="0 0 34 35" fill="none" xmlns="http://www.w3.org/2000/svg">
<rect width="33.6682" height="34.9994" rx="16.8341" fill="white"/>
<path d="M16.8374 11.3977L16.7641 11.3532C15.9329 10.8476 15.2017 10.402 14.5749 10.1775C14.2294 10.0447 13.86 9.98533 13.4903 10.0031C13.1011 10.0328 12.7291 10.1757 12.4202 10.4142C11.7768 10.8965 11.499 11.6066 11.3467 12.3923C11.1989 13.1535 11.1422 14.1447 11.0722 15.3515L11.0689 15.4138C11.0267 16.1361 11 16.8506 11 17.4985C11 18.1463 11.0267 18.862 11.0689 19.5843L11.0722 19.6454C11.1422 20.8522 11.1989 21.8435 11.3467 22.6036C11.499 23.3903 11.7768 24.0993 12.4202 24.5827C12.738 24.8216 13.0947 24.9639 13.4903 24.9939C13.8704 25.0217 14.2349 24.9417 14.5749 24.8194C15.2017 24.5949 15.9329 24.1493 16.7641 23.6448L16.8374 23.6004C17.3108 23.3114 17.7753 23.0147 18.1898 22.7225C18.6974 22.3614 19.1922 21.9826 19.6733 21.5868L19.7289 21.5412C20.5779 20.8489 21.298 20.2611 21.7958 19.6832C22.3381 19.0498 22.6682 18.3697 22.6682 17.4985C22.6682 16.6273 22.3381 15.9461 21.7947 15.3137C21.298 14.7359 20.5779 14.1469 19.73 13.4557L19.6745 13.4102C19.1699 12.999 18.6632 12.6056 18.1898 12.2745C17.7484 11.9677 17.2973 11.6749 16.8374 11.3966" fill="#093B65"/>
</svg>
