<?xml version="1.0" encoding="UTF-8"?><svg id="Layer_2" xmlns="http://www.w3.org/2000/svg" viewBox="0 0 781.29 266"><defs><style>.cls-1{fill:#ffac27;}.cls-2{fill:none;stroke:#ffac27;stroke-miterlimit:10;}</style></defs><g id="Layer_1-2"><path class="cls-1" d="M3.28,155.49l3.08.41c4.72,1.03,20.73,3.83,25.25,3.83,12.32,0,14.99-5.95,14.99-17.45V52.57h19.71s0,89.71,0,89.71c0,20.12-9.65,35.31-34.9,35.31-5.54,0-22.79-3.01-28.33-3.83l-3.08-.62,3.28-17.66Z"/><path class="cls-1" d="M159.97,53.8l52.35,123.79h-20.94s-16.42-39.01-16.42-39.01h-48.45l-16.63,39.01h-20.94s52.35-123.79,52.35-123.79h18.68ZM133.89,120.73h33.26l-16.63-39.42-16.63,39.42Z"/><path class="cls-1" d="M251.09,104.51l2.67,5.75c5.13,11.5,15.6,14.78,29.77,14.78s25.25-4.72,25.25-17.86c0-4.72-3.08-8.01-9.03-10.88-3.08-1.44-6.78-2.67-10.47-3.9-4.11-1.23-8.21-2.26-12.52-3.49-16.42-4.52-36.34-10.88-36.34-29.56,0-22.17,20.32-31.82,41.26-31.82h3.08c17.25,0,33.87,7.18,39.62,23.4l2.05,5.95-18.68,4.72-1.03-2.46c-.41-1.03-.62-2.05-1.03-3.08-3.7-8.83-12.94-10.88-24.02-10.88-12.11,0-21.56,3.9-21.56,14.17,0,3.08,2.46,5.54,8.83,8.01,6.36,2.67,14.78,4.52,23.2,6.98,16.83,5.13,36.13,12.73,36.13,32.85,0,24.84-20.94,35.52-44.75,35.52h-3.29c-19.91,0-37.16-8.83-44.75-26.28l-2.67-5.54,18.27-6.36ZM282.29,152.75c7.6,0,13.35,5.75,13.35,12.52s-5.54,12.32-13.35,12.32-13.55-5.75-13.55-12.32,5.95-12.52,13.55-12.52Z"/><path class="cls-1" d="M736.49,218.45l-2.87,1.03c-21.15,8.42-43.11,13.35-66.52,13.35-50.5,0-90.74-23.81-117.22-61.59-11.5-16.43-20.94-35.72-26.69-54.61h-41.06v56.46h-19.71V27.52h62.21c26.48,0,47.43,19.91,47.43,43.73v1.85c0,17.65-11.7,33.67-29.35,40.44,0,0,0,0,0,0,5.34,17.04,13.34,33.46,24.02,48.24,23.4,33.26,56.46,53.38,100.39,53.38,20.12,0,40.65-4.11,58.72-12.11l2.88-1.23,7.8,16.63ZM524.63,98.97c15.4,0,27.92-11.91,27.92-25.87v-1.85c0-13.96-12.32-25.87-27.92-25.87h-42.5v53.58h42.5Z"/><path class="cls-1" d="M542.41,213.53c-1.53-1.42-2.32-2.84-2.38-4.26-.05-1.41.63-2.89,2.06-4.42l4.29-4.62c1.43-1.55,2.86-2.35,4.27-2.4,1.41-.05,2.87.63,4.39,2.06l2.43,2.26c1.26,1.17,1.98,2.32,2.15,3.45.18,1.14-.18,2.31-1.12,3.53-.22.32-.47.48-.75.49-.29.01-.57-.11-.85-.37-.51-.47-.54-1.03-.1-1.67.5-.68.67-1.29.52-1.84-.16-.55-.63-1.18-1.41-1.91l-2.43-2.26c-.7-.66-1.33-1.1-1.9-1.31-.56-.21-1.11-.19-1.67.07-.55.25-1.17.74-1.84,1.46l-4.29,4.62c-.66.71-1.1,1.36-1.31,1.92-.21.57-.19,1.13.06,1.67.25.55.73,1.16,1.45,1.82l2.41,2.24c.62.58,1.17.96,1.65,1.15s.95.18,1.41-.04c.46-.22.99-.64,1.58-1.28l.88-.94-1.55-1.48c-.56-.52-.58-1.06-.06-1.63.52-.56,1.07-.58,1.63-.06l2.39,2.26c.56.52.58,1.06.06,1.62l-1.66,1.79c-1.32,1.43-2.62,2.16-3.89,2.2s-2.61-.6-4.01-1.91l-2.41-2.24Z"/><path class="cls-1" d="M575.13,238.35c-.5-.6-.45-1.14.15-1.64l13.47-10.9c.53-.4,1.05-.45,1.57-.17l.05.03c.51.31.71.77.62,1.38l-1.96,17.27c-.09.77-.52,1.11-1.28,1.01-.77-.1-1.11-.53-1.02-1.28l.44-3.86-7.47-4.13-2.97,2.46c-.59.49-1.13.43-1.6-.17ZM581.61,234.47l5.86,3.23,1.03-8.92-6.88,5.69Z"/><path class="cls-1" d="M619.46,258.03c-.75-.19-1.02-.66-.83-1.41l4.05-15.77c.19-.75.66-1.02,1.4-.83.49.13.83.47,1.04,1.03l3.84,11.03-.5-.04,8.75-7.88c.42-.4.94-.53,1.54-.37.6.15.81.6.62,1.35l-4.04,15.77c-.19.74-.66,1.02-1.41.83-.74-.19-1.02-.66-.83-1.4l3.47-13.54.63.42-7.68,6.77c-.44.39-.95.52-1.53.37-.4-.1-.7-.43-.91-.99l-3.47-9.63.62.36-3.36,13.11c-.19.74-.66,1.02-1.4.83Z"/><path class="cls-1" d="M670.03,265.96c-.77,0-1.15-.39-1.15-1.16l.07-16.28c0-.77.38-1.15,1.15-1.15l9.84.04c.76,0,1.15.39,1.14,1.16s-.39,1.15-1.15,1.15l-8.69-.03-.02,5.76,5.45.02c.76,0,1.15.39,1.15,1.15,0,.77-.39,1.15-1.16,1.15l-5.45-.02-.02,5.92,8.68.03c.77,0,1.16.39,1.15,1.16,0,.77-.39,1.15-1.16,1.15l-9.84-.04Z"/><path class="cls-1" d="M718.12,261.16c-1.52.36-2.78.34-3.77-.08-1-.41-1.76-1.23-2.27-2.46-.13-.38-.12-.69.03-.94.14-.24.41-.4.78-.49.38-.09.67-.07.89.07.21.14.4.38.55.74.28.58.67.94,1.16,1.06.49.12,1.2.07,2.1-.14l3.83-.92c1.15-.27,1.88-.67,2.2-1.18.32-.51.33-1.33.07-2.46-.27-1.15-.68-1.88-1.2-2.2-.53-.32-1.35-.34-2.48-.08l-3.3.79c-1.68.4-3.02.29-4.03-.34-1.01-.63-1.71-1.78-2.11-3.46-.4-1.67-.29-3.01.32-4.01.61-1,1.76-1.7,3.44-2.1l3.17-.76c1.41-.33,2.59-.31,3.53.08.94.39,1.66,1.15,2.16,2.29.14.37.14.68,0,.92-.15.25-.42.42-.81.51-.35.08-.64.05-.87-.09-.23-.14-.4-.38-.54-.73-.27-.49-.62-.78-1.07-.88-.45-.09-1.07-.05-1.87.14l-3.17.76c-1.07.25-1.74.61-2.01,1.07-.27.47-.28,1.22-.04,2.26.25,1.05.61,1.73,1.07,2.03.47.3,1.24.32,2.3.07l3.31-.79c1.75-.42,3.16-.3,4.22.35,1.06.65,1.8,1.86,2.22,3.64.43,1.77.31,3.18-.35,4.22-.65,1.04-1.86,1.78-3.62,2.19l-3.84.92Z"/><path class="cls-1" d="M439.8,159.73v17.86h-88.28V53.8h85.4v17.86h-65.9v29.77h52.35s0,17.66,0,17.66h-52.35s0,40.65,0,40.65h68.77Z"/><rect class="cls-1" x="395.5" y="-2.46" width="9.2" height="36.79" rx="2.71" ry="2.71" transform="translate(696.34 285.32) rotate(-140)"/><path class="cls-1" d="M682.81,159.73v17.86h-88.28V53.8h85.4v17.86h-65.9v29.77h52.35s0,17.66,0,17.66h-52.35s0,40.65,0,40.65h68.77Z"/><rect class="cls-1" x="641.41" y="-2.31" width="9.2" height="36.79" rx="2.71" ry="2.71" transform="translate(1130.55 443.64) rotate(-140)"/><path class="cls-1" d="M771.92,206.5h-2.15c-.44,0-.77-.17-.97-.51l-4.65-6.4c-.14-.2-.29-.34-.46-.43s-.42-.13-.76-.13h-1.84v7.48h-2.41v-17.91h5.06c1.13,0,2.11.11,2.94.34.83.23,1.51.56,2.04.99.54.43.94.96,1.19,1.57.26.61.39,1.3.39,2.06,0,.63-.1,1.23-.3,1.78-.2.55-.49,1.04-.87,1.48-.38.44-.84.81-1.39,1.12-.55.31-1.16.54-1.86.7.31.17.57.43.8.76l5.23,7.11ZM763.64,197.26c.7,0,1.32-.08,1.86-.26.54-.17.99-.41,1.35-.73.36-.31.63-.69.82-1.12.18-.43.27-.91.27-1.44,0-1.07-.35-1.87-1.05-2.41s-1.75-.81-3.15-.81h-2.65v6.76h2.55Z"/><circle class="cls-2" cx="763.84" cy="197.82" r="16.95"/></g></svg>