<svg width="67" height="87" viewBox="0 0 67 87" fill="none" xmlns="http://www.w3.org/2000/svg">
<path d="M4.03882 16.5198C4.52882 16.2498 5.00878 15.9798 5.49878 15.7098V15.0598C5.33878 14.8398 5.17879 14.6298 5.00879 14.4098C4.35879 14.2998 3.70879 14.1898 3.06879 14.0898C2.79879 14.4098 2.52879 14.7398 2.25879 15.0598V15.2198C2.78879 16.0198 2.80882 16.3698 4.03882 16.5198Z" fill="#464646"/>
<path d="M40.6282 35.6302C40.8982 35.3102 41.1682 34.9802 41.4382 34.6602C41.9982 33.5502 41.2382 32.7902 40.1382 32.7202C39.9182 33.1002 39.7083 33.4802 39.4883 33.8502C39.5383 34.3402 39.5983 34.8202 39.6483 35.3102C39.9683 35.4202 40.2982 35.5302 40.6182 35.6302H40.6282Z" fill="#464646"/>
<path d="M18.7686 123.39C20.9586 122.64 28.7286 111.03 30.5886 108.49C39.7386 95.9902 47.9786 82.5602 56.3386 69.3102C58.3086 66.1902 65.9385 56.0402 66.0585 52.4702H65.5685C61.7385 58.5102 57.9085 64.5602 54.0685 70.6002C46.2785 81.5002 37.6885 91.3402 30.4285 102.98C27.1385 108.26 20.1086 117.06 18.7686 123.38V123.39Z" fill="#464646"/>
<path d="M48.5581 66.3898C49.1081 65.9298 48.8681 66.1298 48.8781 65.4198C48.6081 65.3698 48.3381 65.3098 48.0681 65.2598C47.9081 65.4798 47.7481 65.6898 47.5781 65.9098C47.7381 66.1298 47.8981 66.3398 48.0681 66.5598C48.2281 66.5098 48.3881 66.4498 48.5581 66.3998V66.3898Z" fill="#464646"/>
<path d="M10.6788 6.80984H11.4888C12.0788 5.56984 12.6788 4.32984 13.2688 3.08984H12.7788C12.1788 4.22984 11.5388 4.97984 10.5088 5.67984C10.5588 5.94984 10.6188 6.21984 10.6688 6.48984V6.80984H10.6788Z" fill="#464646"/>
<path d="M7.91882 9.40017C8.74882 9.23017 8.81883 9.22018 9.04883 8.43018H8.3988C8.2888 8.48018 8.1788 8.54018 8.0788 8.59018C7.9688 8.75018 7.85879 8.91017 7.75879 9.08017C7.80879 9.19017 7.86882 9.30017 7.91882 9.40017Z" fill="#464646"/>
<path d="M6.94849 9.56008C6.89849 9.40008 6.83851 9.24008 6.78851 9.07008C6.47851 8.58008 6.75849 8.80008 6.13849 8.58008C6.08849 8.90008 6.02852 9.23008 5.97852 9.55008C6.13852 9.66008 6.29851 9.77008 6.46851 9.87008C6.62851 9.76008 6.7885 9.65008 6.9585 9.55008L6.94849 9.56008Z" fill="#464646"/>
<path d="M5.16895 0.329765C5.27895 0.379765 5.38895 0.439767 5.48895 0.489767C5.53895 0.439767 5.59893 0.379765 5.64893 0.329765C5.53893 0.219765 5.42892 0.109766 5.32892 0.00976562C5.27892 0.119766 5.21895 0.229765 5.16895 0.329765Z" fill="#464646"/>
<path d="M7.91858 0.0100002H7.42853C7.37853 0.12 7.31855 0.23 7.26855 0.33V0.490002C7.87855 0.270002 7.59858 0.49 7.91858 0V0.0100002Z" fill="#464646"/>
<path d="M-18.1511 45.5101C-17.9411 49.5201 -9.97114 59.6701 -7.79114 63.1601C-2.61114 72.1201 2.56884 81.0801 7.74884 90.0401C9.47884 93.3901 11.1988 96.7301 12.9288 100.08H13.5789C16.6389 97.6201 18.7388 92.7801 20.8688 89.3901C25.3988 82.1601 30.1789 75.0001 34.7889 67.6901C36.8889 64.4501 38.9989 61.2101 41.0989 57.9701C41.9089 56.7701 43.5689 55.8601 44.0089 54.4101C43.4688 54.7301 42.9289 55.0601 42.3889 55.3801H42.2289C42.4489 54.8901 42.6588 54.4101 42.8788 53.9201C42.5188 50.8301 37.0989 46.8101 35.2689 44.5301C29.3289 37.1401 22.8189 30.4601 16.1589 23.8001C14.4389 22.0801 10.4289 17.0201 8.22888 16.3501C-0.571117 26.0601 -9.37113 35.7801 -18.1611 45.5001L-18.1511 45.5101Z" fill="#464646"/>
</svg>
