<svg width="24" height="26" viewBox="0 0 24 26" fill="none" xmlns="http://www.w3.org/2000/svg">
<path d="M12 9.75C11.2044 9.75 10.4413 10.0924 9.87868 10.7019C9.31607 11.3114 9 12.138 9 13C9 13.862 9.31607 14.6886 9.87868 15.2981C10.4413 15.9076 11.2044 16.25 12 16.25C12.7956 16.25 13.5587 15.9076 14.1213 15.2981C14.6839 14.6886 15 13.862 15 13C15 12.138 14.6839 11.3114 14.1213 10.7019C13.5587 10.0924 12.7956 9.75 12 9.75ZM12 18.4167C10.6739 18.4167 9.40215 17.846 8.46447 16.8302C7.52678 15.8143 7 14.4366 7 13C7 11.5634 7.52678 10.1857 8.46447 9.16984C9.40215 8.15402 10.6739 7.58333 12 7.58333C13.3261 7.58333 14.5979 8.15402 15.5355 9.16984C16.4732 10.1857 17 11.5634 17 13C17 14.4366 16.4732 15.8143 15.5355 16.8302C14.5979 17.846 13.3261 18.4167 12 18.4167ZM12 4.875C7 4.875 2.73 8.24417 1 13C2.73 17.7558 7 21.125 12 21.125C17 21.125 21.27 17.7558 23 13C21.27 8.24417 17 4.875 12 4.875Z" fill="#7F8B9E"/>
</svg>
