<svg width="16" height="16" viewBox="0 0 16 16" fill="none" xmlns="http://www.w3.org/2000/svg">
<path fill-rule="evenodd" clip-rule="evenodd" d="M2.14416 8C2.52926 8.5311 3.31851 9.53184 4.3578 10.4031C5.4354 11.3066 6.69722 12 8.00001 12C9.3028 12 10.5646 11.3066 11.6422 10.4031C12.6815 9.53184 13.4708 8.5311 13.8559 8C13.4708 7.4689 12.6815 6.46816 11.6422 5.59686C10.5646 4.69343 9.3028 4 8.00001 4C6.69722 4 5.4354 4.69343 4.3578 5.59686C3.31851 6.46816 2.52926 7.4689 2.14416 8ZM3.50119 4.5751C4.67567 3.59045 6.23753 2.66667 8.00001 2.66667C9.76249 2.66667 11.3243 3.59045 12.4988 4.5751C13.6847 5.56929 14.5621 6.69809 14.9676 7.262C15.2865 7.70558 15.2865 8.29442 14.9676 8.738C14.5621 9.30191 13.6847 10.4307 12.4988 11.4249C11.3243 12.4095 9.76249 13.3333 8.00001 13.3333C6.23753 13.3333 4.67567 12.4095 3.50119 11.4249C2.31532 10.4307 1.43788 9.30191 1.03246 8.738C0.713546 8.29442 0.713546 7.70558 1.03246 7.262C1.43788 6.69809 2.31532 5.56929 3.50119 4.5751Z" fill="#DADADA"/>
<path fill-rule="evenodd" clip-rule="evenodd" d="M8.00001 9.33333C8.73639 9.33333 9.33334 8.73638 9.33334 8C9.33334 7.26362 8.73639 6.66667 8.00001 6.66667C7.26363 6.66667 6.66667 7.26362 6.66667 8C6.66667 8.73638 7.26363 9.33333 8.00001 9.33333ZM8.00001 10.6667C9.47277 10.6667 10.6667 9.47276 10.6667 8C10.6667 6.52724 9.47277 5.33333 8.00001 5.33333C6.52725 5.33333 5.33334 6.52724 5.33334 8C5.33334 9.47276 6.52725 10.6667 8.00001 10.6667Z" fill="#DADADA"/>
</svg>
