<svg width="15" height="14" viewBox="0 0 15 14" fill="none" xmlns="http://www.w3.org/2000/svg">
<path d="M6.14391 7.99175L6.65433 6.32925L5.31266 5.25008H6.97516L7.50016 3.61675L8.02516 5.25008H9.68766L8.33141 6.32925L8.84183 7.99175L7.50016 6.95633L6.14391 7.99175ZM4.00016 13.4167V8.9105C3.63072 8.50216 3.34391 8.0355 3.13975 7.5105C2.93558 6.9855 2.8335 6.42647 2.8335 5.83341C2.8335 4.53064 3.28558 3.42716 4.18975 2.523C5.09391 1.61883 6.19738 1.16675 7.50016 1.16675C8.80294 1.16675 9.90641 1.61883 10.8106 2.523C11.7147 3.42716 12.1668 4.53064 12.1668 5.83341C12.1668 6.42647 12.0647 6.9855 11.8606 7.5105C11.6564 8.0355 11.3696 8.50216 11.0002 8.9105V13.4167L7.50016 12.2501L4.00016 13.4167ZM7.50016 9.33341C8.47238 9.33341 9.29877 8.99314 9.97933 8.31258C10.6599 7.63203 11.0002 6.80564 11.0002 5.83341C11.0002 4.86119 10.6599 4.0348 9.97933 3.35425C9.29877 2.67369 8.47238 2.33341 7.50016 2.33341C6.52794 2.33341 5.70155 2.67369 5.021 3.35425C4.34044 4.0348 4.00016 4.86119 4.00016 5.83341C4.00016 6.80564 4.34044 7.63203 5.021 8.31258C5.70155 8.99314 6.52794 9.33341 7.50016 9.33341Z" fill="#1E1E1E"/>
</svg>
