<svg width="24" height="25" viewBox="0 0 24 25" fill="none" xmlns="http://www.w3.org/2000/svg">
<path d="M12 4.25C11.0054 4.25 10.0516 4.64509 9.34835 5.34835C8.64509 6.05161 8.25 7.00544 8.25 8C8.25 8.99456 8.64509 9.94839 9.34835 10.6517C10.0516 11.3549 11.0054 11.75 12 11.75C12.9946 11.75 13.9484 11.3549 14.6517 10.6517C15.3549 9.94839 15.75 8.99456 15.75 8C15.75 7.00544 15.3549 6.05161 14.6517 5.34835C13.9484 4.64509 12.9946 4.25 12 4.25ZM8 13.75C7.00544 13.75 6.05161 14.1451 5.34835 14.8483C4.64509 15.5516 4.25 16.5054 4.25 17.5V18.688C4.25 19.442 4.796 20.084 5.54 20.205C9.818 20.904 14.182 20.904 18.46 20.205C18.8201 20.1464 19.1476 19.9616 19.3839 19.6837C19.6202 19.4057 19.75 19.0528 19.75 18.688V17.5C19.75 16.5054 19.3549 15.5516 18.6517 14.8483C17.9484 14.1451 16.9946 13.75 16 13.75H15.66C15.475 13.75 15.291 13.78 15.116 13.836L14.25 14.119C12.788 14.5962 11.212 14.5962 9.75 14.119L8.884 13.836C8.70865 13.7789 8.5254 13.7499 8.341 13.75H8Z" fill="white"/>
</svg>
