<svg width="249" height="249" viewBox="0 0 249 249" fill="none" xmlns="http://www.w3.org/2000/svg">
<g filter="url(#filter0_d_1296_2382)">
<rect x="22" y="12" width="205" height="205" rx="20" fill="#2C2F48" shape-rendering="crispEdges"/>
<rect x="21" y="11" width="207" height="207" rx="21" stroke="url(#paint0_linear_1296_2382)" stroke-opacity="0.7" stroke-width="2" shape-rendering="crispEdges"/>
</g>
<path d="M34 182.514V160.757H77.5135V204.27H34V182.514ZM71.2973 182.514V166.973H40.2162V198.054H71.2973V182.514ZM46.4324 182.514V173.189H65.0811V191.838H46.4324V182.514ZM89.9459 201.162V198.054H83.7297V185.622H89.9459V166.973H96.1622V160.757H83.7297V154.541H58.8649V148.324H65.0811V142.108H52.6486V154.541H46.4324V148.324H34V142.108H46.4324V129.676H40.2162V135.892H34V123.459H46.4324V129.676H52.6486V135.892H58.8649V129.676H65.0811V135.892H77.5135V129.676H71.2973V123.459H52.6486V117.243H71.2973V111.027H52.6486V104.811H46.4324V111.027H34V92.3784H40.2162V98.5946H77.5135V92.3784H71.2973V86.1622H58.8649V92.3784H52.6486V86.1622H40.2162V73.7297H52.6486V86.1622H58.8649V79.9459H71.2973V73.7297H77.5135V79.9459H71.2973V86.1622H77.5135V92.3784H83.7297V79.9459H89.9459V73.7297H83.7297V55.0811H96.1622V61.2973H102.378V67.5135H96.1622V73.7297H102.378V111.027H89.9459V104.811H83.7297V111.027H77.5135V117.243H71.2973V123.459H77.5135V129.676H83.7297V135.892H96.1622V129.676H89.9459V123.459H83.7297V117.243H96.1622V129.676H102.378V117.243H108.595V129.676H114.811V111.027H121.027V104.811H127.243V111.027H121.027V117.243H127.243V123.459H145.892V117.243H139.676V111.027H133.459V98.5946H127.243V92.3784H133.459V86.1622H139.676V79.9459H133.459V73.7297H127.243V86.1622H121.027V79.9459H114.811V86.1622H108.595V79.9459H114.811V73.7297H108.595V55.0811H102.378V48.8649H108.595V55.0811H114.811V30.2162H121.027V42.6486H133.459V36.4324H127.243V24H139.676V30.2162H133.459V36.4324H145.892V30.2162H152.108V24H164.541V42.6486H152.108V36.4324H145.892V48.8649H152.108V67.5135H158.324V61.2973H164.541V92.3784H176.973V86.1622H170.757V73.7297H183.189V92.3784H195.622V86.1622H189.405V73.7297H195.622V86.1622H201.838V79.9459H214.27V92.3784H208.054V86.1622H201.838V92.3784H195.622V111.027H201.838V117.243H195.622V123.459H183.189V129.676H176.973V135.892H164.541V129.676H158.324V123.459H152.108V135.892H158.324V142.108H176.973V148.324H189.405V142.108H183.189V135.892H189.405V129.676H195.622V135.892H201.838V142.108H208.054V129.676H201.838V123.459H214.27V142.108H208.054V154.541H214.27V166.973H208.054V185.622H214.27V191.838H195.622V204.27H176.973V198.054H189.405V191.838H176.973V179.405H170.757V191.838H164.541V198.054H170.757V204.27H158.324V185.622H152.108V198.054H145.892V191.838H139.676V166.973H145.892V185.622H152.108V166.973H158.324V154.541H152.108V148.324H145.892V142.108H152.108V135.892H145.892V129.676H139.676V154.541H145.892V160.757H133.459V173.189H127.243V185.622H133.459V191.838H127.243V198.054H139.676V204.27H127.243V198.054H121.027V191.838H114.811V204.27H89.9459V201.162ZM108.595 191.838V185.622H114.811V166.973H102.378V173.189H108.595V179.405H96.1622V185.622H89.9459V191.838H96.1622V198.054H108.595V191.838ZM195.622 185.622V179.405H201.838V166.973H208.054V160.757H201.838V142.108H195.622V160.757H201.838V166.973H195.622V173.189H189.405V191.838H195.622V185.622ZM164.541 182.514V179.405H158.324V185.622H164.541V182.514ZM127.243 170.081V166.973H121.027V173.189H127.243V170.081ZM183.189 163.865V154.541H164.541V173.189H183.189V163.865ZM170.757 163.865V160.757H176.973V166.973H170.757V163.865ZM121.027 157.649V154.541H133.459V148.324H121.027V142.108H114.811V148.324H121.027V154.541H108.595V148.324H102.378V154.541H96.1622V148.324H89.9459V142.108H83.7297V135.892H77.5135V142.108H71.2973V148.324H77.5135V142.108H83.7297V148.324H89.9459V154.541H96.1622V160.757H121.027V157.649ZM102.378 139V135.892H96.1622V142.108H102.378V139ZM133.459 135.892V129.676H121.027V135.892H127.243V142.108H133.459V135.892ZM170.757 126.568V123.459H164.541V129.676H170.757V126.568ZM183.189 120.351V117.243H189.405V98.5946H183.189V104.811H176.973V111.027H170.757V104.811H158.324V98.5946H152.108V92.3784H158.324V73.7297H152.108V67.5135H145.892V61.2973H139.676V67.5135H133.459V48.8649H139.676V55.0811H145.892V48.8649H139.676V42.6486H133.459V48.8649H127.243V67.5135H133.459V73.7297H139.676V67.5135H145.892V86.1622H139.676V92.3784H133.459V98.5946H139.676V111.027H145.892V104.811H158.324V111.027H164.541V117.243H176.973V123.459H183.189V120.351ZM176.973 114.135V111.027H183.189V117.243H176.973V114.135ZM77.5135 107.919V104.811H83.7297V98.5946H77.5135V104.811H71.2973V111.027H77.5135V107.919ZM96.1622 95.4865V92.3784H89.9459V98.5946H96.1622V95.4865ZM96.1622 64.4054V61.2973H89.9459V67.5135H96.1622V64.4054ZM121.027 61.2973V55.0811H114.811V67.5135H121.027V61.2973ZM158.324 33.3243V30.2162H152.108V36.4324H158.324V33.3243ZM208.054 201.162V198.054H214.27V204.27H208.054V201.162ZM208.054 111.027V104.811H201.838V98.5946H208.054V104.811H214.27V117.243H208.054V111.027ZM34 45.7568V24H77.5135V67.5135H34V45.7568ZM71.2973 45.7568V30.2162H40.2162V61.2973H71.2973V45.7568ZM46.4324 45.7568V36.4324H65.0811V55.0811H46.4324V45.7568ZM170.757 45.7568V24H214.27V67.5135H170.757V45.7568ZM208.054 45.7568V30.2162H176.973V61.2973H208.054V45.7568ZM183.189 45.7568V36.4324H201.838V55.0811H183.189V45.7568ZM83.7297 45.7568V42.6486H89.9459V48.8649H83.7297V45.7568ZM96.1622 39.5405V36.4324H89.9459V24H96.1622V30.2162H102.378V24H108.595V30.2162H102.378V42.6486H96.1622V39.5405Z" fill="#DEDEDE"/>
<defs>
<filter id="filter0_d_1296_2382" x="0" y="0" width="249" height="249" filterUnits="userSpaceOnUse" color-interpolation-filters="sRGB">
<feFlood flood-opacity="0" result="BackgroundImageFix"/>
<feColorMatrix in="SourceAlpha" type="matrix" values="0 0 0 0 0 0 0 0 0 0 0 0 0 0 0 0 0 0 127 0" result="hardAlpha"/>
<feOffset dy="10"/>
<feGaussianBlur stdDeviation="10"/>
<feComposite in2="hardAlpha" operator="out"/>
<feColorMatrix type="matrix" values="0 0 0 0 0 0 0 0 0 0 0 0 0 0 0 0 0 0 0.5 0"/>
<feBlend mode="normal" in2="BackgroundImageFix" result="effect1_dropShadow_1296_2382"/>
<feBlend mode="normal" in="SourceGraphic" in2="effect1_dropShadow_1296_2382" result="shape"/>
</filter>
<linearGradient id="paint0_linear_1296_2382" x1="9.1875" y1="-0.992959" x2="221.272" y2="236.963" gradientUnits="userSpaceOnUse">
<stop offset="0.398175" stop-color="#F2FEFF"/>
<stop offset="1" stop-color="#782C96"/>
</linearGradient>
</defs>
</svg>
