<svg width="54" height="54" viewBox="0 0 54 54" fill="none" xmlns="http://www.w3.org/2000/svg">
<g clip-path="url(#clip0_1245_560)">
<path fill-rule="evenodd" clip-rule="evenodd" d="M24.705 0.0977926C29.3649 -0.29988 34.0482 0.519688 38.2961 2.47622C42.544 4.43274 46.2109 7.45913 48.9375 11.2589V5.90617C48.9375 5.23484 49.2042 4.591 49.6789 4.1163C50.1536 3.6416 50.7974 3.37492 51.4688 3.37492C52.1401 3.37492 52.7839 3.6416 53.2586 4.1163C53.7333 4.591 54 5.23484 54 5.90617V20.2499H39.6562C38.9849 20.2499 38.3411 19.9832 37.8664 19.5085C37.3917 19.0338 37.125 18.39 37.125 17.7187C37.125 17.0473 37.3917 16.4035 37.8664 15.9288C38.3411 15.4541 38.9849 15.1874 39.6562 15.1874H45.4849C43.1768 11.5758 39.8612 8.71952 35.9479 6.97128C32.0345 5.22304 27.6947 4.65947 23.4646 5.35018C19.2345 6.0409 15.2994 7.95564 12.1454 10.8579C8.99141 13.7601 6.75667 17.5227 5.71725 21.6809C5.64058 22.0076 5.49974 22.3157 5.30291 22.5874C5.10609 22.8591 4.85721 23.089 4.57074 23.2637C4.28428 23.4383 3.96595 23.5543 3.63426 23.6049C3.30257 23.6554 2.96414 23.6395 2.63866 23.5581C2.31317 23.4766 2.00712 23.3313 1.73831 23.1306C1.46949 22.9298 1.24327 22.6776 1.07279 22.3886C0.902322 22.0996 0.791003 21.7796 0.745309 21.4472C0.699615 21.1148 0.720457 20.7767 0.806625 20.4524C2.17196 14.9931 5.20898 10.0968 9.49317 6.44801C13.7774 2.79919 19.0946 0.580183 24.7016 0.101168L24.705 0.0977926ZM13.23 50.2233C16.848 52.3677 20.9168 53.6373 25.1123 53.9308C29.3078 54.2243 33.5138 53.5337 37.3951 51.914C41.2764 50.2943 44.7257 47.7902 47.4679 44.6015C50.2102 41.4127 52.1696 37.6275 53.19 33.5474C53.3419 32.9001 53.2331 32.2189 52.8869 31.6512C52.5407 31.0835 51.9851 30.6748 51.34 30.5134C50.695 30.352 50.0123 30.451 49.4396 30.7888C48.8669 31.1267 48.4501 31.6763 48.2794 32.3189C47.2394 36.4762 45.0045 40.2379 41.8508 43.1394C38.6971 46.0409 34.7626 47.9552 30.5332 48.6458C26.3039 49.3365 21.9648 48.7733 18.0519 47.0257C14.139 45.2782 10.8236 42.4229 8.51513 38.8124H14.3438C15.0151 38.8124 15.6589 38.5457 16.1336 38.071C16.6083 37.5963 16.875 36.9525 16.875 36.2812C16.875 35.6098 16.6083 34.966 16.1336 34.4913C15.6589 34.0166 15.0151 33.7499 14.3438 33.7499H0V48.0937C0 48.765 0.266684 49.4088 0.741386 49.8835C1.21609 50.3582 1.85992 50.6249 2.53125 50.6249C3.20258 50.6249 3.84641 50.3582 4.32111 49.8835C4.79582 49.4088 5.0625 48.765 5.0625 48.0937V42.7409C7.23864 45.7727 10.0197 48.3204 13.23 50.2233Z" fill="white"/>
</g>
<defs>
<clipPath id="clip0_1245_560">
<rect width="54" height="54" fill="white"/>
</clipPath>
</defs>
</svg>
