<?xml version="1.0" encoding="UTF-8"?>
<svg id="Layer_2" data-name="Layer 2" xmlns="http://www.w3.org/2000/svg" viewBox="0 0 246.37 192.93">
  <defs>
    <style>
      .cls-1 {
        fill: #80a800;
      }
    </style>
  </defs>
  <g id="Layer_1-2" data-name="Layer 1">
    <g>
      <path class="cls-1" d="M122.47,114.8c-.56,1.2-1.12,2.4-1.68,3.59,1.91-.38,2.16-1.67,2.64-3.36,1.34-.7,2.98-.55,4.31-.96.24-.08.48-.16.72-.24.08-.24.16-.48.24-.72-3.58-.04-2.77-1.67-5.27-2.4-.35.17-.69.35-1.04.52-.12.12-.25.23-.38.35.15,1.07.31,2.14.46,3.21Z"/>
      <path class="cls-1" d="M117.19,113.84h-.48c-.32.32-.64.64-.96.96-.08.24-.16.48-.24.72,1.17-.31,1.37-.5,1.68-1.68Z"/>
      <path class="cls-1" d="M121.99,111.44c.13-.07.26-.13.4-.2,2.27-2.16,4.21-5.05,6.79-6.03l-3.83,3.83v.24h.72c2.79-1.53,4.6-4,5.75-7.19-.16-.16-.32-.32-.48-.48-3.21,1.55-11.85,8.64-12.7,11.98,1.26-.34,2.35-1.09,3.38-2.01l-.02-.15Z"/>
      <path class="cls-1" d="M125.58,110.24l-.24.48c.84.98,2.23,1.48,3.83,1.68-.44-1.47-1.89-2.03-3.59-2.16Z"/>
      <path class="cls-1" d="M134.21,99.46c-.32-.16-.64-.32-.96-.48-.32.48-.64.96-.96,1.44v.96c.16.08.32.16.48.24.9-.62,1.22-.78,1.44-2.16Z"/>
      <path class="cls-1" d="M116.47,21.09h.24c.16-.32.32-.64.48-.96-.16-.16-.32-.32-.48-.48h-.72c-.16.24-.32.48-.48.72.08.24.16.48.24.72h.72Z"/>
      <path class="cls-1" d="M114.8,116.47c.24-.32.48-.64.72-.96h-.96c-.95.89-1.6,1.29-1.92,2.88h.72c.48-.64.96-1.28,1.44-1.92Z"/>
      <path class="cls-1" d="M133.01,104.73c.4.32.8.64,1.2.96h.96c-.16-.48-.32-.96-.48-1.44-.56-.08-1.12-.16-1.68-.24v.72Z"/>
      <path class="cls-1" d="M95.86,107.61c-.32-.24-.64-.48-.96-.72v1.2h.48c.16-.16.32-.32.48-.48Z"/>
      <path class="cls-1" d="M101.14,35.95c.16-.16.32-.32.48-.48v-.96c-.63-.73-.8-.87-2.16-.96-.16.4-.32.8-.48,1.2l1.2,1.2h.96Z"/>
      <path class="cls-1" d="M35.47,97.78l.24.24h.96c.16-.24.32-.48.48-.72v-.72c-.48-.49-.24-.34-1.2-.48-.16.56-.32,1.12-.48,1.68Z"/>
      <path class="cls-1" d="M42.66,82.68h-.48c-1.42,1.72-4.47,2.32-5.27,4.55,1.85-1.09,5.01-2.38,5.75-4.55Z"/>
      <path class="cls-1" d="M46.01,98.26c-.08-.24-.16-.48-.24-.72h-.96c-.65,1.24.49,1.92,1.2.72Z"/>
      <path class="cls-1" d="M36.43,91.55h-.72c-.16.16-.32.32-.48.48v.24c.24.08.48.16.72.24.16-.32.32-.64.48-.96Z"/>
      <path class="cls-1" d="M45.54,83.64l.48-.48c-.48-.4-.96-.8-1.44-1.2.08.4.16.8.24,1.2.24.16.48.32.72.48Z"/>
      <path class="cls-1" d="M49.85,92.99h.48v-.24c-.48-.4-.96-.8-1.44-1.2-.16.08-.32.16-.48.24-.08.16-.16.32-.24.48l.72.72h.96Z"/>
      <path class="cls-1" d="M45.77,86.28c-.24-.16-.48-.32-.72-.48-1.06,1.02-2.4,1.22-3.12,2.64-.08.16-.16.32-.24.48.16.16.32.32.48.48.48-.24.96-.48,1.44-.72.72-.8,1.44-1.6,2.16-2.4Z"/>
      <path class="cls-1" d="M36.91,105.45c-.64.24-1.28.48-1.92.72v.72c.8-.16,1.6-.32,2.4-.48-.16-.32-.32-.64-.48-.96Z"/>
      <path class="cls-1" d="M42.42,101.62h-.96c-1.57,1.34-2.6,2.88-3.83,4.55.49,1.76.43,2.14,1.92,2.88h1.2c-.43-.98-.6-.92-1.68-1.2.44-2.85,2.19-3.9,3.36-5.99v-.24Z"/>
      <path class="cls-1" d="M32.11,115.28v-.48c-.32-.16-.64-.32-.96-.48-.48.16-.96.32-1.44.48v.96c.64-.08,1.28-.16,1.92-.24.16-.08.32-.16.48-.24Z"/>
      <path class="cls-1" d="M57.52,164.41v-.72c-.32-.16-.64-.32-.96-.48.25,1.19-.09.81.96,1.2Z"/>
      <path class="cls-1" d="M32.59,97.78c.4.24.8.48,1.2.72h.24v-1.92c-.56-.24-1.12-.48-1.68-.72-.38.79-.1.74.24,1.92Z"/>
      <path class="cls-1" d="M48.65,154.1c.4.16.8.32,1.2.48v-.24c-.32-.24-.64-.48-.96-.72-.08.16-.16.32-.24.48Z"/>
      <path class="cls-1" d="M69.26,162.73c-.08.24-.16.48-.24.72.54.45.33.45,1.2.72.08-.24.16-.48.24-.72-.08-.24-.16-.48-.24-.72h-.96Z"/>
      <path class="cls-1" d="M52.49,91.07v-.24c-.58-1.02-.95-1.5-2.16-1.92.33,1.26.89,1.83,2.16,2.16Z"/>
      <path class="cls-1" d="M30.92,107.37h-1.92c-.32.16-.64.32-.96.48-.24.32-.48.64-.72.96.73.42.64.03,1.92-.24,1.04.72,2.08,1.44,3.12,2.16-.48-1.12-.96-2.24-1.44-3.36Z"/>
      <path class="cls-1" d="M31.87,125.82c-.9,2.28-.19,2.87-1.68,5.27l.24.48h.48c.8-.96,1.6-1.92,2.4-2.88.16-1.12.32-2.24.48-3.36h-.72c-.4.16-.8.32-1.2.48Z"/>
      <path class="cls-1" d="M27.8,99.7c-.48-.32-.96-.64-1.44-.96.08.32.16.64.24.96.24.16.48.32.72.48.16-.16.32-.32.48-.48Z"/>
      <path class="cls-1" d="M64.95,72.86c.08-.16.16-.32.24-.48-.4-.32-.8-.64-1.2-.96-.16.24-.32.48-.48.72.08.16.16.32.24.48.4.08.8.16,1.2.24Z"/>
      <path class="cls-1" d="M96.58,60.15c.79-.81.65-.88-.24-1.68h-.72c-.15,1.12-.03,1.12.96,1.68Z"/>
      <path class="cls-1" d="M107.61,27.56c.16-.4.32-.8.48-1.2h-1.68c-.16.24-.32.48-.48.72.08.16.16.32.24.48h1.44Z"/>
      <path class="cls-1" d="M95.38,36.43c.16-.08.32-.16.48-.24-.08-.32-.16-.64-.24-.96-.8-.24-1.6-.48-2.4-.72.08.32.16.64.24.96.64.32,1.28.64,1.92.96Z"/>
      <path class="cls-1" d="M139.96,99.22c.39-.98.04-2.43-.72-3.59-.46-.72-.04-.4-.96-.72-.16.24-.32.48-.48.72.48,1.2.96,2.4,1.44,3.59h.72Z"/>
      <path class="cls-1" d="M52.49,83.16c-.32-.24-.64-.48-.96-.72-.24.24-.48.48-.72.72v.72c.24.16.48.32.72.48.32-.4.64-.8.96-1.2Z"/>
      <path class="cls-1" d="M92.27,41.94c-1.01-1.07-2.67-3.57-4.07-4.07-.16.4-.32.8-.48,1.2,1.27,1.36,2.28,2.48,4.07,3.36.16-.16.32-.32.48-.48Z"/>
      <path class="cls-1" d="M110.24,37.87c.4.08.8.16,1.2.24.95-.54,1.34-.71,1.68-1.92-2.46.04-2.86-.42-4.79-.96.64.88,1.28,1.76,1.92,2.64Z"/>
      <path class="cls-1" d="M108.33,25.16v-.48c-.32-.16-.64-.32-.96-.48v1.2h.48c.16-.08.32-.16.48-.24Z"/>
      <path class="cls-1" d="M113.36,18.21h-.72c-.56.56-1.12,1.12-1.68,1.68v.24c.72-.48,1.44-.96,2.16-1.44.08-.16.16-.32.24-.48Z"/>
      <path class="cls-1" d="M70.22,73.58c-.32-.16-.64-.32-.96-.48-.16.24-.32.48-.48.72l.72.72c.24-.32.48-.64.72-.96Z"/>
      <path class="cls-1" d="M80.77,172.79c-.36,1.04-.48,2.9.24,4.07.42.57.24.41.96.72h.24c.64-1.3.37-2.84,0-4.31-.48-.16-.96-.32-1.44-.48Z"/>
      <path class="cls-1" d="M61.83,79.81c-.23.64.25.25-.48.72-.32.4-.64.8-.96,1.2l.48.24c.48-.32.96-.64,1.44-.96-.07-1.19-.17-1.54-.72-2.16-.44-.74-.34-.63-1.2-.96-.2,1.2.18,1.54,1.44,1.92Z"/>
      <path class="cls-1" d="M58.48,82.92c.32-.32.64-.64.96-.96-.5-.82-.37-.87-1.44-1.2-.16.24-.32.48-.48.72-.4.5-.38.47-.48,1.44.08.08.16.16.24.24.4-.08.8-.16,1.2-.24Z"/>
      <path class="cls-1" d="M69.98,81.96c-.08.16-.16.32-.24.48.47.38.33.33,1.2.48l.24-.48c-.16-.16-.32-.32-.48-.48h-.72Z"/>
      <path class="cls-1" d="M75.73,56.08c-.45.54-.45.33-.72,1.2.99-.69.93-.48.72-1.2Z"/>
      <path class="cls-1" d="M71.9,67.82c.74-.61,1.2-.72.72-1.92-.59-.88-.89-.96-2.4-.96.16.72.32,1.44.48,2.16.4.24.8.48,1.2.72Z"/>
      <path class="cls-1" d="M76.21,65.19h3.12c-.42-1.28-1.35-1.79-2.64-2.16-.32.4-.64.8-.96,1.2.16.32.32.64.48.96Z"/>
      <path class="cls-1" d="M94.67,40.74h.72v-.72c-1.09-1.45-2.88-2.05-5.03-2.16.08.32.16.64.24.96.06.08,3.34,1.55,4.07,1.92Z"/>
      <path class="cls-1" d="M197.24,131.81c-.16.24-.32.48-.48.72v.96c.24.16.48.32.72.48.32-.24.64-.48.96-.72-.08-.24-.16-.48-.24-.72-.46-.72-.04-.4-.96-.72Z"/>
      <path class="cls-1" d="M114.8,92.99l-.24.24c.08.4.16.8.24,1.2.24.08.48.16.72.24h1.68c.19-1.36.93-4.02.72-4.55-.99.92-2.46,1.64-3.12,2.88Z"/>
      <path class="cls-1" d="M197.48,121.27c-.39.79-.52,1.39-.24,2.4.24.08.48.16.72.24.32-.16.64-.32.96-.48v-1.44c-.51-.76-.25-.59-1.44-.72Z"/>
      <path class="cls-1" d="M201.79,97.3c-.24.24-.48.48-.72.72v1.2c.24.24.48.48.72.72.4-.08.8-.16,1.2-.24h.48c-.08-.56-.16-1.12-.24-1.68-.48-.24-.96-.48-1.44-.72Z"/>
      <path class="cls-1" d="M200.36,107.37c.24.16.48.32.72.48.16-.16.32-.32.48-.48-.32-.16-.64-.32-.96-.48-.08.16-.16.32-.24.48Z"/>
      <path class="cls-1" d="M114.08,122.71v.24c.48.16.96.32,1.44.48.24-.32.48-.64.72-.96-.52-.47-.77-.56-1.68-.72-.16.32-.32.64-.48.96Z"/>
      <path class="cls-1" d="M147.87,86.52c-.49-.52-.32-.47-1.2-.72-.24.16-.48.32-.72.48v.96c.4.08.8.16,1.2.24.24-.32.48-.64.72-.96Z"/>
      <path class="cls-1" d="M142.84,91.31h-.96c-.16.4-.32.8-.48,1.2.16.08.32.16.48.24.71-.52.69-.39.96-1.44Z"/>
      <path class="cls-1" d="M120.79,115.28c-1.28,1.2-2.56,2.4-3.83,3.59-.08.24-.16.48-.24.72,1.49-.32,2.56-1.14,3.12-2.4.56-.64,1.12-1.28,1.68-1.92h-.72Z"/>
      <path class="cls-1" d="M161.29,81.96c-.8,1.36-1.6,2.72-2.4,4.07v.72c1.04-1.28,2.08-2.56,3.12-3.83-.33-.91,0-.5-.72-.96Z"/>
      <path class="cls-1" d="M150.51,86.04c-.32-.32-.64-.64-.96-.96-.16.08-.32.16-.48.24-.16.24-.32.48-.48.72.32.32.64.64.96.96.32-.32.64-.64.96-.96Z"/>
      <path class="cls-1" d="M156.74,85.08c-.18,2.8-1.58,3-2.16,5.27,1.2-1.28,2.4-2.56,3.59-3.83l-1.44-1.44Z"/>
      <path class="cls-1" d="M183.1,115.28c.5.4.47.38,1.44.48,1.17-.85,2.66-2.05,3.12-3.59h-1.2c-1.15,1.5-1.87,1.94-3.36,3.12Z"/>
      <path class="cls-1" d="M184.78,112.4h-.72c-.76.71-1.23,1.06-2.64,1.2-.16,1.12-.32,2.24-.48,3.36.16.24.32.48.48.72.9-.83.11-1.09.72-2.4,1.04-.8,2.08-1.6,3.12-2.4l-.48-.48Z"/>
      <path class="cls-1" d="M129.66,191.01c-.24.16-.48.32-.72.48v1.2c.4.08.8.16,1.2.24.16-.08.32-.16.48-.24.08-.32.16-.64.24-.96-.08-.16-.16-.32-.24-.48-.32-.08-.64-.16-.96-.24Z"/>
      <path class="cls-1" d="M185.74,118.39h.24c.32-.4.64-.8.96-1.2h-.72c-.16.4-.32.8-.48,1.2Z"/>
      <path class="cls-1" d="M170.64,154.82h1.2c.08-.16.16-.32.24-.48v-.24h-.96c-.16.24-.32.48-.48.72Z"/>
      <path class="cls-1" d="M183.58,108.33c.16-.4.32-.8.48-1.2-.4-.08-.8-.16-1.2-.24-.16.08-.32.16-.48.24-.56.64-1.12,1.28-1.68,1.92,1.02.15,1.22-.57,2.88-.72Z"/>
      <path class="cls-1" d="M167.28,161.29c1-.37.59.05.96-.96-.32-.16-.64-.32-.96-.48v1.44Z"/>
      <path class="cls-1" d="M193.41,109.52c.24.48.48.96.72,1.44h.96v-.96c-.4-.24-.8-.48-1.2-.72-.16.08-.32.16-.48.24Z"/>
      <path class="cls-1" d="M144.04,177.59c.08.64.16,1.28.24,1.92.24.16.48.32.72.48h.24c-.2-1.24-.44-1.75-1.2-2.4Z"/>
      <path class="cls-1" d="M138.76,185.98v-.96c-.32-.16-.64-.32-.96-.48-.16,1.07-.25,1.07.96,1.44Z"/>
      <path class="cls-1" d="M189.09,131.33c.16.08.32.16.48.24.4-.16.8-.32,1.2-.48v-.72c-.48-.08-.96-.16-1.44-.24-.08.4-.16.8-.24,1.2Z"/>
      <path class="cls-1" d="M191.25,109.05v.72h.24c.16-.24.32-.48.48-.72h-.72Z"/>
      <path class="cls-1" d="M192.45,104.25h-.72c.24.48.48.96.72,1.44h.96c-.29-.96-.32-.92-.96-1.44Z"/>
      <path class="cls-1" d="M192.69,101.62c1.66-.23,2.21-1.37,1.68-2.88-.56-.08-1.12-.16-1.68-.24-.4.16-.8.32-1.2.48.08.64.16,1.28.24,1.92.32.24.64.48.96.72ZM192.93,99.46h.72v1.2l-.48.24c-.39-.78-.29-.48-.24-1.44Z"/>
      <path class="cls-1" d="M191.49,117.19v-1.68c-.24.56-.48,1.12-.72,1.68h.72Z"/>
      <path class="cls-1" d="M191.49,113.12h.24c.16-.24.32-.48.48-.72v-.72h-.96c-.1,1.01-.14.69.24,1.44Z"/>
      <path class="cls-1" d="M191.49,113.84v.72h.48c-.31-.72.01-.29-.48-.72Z"/>
      <path class="cls-1" d="M201.79,89.15v.72c.24.16.48.32.72.48l.48-.48c-.54-.45-.33-.45-1.2-.72Z"/>
      <path class="cls-1" d="M135.17,132.29c.23,1.27-.21.84.96,1.2.32-.72.64-1.44.96-2.16-.32-.16-.64-.32-.96-.48-.32.48-.64.96-.96,1.44Z"/>
      <path class="cls-1" d="M79.33,123.18c.08.16.16.32.24.48.24-.08.48-.16.72-.24.72-.46.4-.04.72-.96h-1.2c-.16.24-.32.48-.48.72Z"/>
      <path class="cls-1" d="M91.07,135.89h.72c.52-.49.47-.32.72-1.2h-.96c-.16.4-.32.8-.48,1.2Z"/>
      <path class="cls-1" d="M121.03,141.88v.24c.24.08.48.16.72.24,1.28-1.64,3.41-2.59,4.07-4.79h-.48c-1.44,1.44-2.88,2.88-4.31,4.31Z"/>
      <path class="cls-1" d="M208.74,99.46c.34-.48.19-.37.24-.72-.08.24-.16.48-.24.72Z"/>
      <path class="cls-1" d="M179.74,88.19h.24c.72-.72,1.44-1.44,2.16-2.16.16-.16.32-.32.48-.48h-.72c-.91.84-1.75,1.25-2.16,2.64Z"/>
      <path class="cls-1" d="M190.53,86.04c.24.08.48.16.72.24.4-.32.8-.64,1.2-.96l-1.44-1.44c-.24.16-.48.32-.72.48.08.56.16,1.12.24,1.68Z"/>
      <path class="cls-1" d="M208.26,87.48c.84-.59.91-2.06,1.2-3.12.24-.08.48-.16.72-.24.72.48,1.44.96,2.16,1.44-.24.64-.48,1.28-.72,1.92l.48.24h3.59c.16-.32.32-.64.48-.96v-1.44c-.5-.51-.83-.49-1.92-.48-.32-.64-.64-1.28-.96-1.92v-.96l.24-.24c.8.16,1.6.32,2.4.48-.64-1.86-2.93-2.18-5.03-1.92.69-1.68,2.27-1.7,1.68-4.07.89.63,1.09,2.5,1.44,3.59,1.26-.28,1.38-.49,1.92-1.44-.96-1.59-1.74-2.23-1.68-5.03h-.72c-.48.48-.96.96-1.44,1.44-1.6-.4-3.2-.8-4.79-1.2-6.79,5.45-12.66,12.31-19.65,17.5.2-1.35-.52-1.78-1.2-2.88.08-.56.16-1.12.24-1.68.48-.16.96-.32,1.44-.48-.24.64-.48,1.28-.72,1.92v.24h.24c.89-.68,1.12-.81,1.2-2.4-.32-.24-.64-.48-.96-.72-1.21.47-1.7.74-2.4,1.68-.64-.32-1.28-.64-1.92-.96l-.48.48c.78.96,1.53,1.44,2.16,2.64-.32.08-.64.16-.96.24v1.2l.48.24v-1.2c1.51-.38,2.09.11,2.16,1.92-.56.48-1.12.96-1.68,1.44h-1.44c-.68-1.09-.87-1.38-.72-2.88-.8.72-1.6,1.44-2.4,2.16.24.48.48.96.72,1.44h-2.16c-.81,1.31-1.42,2.45-2.64,3.36.56,1.12,1.12,2.24,1.68,3.36-1.68,2.83-6.76,6.73-9.59,8.39-.4-.88-.8-1.76-1.2-2.64.16-.16.32-.32.48-.48.56.4,1.12.8,1.68,1.2.24-.08.48-.16.72-.24-.88-1.44-1.76-2.88-2.64-4.31v-.24c1.2.4,2.4.8,3.59,1.2.16-.08.32-.16.48-.24.08-.24.16-.48.24-.72-1.07-1.1-2.4-.91-4.31-.96l-.24-.48c1.44-1.59,4.08-2.56,6.23-3.36.16-.48.32-.96.48-1.44-.63-.31-.84-.43-1.92-.48-.88,1.56-3.19,3.95-5.51,3.12-.32-.24-.64-.48-.96-.72v-.96l.48-.48c1.88.52,2.72,1.32,4.55.24-.14-1.55-.47-1.79-1.2-2.64,5.99-5.91,11.98-11.82,17.97-17.73,3.03-2.42,6.7-4.64,8.87-7.91-.72-4.39-7.49-8.34-10.55-10.78-8.66-6.94-16.17-15.32-24.92-22.29-3.32-2.65-6.68-8.36-11.98-8.63-19.32,15.42-38.58,30.66-57.76,46.01-10.13,8.11-18.48,18.51-28.52,26.6-5.11,4.47-10.23,8.95-15.34,13.42-4.3,3.41-9.42,6.88-12.46,11.5.73,3.33,14.91,12.27,18.21,14.62,11.15,7.93,22.16,16.28,33.31,24.45,5.87,4.3,11.39,9.69,17.97,13.18,1.95-.09,3.17-1.07,3.83-2.4,1.04-1.86-12.65-10.05-15.1-11.74-16.66-11.5-31.33-25.66-47.21-38.11.56-.32,1.12-.64,1.68-.96-.08-.4-.16-.8-.24-1.2-.51-.91-.86-1.07-2.16-1.2h-.24c.08,1.04.16,2.08.24,3.12-.64-.32-1.28-.64-1.92-.96.88-1.28,1.76-2.56,2.64-3.83h1.2c.91.61.81,1.8.72,3.36,1.76.32,3.52.64,5.27.96,12.06,9.35,24.13,18.69,36.19,28.04,7.11,5.7,13.68,14.63,22.53,18.21,5.93-.49,19.72-17.56,24.68-21.57,5.83-5.67,11.66-11.34,17.5-17.02,9.66-7.8,18.07-17,27.8-24.92,7.27-5.92,13.44-14.83,22.05-19.17,1.24.7,2.62,1.33,4.31.48ZM213.78,85.08c.24.56.48,1.12.72,1.68l-.72-.72c-.48-.83-.26-.12,0-.96ZM208.98,82.44c.32-.4.64-.8.96-1.2.16.16.32.32.48.48v.72c-.48.08-.96.16-1.44.24v-.24ZM167.04,102.57c-.08.72-.16,1.44-.24,2.16-.32.16-.64.32-.96.48-.16-.08-.32-.16-.48-.24-.08-.24-.16-.48-.24-.72.4-.32.8-.64,1.2-.96-1.17-.79-2.47-1.7-3.59-2.64.24-.32.48-.64.72-.96h1.2c.8.96,1.6,1.92,2.4,2.88ZM149.31,65.43c.16.4.32.8.48,1.2-5.17,9.16-20.83,22.28-29.24,29-3.4,2.71-7.58,9.16-12.7,9.59-1.2-.96-2.4-1.92-3.59-2.88v-.96c2.83-3.69,7.32-6.49,11.02-9.35,2.96-2.88,5.91-5.75,8.87-8.63,7.75-6.07,15.5-12.14,23.25-18.21.64.08,1.28.16,1.92.24ZM79.33,101.14c1.1-3.97,14.54-13.23,18.21-16.06,7.67-6.31,15.34-12.62,23.01-18.93,8.87-6.47,17.74-12.94,26.6-19.41.48.08.96.16,1.44.24.16.4.32.8.48,1.2-3.3,5.69-9.81,10.56-14.86,14.62-9.11,7.99-18.21,15.98-27.32,23.97-3.02,2.43-13.07,9.84-13.9,13.42,2.84,5.27,9.25,9.27,13.42,13.42.93.93,3.24,4.13,5.27,3.59,2.64-2.64,5.27-5.27,7.91-7.91,6.92-6.92,13.6-14.28,21.33-20.37,2.35-1.85,11.05-10.56,11.98-10.31,1.11-1.36-.56-1.03,0-2.4.88-.32,1.76-.64,2.64-.96,1.85-2.11,7.14-7.25,8.15-9.35.08-.32.16-.64.24-.96-2.4-2.56-4.79-5.11-7.19-7.67v-.96c2.28-1.74,5.18-4.72,8.63-5.03,2.18,2.09,13.95,14.17,12.94,17.73-.61,2.17-4.03,3.37-5.75,4.55-1.44,1.28-2.88,2.56-4.31,3.83.16-.96.32-1.92.48-2.88-.32-.08-.64-.16-.96-.24-.05,1.44-.22,1.6-.72,2.4-.24.08-.48.16-.72.24h-.72c.29-1.19.63-1.36,1.2-2.16v-.24c-1.34.41-1.42.99-2.16,1.92.31,1.49.93,1.68,1.68,2.64-.52,3.85-8.67,9.46-11.5,11.74-12.24,9.88-23.04,24.07-37.39,30.92-.16.08-.32.16-.48.24.57.39,1.32.14,2.4-.24.08.16.16.32.24.48-1.32,2.59-4.93,6.82-7.91,7.67-5.06-3.68-9.52-8.79-14.62-12.22-3.99-2.69-9.51-5.68-11.98-9.83-.03-2.49-6.96-2.35-5.75-6.71ZM162.73,102.33c-.08.4-.16.8-.24,1.2-.43.48,0,.18-.72.48h-.24c-.52-1.09-.47-1.04.24-1.92h.48c.16.08.32.16.48.24ZM148.59,116.71h.96c.08.24.16.48.24.72v.24c-.48.16-.96.32-1.44.48l-.24-.48c.16-.32.32-.64.48-.96ZM147.63,115.76h-.24c-.42-.91-.26-.3,0-1.2.56.16,1.12.32,1.68.48v.24c-.48.16-.96.32-1.44.48ZM153.62,115.52c.4.24.8.48,1.2.72v1.2c-1.1.78-1.48,1.07-2.88.48-.56.88-1.12,1.76-1.68,2.64-.24.08-.48.16-.72.24-.08-.16-.16-.32-.24-.48,1.44-1.6,2.88-3.2,4.31-4.79ZM149.79,115.28c1.09-1.01,2.16-1.72,3.12-2.88.4.16.8.32,1.2.48.08.16.16.32.24.48-1.11,1.15-2.24,1.94-4.55,1.92ZM151.23,112.4l.24-.48.24.48h-.48ZM110,144.75c-.32.16-.64.32-.96.48v-.48l.48-.24c.16.08.32.16.48.24ZM138.52,135.41c.22-1.08.03-1.1-.48-1.92-2.71.78-3.93,4.36-5.99,5.99-6.7,5.3-13.21,12.81-21.81,15.82-5.06-.42-9.32-6.89-12.7-9.59-12.65-10.09-21.95-23.15-32.59-35.23v-.72c1.04-1.87,3.12-3.83,5.51-4.31,7.67,7.35,15.34,14.7,23.01,22.05,4.23,3.59,8.47,7.19,12.7,10.78,1.32,2.02.1,4.86,0,7.67.88.96,1.76,1.92,2.64,2.88,3.98.46,6.99-4.7,9.59-6.71,8.52-6.6,14.48-16.93,24.92-21.33.9-.57.66-.66.72-1.44,1.86,1.09,1.84,1.92,4.79,1.68-.03,1.99-.59,2.43-2.64,2.4-.16.24-.32.48-.48.72.26,1.13.04.78.96,1.2.08.16.16.32.24.48-.32.08-.64.16-.96.24-1.04-1.04-2.08-2.08-3.12-3.12-2.59.48-4.12,1.6-4.79,4.07-.64.72-1.28,1.44-1.92,2.16,1.17-.34,1.28-.66,2.88-.72.54,1.34-.06,1.94-.24,3.83.56.32,1.12.64,1.68.96,2.03-1.02,4.81-2.68,4.31-5.51,1.37.45,1.65.4,2.88-.24l.24.24c-2.43,3.08-6.13,5.38-9.35,7.67ZM149.31,126.54h-.24c-.48-.64-.96-1.28-1.44-1.92,2.78-3.04,7.48-5.06,8.87-9.35.16-.08.32-.16.48-.24-.08.56-.16,1.12-.24,1.68,1.33-.45,1.47-1.4,2.16-2.4,1.12.54-.54,2.22,1.2,3.12-3.59,3.04-7.19,6.07-10.78,9.11ZM162.49,115.28c-.24.08-.48.16-.72.24-.64-.4-1.28-.8-1.92-1.2.24-.32.48-.64.72-.96-1.87.32-3.36.38-5.03.72-.34-1.53-.24-2.11-1.92-2.4-.24-.32-.48-.64-.72-.96.89-.31,1.19-.22,1.68-.96.24-.16.48-.32.72-.48.62,1.42,1.42,1.72,2.16,2.88h.96c.54-3.18-.07-4.86,1.2-7.67.4.32.8.64,1.2.96-1.01,3.22-2.3,7.66,2.16,9.11-.16.24-.32.48-.48.72ZM164.65,112.4h-2.88c-2.32-2.8-1.32-4.54.48-6.95,2.15.47,3.39,2.18,4.07,4.07.08.24.16.48.24.72-.64.72-1.28,1.44-1.92,2.16ZM167.52,109.05c-.23-.62.19-.26-.72-.72-.24-.4-.48-.8-.72-1.2.16-.08.32-.16.48-.24.4.4.8.8,1.2,1.2.08.24.16.48.24.72-.16.08-.32.16-.48.24ZM178.55,97.54c.57.42.41.24.72.96-.24-.32-.48-.64-.72-.96ZM182.62,96.58c.32-.96.64-1.92.96-2.88.9.16,1.49-.04,2.16-.72.32.18-2.24,2.94-3.12,3.59ZM205.15,86.76c-.08-.16-.16-.32-.24-.48.64-.72,1.28-1.44,1.92-2.16h.72c.32.24.64.48.96.72-.08.24-.16.48-.24.72-.61,1.09-1.36,1.26-3.12,1.2Z"/>
      <path class="cls-1" d="M61.11,135.17c.4-.16.8-.32,1.2-.48v-.96h-.72c-.16.24-.32.48-.48.72v.72Z"/>
      <path class="cls-1" d="M78.13,148.59h.24c.87-.59,1.09-.75,1.44-1.92h-.72c-.32.4-.64.8-.96,1.2v.72Z"/>
      <path class="cls-1" d="M184.3,84.12c-.08.16-.16.32-.24.48.16.24.32.48.48.72.8-.24,1.6-.48,2.4-.72l1.2-1.2c-.24-.08-.48-.16-.72-.24-.84.68-1.52.96-3.12.96Z"/>
      <path class="cls-1" d="M208.5,95.14c.08-.24.16-.48.24-.72-.4-.16-.8-.32-1.2-.48-.24.32-.48.64-.72.96.47.38.33.33,1.2.48l.48-.24Z"/>
      <path class="cls-1" d="M212.34,90.11h-.72c-.4.56-.8,1.12-1.2,1.68v.72c.56.08,1.12.16,1.68.24.16-.8.32-1.6.48-2.4-.08-.08-.16-.16-.24-.24Z"/>
      <path class="cls-1" d="M218.09,87.72h-.72c-.16.24-.32.48-.48.72.16.08.32.16.48.24l.48-.24c.08-.24.16-.48.24-.72Z"/>
      <path class="cls-1" d="M212.58,115.04v.72c2.39-1,1.77-5.12,4.31-6.23-.16-.32-.32-.64-.48-.96-2.64,1.76-2.74,3.06-3.83,6.47Z"/>
      <path class="cls-1" d="M208.02,103.05c1.39-.46,2.9.29,4.07-.48v-.96c-1.04-.16-2.08-.32-3.12-.48-.62.69-.78.65-.96,1.92Z"/>
      <path class="cls-1" d="M206.11,119.83c-.16.4-.32.8-.48,1.2v.24c.24.16.48.32.72.48,1.02-.58,1.39-.8,1.68-2.16h-.96c-.32.08-.64.16-.96.24Z"/>
      <path class="cls-1" d="M207.31,100.18h.24c.09-.7.39-.29-.24-.72v.72Z"/>
      <path class="cls-1" d="M225.04,97.06c-.08.24-.16.48-.24.72-.4-.08-.8-.16-1.2-.24h-.48c.29-1.19.63-1.36,1.2-2.16-.16-.16-.32-.32-.48-.48h-.24c-.72,1.28-1.44,2.56-2.16,3.83.72.64,1.44,1.28,2.16,1.92h.72c1.56-2.2,1.7-3.68,1.92-7.19h-.72c-.16,1.2-.32,2.4-.48,3.59Z"/>
      <path class="cls-1" d="M227.68,78.61c-.48.88-.96,1.76-1.44,2.64.16.24.32.48.48.72h1.2c.33-.97.45-2.7-.24-3.36Z"/>
      <path class="cls-1" d="M220.25,103.05c-.72.16-1.44.32-2.16.48-.08.32-.16.64-.24.96.16.4.32.8.48,1.2.4.32.8.64,1.2.96,1.66-.98,2.27-3.04,2.4-5.51-.4-.16-.8-.32-1.2-.48-.16.8-.32,1.6-.48,2.4Z"/>
      <path class="cls-1" d="M225.52,91.07c-.5.61-.51.36-.72,1.44.4.08.8.16,1.2.24.24-.4.48-.8.72-1.2l-.48-.48h-.72Z"/>
      <path class="cls-1" d="M90.11,110.24c1.22-.28,1.57-.48,1.92-1.68h-.96c-.56.63-.71.6-.96,1.68Z"/>
      <path class="cls-1" d="M91.07,96.34c-.16-.48-.32-.96-.48-1.44-.4-.08-.8-.16-1.2-.24v1.2c.4.24.8.48,1.2.72l.48-.24Z"/>
      <path class="cls-1" d="M122.71,17.02h.48c-.43-.94-.12-.67-1.2-.96-.16.24-.32.48-.48.72l.48.48c.24-.08.48-.16.72-.24Z"/>
      <path class="cls-1" d="M229.59,82.2c.24.16.48.32.72.48.16-.16.32-.32.48-.48-.4-.32-.8-.64-1.2-.96v.96Z"/>
      <path class="cls-1" d="M228.4,88.67v2.64c.24.24.48.48.72.72.24-.08.48-.16.72-.24.24-.16.48-.32.72-.48-.66-.71-1.37-2.08-2.16-2.64Z"/>
      <path class="cls-1" d="M230.31,78.37c.08.24.16.48.24.72h3.83c.16-.24.32-.48.48-.72l-.48-.48c-1.86.73-2.91.26-4.31-.48.08.32.16.64.24.96Z"/>
      <path class="cls-1" d="M20.37,117.91h.24c.64-.72,1.28-1.44,1.92-2.16.16-.32.32-.64.48-.96-.4-.08-.8-.16-1.2-.24-.64.85-1.2,2.12-1.44,3.36Z"/>
      <path class="cls-1" d="M236.06,75.49c-.08.32-.16.64-.24.96.32-.16.64-.32.96-.48-.24-.16-.48-.32-.72-.48Z"/>
      <path class="cls-1" d="M15.34,117.43v3.83c.4-.16.8-.32,1.2-.48-.16-1.04-.32-2.08-.48-3.12-.24-.08-.48-.16-.72-.24Z"/>
      <path class="cls-1" d="M14.14,132.29c.32.16.64.32.96.48v-.72c-.24-.08-.48-.16-.72-.24l-.24.48Z"/>
      <path class="cls-1" d="M18.21,138.76h.24c1.17-.89,3.54-4.47,3.36-5.03-1.38,1.43-3.03,2.81-3.59,5.03Z"/>
      <path class="cls-1" d="M14.14,123.18c-.32-.16-.64-.32-.96-.48.25,1.19-.09.81.96,1.2v-.72Z"/>
      <path class="cls-1" d="M20.61,121.99c.24-.08.48-.16.72-.24.08-.64.16-1.28.24-1.92-.87-.54-1.22-.86-2.64-.96-.62,1.12.27,4.41,1.68,3.12Z"/>
      <path class="cls-1" d="M230.31,76.69h.72c.08-.16.16-.32.24-.48v-.72h-.96v1.2Z"/>
      <path class="cls-1" d="M222.64,62.31v-.96c-.81-.45-1.02-.87-1.44-1.68-.48-.08-.96-.16-1.44-.24-.36,1.63,1.16,2.64,2.88,2.88Z"/>
      <path class="cls-1" d="M230.07,73.82c.47-.59.14-.1.24-.72h-.72c.16.24.32.48.48.72Z"/>
      <path class="cls-1" d="M224.8,75.49c-.08.32-.16.64-.24.96,1-.37.59.05.96-.96h-.72Z"/>
      <path class="cls-1" d="M227.68,71.66h-.96c.32.16.64.32.96.48v-.48Z"/>
      <path class="cls-1" d="M6.47,125.82c-.16.4-.32.8-.48,1.2v.24c.48.16.96.32,1.44.48.16-.16.32-.32.48-.48-.08-.4-.16-.8-.24-1.2-.4-.08-.8-.16-1.2-.24Z"/>
      <path class="cls-1" d="M224.08,65.19h.24c.47-1.05.33-1.39,0-2.64-.24-.08-.48-.16-.72-.24-.24.64-.48,1.28-.72,1.92.24.32.48.64.72.96h.48Z"/>
      <path class="cls-1" d="M227.44,74.53c-.88-.56-1.76-1.12-2.64-1.68.52,1.13,1.25,1.65,2.64,1.92v-.24Z"/>
      <path class="cls-1" d="M226.96,62.79c.4-.56.8-1.12,1.2-1.68-.16-1.68-.64-2.35-1.68-3.12-.96-.16-1.92-.32-2.88-.48-.08,1.28-.16,2.56-.24,3.83.63,1.03,1.96,1.43,3.59,1.44Z"/>
      <path class="cls-1" d="M219.77,84.36c.2.61.65,1.9,1.44.96.24-.16.48-.32.72-.48v-.72h-1.68l-.48.24Z"/>
      <path class="cls-1" d="M228.16,64.95c.08.16.16.32.24.48h.96c.08-.16.16-.32.24-.48-.5-.4-.47-.38-1.44-.48v.48Z"/>
      <path class="cls-1" d="M223.12,82.44h.24v-2.16c.96-.4,1.92-.8,2.88-1.2-.52-.42-.64-.43-1.68-.48-1.19,1.15-1.16.98-2.88.72.05,1.76.44,2.36,1.44,3.12Z"/>
      <path class="cls-1" d="M1.68,130.37v.24c.16.08.32.16.48.24l.72-.72v-.72h-.96c-.08.32-.16.64-.24.96Z"/>
      <path class="cls-1" d="M3.12,121.51c-.1,1.73-.13,2.23,1.2,2.64.15-1.44.45-1.69.96-2.64v-.72h-1.44c-.24.24-.48.48-.72.72Z"/>
      <path class="cls-1" d="M9.83,114.08h-.72c-.32.16-.64.32-.96.48v.72c1.03-.31,1.13-.48,1.68-1.2Z"/>
      <path class="cls-1" d="M0,122.95c.48-.24.96-.48,1.44-.72v-.96c-.4-.32-.8-.64-1.2-.96-.08.88-.16,1.76-.24,2.64Z"/>
      <path class="cls-1" d="M4.55,116.71v-.96c-.32-.08-.64-.16-.96-.24-.45.54-.45.33-.72,1.2h1.68Z"/>
      <path class="cls-1" d="M219.77,54.64c.45-.54.45-.33.72-1.2h-.96l-.48.24c.16.32.32.64.48.96h.24Z"/>
      <path class="cls-1" d="M162.25,1.2c-.52-.71-.39-.69-1.44-.96-.16.24-.32.48-.48.72l.72.72c.85-.18.69-.17,1.2-.48Z"/>
      <path class="cls-1" d="M167.28,18.21c.16-.08.32-.16.48-.24-.33-.91,0-.5-.72-.96-.14.81-.19.57.24,1.2Z"/>
      <path class="cls-1" d="M161.53,23.97c.48-.08.96-.16,1.44-.24.08-.32.16-.64.24-.96v-.24c-.4-.08-.8-.16-1.2-.24-.16.56-.32,1.12-.48,1.68Z"/>
      <path class="cls-1" d="M154.34,1.68c-.27-.87-.19-.7-.72-1.2-.08.4-.16.8-.24,1.2.16.08.32.16.48.24.16-.08.32-.16.48-.24Z"/>
      <path class="cls-1" d="M178.79,11.74c-.32-.16-.64-.32-.96-.48-.58.72-.9.81-1.2,1.92,1.53-.1,1.7-.3,2.16-1.44Z"/>
      <path class="cls-1" d="M167.28,15.1c.24-.16.48-.32.72-.48-.33-.91,0-.5-.72-.96-.16.32-.32.64-.48.96.08.16.16.32.24.48h.24Z"/>
      <path class="cls-1" d="M180.22,19.41v-.24c-.4-.72-.8-1.44-1.2-2.16-.88-.16-1.76-.32-2.64-.48.34,1.05,2.81,2.58,3.83,2.88Z"/>
      <path class="cls-1" d="M173.03,10.31c.75-.49.51-.11.72-1.2-.56-.16-1.12-.32-1.68-.48-.22.93-.13,1.16.24,1.92.24-.08.48-.16.72-.24Z"/>
      <path class="cls-1" d="M154.1,11.02c.4.4.8.8,1.2,1.2.22-.94-2.1-5.49-3.36-5.75.08,1.04.16,2.08.24,3.12.64.48,1.28.96,1.92,1.44Z"/>
      <path class="cls-1" d="M133.01,14.62c-.24-.16-.48-.32-.72-.48-.08.16-.16.32-.24.48l.48.48c.16-.16.32-.32.48-.48Z"/>
      <path class="cls-1" d="M140.92,28.28c.32.24.64.48.96.72.16-.08.32-.16.48-.24.08-.24.16-.48.24-.72-.32-.24-.64-.48-.96-.72-.24.32-.48.64-.72.96Z"/>
      <path class="cls-1" d="M127.02,20.61c.24-.08.48-.16.72-.24v-1.2c-.08-.24-.16-.48-.24-.72-.48-.08-.96-.16-1.44-.24-.32.24-.64.48-.96.72v.72c.65.84.96,1.04,1.92.96Z"/>
      <path class="cls-1" d="M142.36,23.49v-.96c-.88-.08-1.76-.16-2.64-.24v.48c.72.32,1.44.64,2.16.96.16-.08.32-.16.48-.24Z"/>
      <path class="cls-1" d="M129.18,6.47c-.5-.4-.47-.38-1.44-.48-.16.4-.32.8-.48,1.2.08.16.16.32.24.48,1.17-.27,1.15-.35,1.68-1.2Z"/>
      <path class="cls-1" d="M143.56,15.58c-.33-1.18-.57-1.31-1.68-1.68-.16.32-.32.64-.48.96v.24l.72.48h1.44Z"/>
      <path class="cls-1" d="M145.47,17.02c-.32-.24-.64-.48-.96-.72.17.87.1.72.48,1.2.16-.16.32-.32.48-.48Z"/>
      <path class="cls-1" d="M153.38,23.97c-.24.24-.48.48-.72.72v.72l.24.24c.4-.08.8-.16,1.2-.24.08-.24.16-.48.24-.72-.49-.48-.18-.39-.96-.72Z"/>
      <path class="cls-1" d="M150.99,6.23c-.85-2.81-3.45-3.31-4.31-6.23h-.96c-.16.24-.32.48-.48.72v1.2c1.68,1.44,3.36,2.88,5.03,4.31h.72Z"/>
      <path class="cls-1" d="M145.95,25.4c-.08-.48-.16-.96-.24-1.44-.48-.08-.96-.16-1.44-.24v1.44c.48.16.96.32,1.44.48.08-.08.16-.16.24-.24Z"/>
      <path class="cls-1" d="M189.81,49.61v-.72c-.52-.63-.47-.69-1.44-.96-.08.24-.16.48-.24.72.67.51.63.7,1.68.96Z"/>
      <path class="cls-1" d="M211.14,50.57c.08-.16.16-.32.24-.48-1.23-1.48-2.42-2.44-2.64-5.03-1.04-.24-2.08-.48-3.12-.72-.32.32-.64.64-.96.96.39,3.98,2.62,5.27,6.47,5.27Z"/>
      <path class="cls-1" d="M198.92,62.55c.31-.63.43-.84.48-1.92-.32-.16-.64-.32-.96-.48-.4.48-.8.96-1.2,1.44v.24c.48.24.96.48,1.44.72h.24Z"/>
      <path class="cls-1" d="M202.75,35.23h2.4c-.08-.32-.16-.64-.24-.96-.64-.08-1.28-.16-1.92-.24-.29.71-.23.49-.24,1.2Z"/>
      <path class="cls-1" d="M206.83,61.11h.48c-.27-.21-7.34-3.42-8.15-3.59v.96c1.71,1.09,4.69,3.9,7.67,2.64Z"/>
      <path class="cls-1" d="M201.07,64.71c.16.32.32.64.48.96h.96c-.34-.96-.22-.72-.96-1.2-.16.08-.32.16-.48.24Z"/>
      <path class="cls-1" d="M210.42,69.02c-.08-.4-.16-.8-.24-1.2-.4-.16-.8-.32-1.2-.48-1.04.8-2.37.76-3.12,1.44,1.24.54,2.63.54,4.31.72l.24-.48Z"/>
      <path class="cls-1" d="M216.41,92.99c.08-.16.16-.32.24-.48-.55-1.02-1.1-2.09-2.16-2.64-.08.32-.16.64-.24.96.69.77,1.22.81,1.68,1.92l.48.24Z"/>
      <path class="cls-1" d="M218.57,85.08c-.42-.87-.26-.64-1.2-.96.43.69.46.6,1.2.96Z"/>
      <path class="cls-1" d="M185.02,20.85v-.24c-.64-.24-1.28-.48-1.92-.72-.08.32-.16.64-.24.96v.24c.48.24.96.48,1.44.72.57-.46.4-.14.72-.96Z"/>
      <path class="cls-1" d="M213.54,99.22c.08.24.16.48.24.72.32-.08.64-.16.96-.24.72-.46.4-.04.72-.96-.4-.08-.8-.16-1.2-.24l-.72.72Z"/>
      <path class="cls-1" d="M210.18,70.46c-.16.08-.32.16-.48.24v.72c.56.48,1.12.96,1.68,1.44.32.08.64.16.96.24h.24c.54-.86,1.17-2.18.72-3.36-.83.77-1.72,1.14-3.12.72Z"/>
      <path class="cls-1" d="M190.53,52.25c.16-.24.32-.48.48-.72-.65-.53-.45-.58-1.68-.72-.18,1.12-.2,1.2,1.2,1.44Z"/>
      <path class="cls-1" d="M190.77,25.16c-.32-.16-.64-.32-.96-.48v.96h.48c.16-.16.32-.32.48-.48Z"/>
      <path class="cls-1" d="M189.33,53.92v.96c.64.24,1.28.48,1.92.72v-1.92c-.56-.08-1.12-.16-1.68-.24-.08.16-.16.32-.24.48Z"/>
      <path class="cls-1" d="M187.89,41.46c.08-.48.16-.96.24-1.44-.32-.08-.64-.16-.96-.24-.24.16-.48.32-.72.48.17.87.1.72.48,1.2h.96Z"/>
      <path class="cls-1" d="M218.09,71.42c.16-.16.32-.32.48-.48-.67-.61-1.71-.84-2.88-.96.56.97,1.26,1.08,2.4,1.44Z"/>
      <path class="cls-1" d="M193.88,81h.72c.4-.24.8-.48,1.2-.72.08-.4.16-.8.24-1.2h-.72c-.72.69-1.1.76-1.44,1.92Z"/>
      <path class="cls-1" d="M195.32,76.21c.16.24.32.48.48.72.24-.08.48-.16.72-.24h.48v-.96c-.32-.16-.64-.32-.96-.48-.24.32-.48.64-.72.96Z"/>
      <path class="cls-1" d="M194.36,31.16c.64-.88,1.28-1.76,1.92-2.64v-.24c-.6-.56-.45-.66-1.44-.96-.73,1.03-1.58,2.13-1.2,3.59.24.08.48.16.72.24Z"/>
      <path class="cls-1" d="M192.45,58c.08-.16.16-.32.24-.48-.4-.16-.8-.32-1.2-.48-.08.32-.16.64-.24.96h1.2Z"/>
      <path class="cls-1" d="M194.12,52.73c.4-.24.8-.48,1.2-.72-.08-.16-.16-.32-.24-.48-.72-.08-1.44-.16-2.16-.24-.09,1.14.07.96,1.2,1.44Z"/>
      <path class="cls-1" d="M244.45,63.03h-1.44c-.16.32-.32.64-.48.96v.24c1.22.31,1.6.1,1.92-1.2Z"/>
      <path class="cls-1" d="M246.37,133.01c-.6-1.66-.85-3.06-2.64-3.59-.08.48-.16.96-.24,1.44.61,1.23,1.01,1.91,2.4,2.4.16-.08.32-.16.48-.24Z"/>
    </g>
  </g>
</svg>