<svg width="16" height="17" viewBox="0 0 16 17" fill="none" xmlns="http://www.w3.org/2000/svg">
<path d="M12 6.5C12.4061 6.50001 12.8026 6.3764 13.1367 6.1456C13.4709 5.9148 13.7268 5.58775 13.8706 5.20794C14.0143 4.82813 14.039 4.41356 13.9414 4.01936C13.8438 3.62516 13.6286 3.27001 13.3242 3.00113C13.0199 2.73226 12.6409 2.56241 12.2377 2.51417C11.8344 2.46592 11.4261 2.54157 11.0669 2.73105C10.7077 2.92053 10.4147 3.21487 10.2269 3.57492C10.039 3.93497 9.96524 4.34367 10.0153 4.74667L5.38866 7.06C5.10615 6.78757 4.74972 6.60428 4.36379 6.53296C3.97785 6.46165 3.57947 6.50546 3.21825 6.65894C2.85703 6.81242 2.54896 7.06878 2.3324 7.39609C2.11584 7.7234 2.00037 8.1072 2.00037 8.49967C2.00037 8.89214 2.11584 9.27593 2.3324 9.60325C2.54896 9.93056 2.85703 10.1869 3.21825 10.3404C3.57947 10.4939 3.97785 10.5377 4.36379 10.4664C4.74972 10.3951 5.10615 10.2118 5.38866 9.93934L10.0153 12.2527C9.95699 12.7208 10.066 13.1945 10.3232 13.5901C10.5803 13.9856 10.969 14.2775 11.4206 14.4142C11.8721 14.5509 12.3574 14.5235 12.7908 14.337C13.2241 14.1504 13.5776 13.8167 13.7886 13.3948C13.9997 12.9729 14.0548 12.4899 13.9443 12.0313C13.8337 11.5726 13.5646 11.1678 13.1844 10.8884C12.8043 10.609 12.3376 10.473 11.8669 10.5044C11.3961 10.5358 10.9517 10.7326 10.612 11.06L5.98533 8.74667C6.00548 8.58284 6.00548 8.41716 5.98533 8.25334L10.612 5.94C10.9707 6.28667 11.46 6.5 12 6.5Z" fill="white"/>
</svg>
