<svg width="16" height="17" viewBox="0 0 16 17" fill="none" xmlns="http://www.w3.org/2000/svg">
<path fill-rule="evenodd" clip-rule="evenodd" d="M2.66667 11.8333C2.48986 11.8333 2.32029 11.7631 2.19526 11.6381C2.07024 11.513 2 11.3435 2 11.1667C2 10.9899 2.07024 10.8203 2.19526 10.6953C2.32029 10.5702 2.48986 10.5 2.66667 10.5H4L6 8.5L4 6.5H2.66667C2.49501 6.49232 2.33294 6.41873 2.21418 6.29455C2.09543 6.17036 2.02916 6.00516 2.02916 5.83333C2.02916 5.66151 2.09543 5.4963 2.21418 5.37212C2.33294 5.24794 2.49501 5.17434 2.66667 5.16667H4.66667L7.33333 7.83333L10 5.16667H11.3333V3.83333L14 5.834L11.3333 7.83333V6.5H10.6667L8.66667 8.5L10.6667 10.5H11.3333V9.16667L14 11.1667L11.3333 13.1667V11.8333H10L7.33333 9.16667L4.66667 11.8333H2.66667Z" fill="white"/>
</svg>
