<svg width="25" height="25" viewBox="0 0 25 25" fill="none" xmlns="http://www.w3.org/2000/svg">
<g clip-path="url(#clip0_1816_2824)">
<path d="M18.2117 25.0001C17.7155 24.886 17.2043 24.8115 16.723 24.6527C14.0731 23.7794 12.2867 21.0749 12.51 18.3258C12.7532 15.3981 14.8721 13.0509 17.6956 12.5894C21.1891 12.0188 24.3897 14.3461 24.9356 17.8544C24.9554 17.9735 24.9753 18.0926 24.9951 18.2117V19.2835C24.9802 19.348 24.9604 19.4076 24.9505 19.4721C24.6478 22.0575 22.782 24.1863 20.2562 24.8066C19.9336 24.886 19.6061 24.9356 19.2835 24.9951H18.2117V25.0001ZM20.0378 17.5021C20.018 17.4475 20.008 17.4326 20.008 17.4177C20.008 16.8719 20.008 16.326 19.9981 15.7851C19.9981 15.6065 19.9832 15.4229 19.9336 15.2542C19.7599 14.6636 19.1893 14.3113 18.5739 14.3957C17.9636 14.4751 17.517 14.9713 17.4971 15.6214C17.4822 16.1573 17.4971 16.6932 17.4922 17.2341C17.4922 17.3185 17.4822 17.4078 17.4822 17.5021C16.857 17.5021 16.2665 17.4971 15.671 17.5021C14.9267 17.512 14.3808 18.038 14.3709 18.7426C14.3659 19.4523 14.9217 19.9931 15.676 20.0031C16.1871 20.008 16.7032 20.0031 17.2143 20.0031C17.2986 20.0031 17.3879 20.0031 17.4922 20.0031C17.4922 20.5985 17.4922 21.1593 17.4922 21.72C17.4922 21.8987 17.507 22.0823 17.5567 22.251C17.7254 22.8216 18.2911 23.1889 18.8667 23.1194C19.5168 23.04 19.9634 22.5636 19.9882 21.8838C20.008 21.3478 19.9882 20.8119 19.9932 20.271C19.9932 20.1867 20.0031 20.1023 20.008 20.0031C20.6382 20.0031 21.2436 20.013 21.8441 20.0031C22.6678 19.9882 23.2286 19.3183 23.0946 18.5193C22.9953 17.9338 22.4842 17.512 21.8391 17.507C21.2387 17.4971 20.6382 17.507 20.0328 17.507L20.0378 17.5021Z" fill="white"/>
<path d="M11.3491 19.9584C10.4161 19.9584 9.49812 20.0081 8.59002 19.9386C8.12357 19.9038 7.85064 19.492 7.79109 19.0106C7.68192 18.167 7.58268 17.3185 7.47351 16.4699C7.3693 15.6412 7.26013 14.8076 7.15592 13.9789C7.14104 13.8449 7.09637 13.7754 6.96239 13.7159C6.06918 13.3189 5.57295 12.6341 5.56799 11.6466C5.55807 10.1678 5.55807 8.68411 5.56799 7.20535C5.57791 6.03425 6.44631 5.11623 7.60749 5.01698C7.98462 4.98721 8.33198 5.09142 8.63468 5.31968C8.87784 5.50825 9.12099 5.70178 9.37406 5.87546C9.82067 6.18808 10.2921 6.18808 10.7437 5.89531C10.9868 5.73651 11.23 5.56283 11.4384 5.36434C11.8056 5.01202 12.2323 4.94751 12.7038 5.05668C13.7111 5.28991 14.4257 6.1335 14.4406 7.17061C14.4654 8.68907 14.4604 10.2125 14.4406 11.731C14.4356 12.2917 14.2123 12.7582 13.7706 13.1601C11.8552 14.9068 11.0364 17.0803 11.3193 19.6657C11.3292 19.755 11.3391 19.8443 11.3491 19.9584Z" fill="white"/>
<path d="M4.62464 6.3816C4.4857 8.09359 4.58494 9.78573 4.55517 11.4729C4.53532 12.4803 4.86779 13.3338 5.60717 14.0285C5.66176 14.0781 5.70146 14.1823 5.69153 14.2568C5.57244 15.2492 5.44838 16.2417 5.32432 17.2341C5.26974 17.6559 4.92238 17.9785 4.47081 17.9934C3.87037 18.0082 3.26498 18.0082 2.66454 17.9934C2.15342 17.9785 1.84576 17.651 1.77629 17.1051C1.61253 15.805 1.44382 14.5098 1.28502 13.2097C1.26517 13.0608 1.20563 13.0063 1.08157 12.9517C0.381887 12.6242 0.00971568 12.0733 0.00475339 11.2943C-0.00517118 10.1331 -0.000208894 8.96695 0.00475339 7.80578C0.00475339 6.91753 0.590303 6.20792 1.45374 6.03424C1.8408 5.95485 2.19312 6.0392 2.50575 6.28732C2.65958 6.41138 2.80845 6.53543 2.96724 6.6446C3.43369 6.96715 3.77609 6.96715 4.25247 6.64957C4.37157 6.57017 4.4857 6.48085 4.61968 6.3816H4.62464Z" fill="white"/>
<path d="M19.9579 11.3487C18.3947 11.1006 16.8961 11.3338 15.4372 12.0186V11.5621C15.4372 10.1528 15.4422 8.7485 15.4372 7.33921C15.4372 6.97696 15.3727 6.61471 15.333 6.23758C15.4471 6.3269 15.5712 6.43111 15.7002 6.53035C16.3056 6.99681 16.6927 6.99681 17.303 6.53035C17.3874 6.46584 17.4718 6.40133 17.5462 6.3269C17.8935 5.95969 18.3104 5.92495 18.757 6.07879C19.4765 6.33186 19.943 6.83802 19.9727 7.59725C20.0224 8.82293 19.9926 10.0536 19.9926 11.2793C19.9926 11.2842 19.9827 11.2941 19.9579 11.3388V11.3487Z" fill="white"/>
<path d="M12.2771 2.22807C12.2771 3.45871 11.2797 4.44621 10.054 4.44125C8.8333 4.44125 7.83588 3.4339 7.84084 2.21318C7.8458 0.987495 8.84322 0 10.0639 0C11.2896 0 12.2771 1.00238 12.2771 2.22807Z" fill="white"/>
<path d="M18.2659 3.77132C18.2659 4.75881 17.467 5.5627 16.4844 5.55774C15.5168 5.55774 14.7179 4.74889 14.7129 3.78124C14.7129 2.81359 15.5069 2.00474 16.4745 1.99978C17.467 1.99482 18.2659 2.78382 18.2659 3.77132Z" fill="white"/>
<path d="M5.37909 3.77642C5.37909 4.76391 4.5752 5.5678 3.59763 5.55788C2.62998 5.54796 1.83105 4.74903 1.83105 3.78138C1.83105 2.80877 2.62502 2.00985 3.59763 2.00488C4.59009 2.00488 5.38405 2.78892 5.38405 3.78138L5.37909 3.77642Z" fill="white"/>
</g>
<defs>
<clipPath id="clip0_1816_2824">
<rect width="25" height="25" fill="white"/>
</clipPath>
</defs>
</svg>
