<svg width="24" height="22" viewBox="0 0 24 22" fill="none" xmlns="http://www.w3.org/2000/svg">
<path d="M9.6125 14.8985L11.375 16.5173L17.625 10.777L11.375 5.03661L9.6125 6.65539L12.8375 9.62889L0.75 9.62889L0.75 11.925L12.8375 11.925L9.6125 14.8985ZM20.75 0.444336L3.25 0.444336C1.8625 0.444336 0.75 1.4776 0.75 2.74047L0.75 7.33275H3.25L3.25 2.74047L20.75 2.74047L20.75 18.8134L3.25 18.8134L3.25 14.2212H0.75L0.75 18.8134C0.75 20.0763 1.8625 21.1096 3.25 21.1096L20.75 21.1096C22.125 21.1096 23.25 20.0763 23.25 18.8134L23.25 2.74047C23.25 1.4776 22.125 0.444336 20.75 0.444336Z" fill="white"/>
</svg>
