<svg width="26" height="17" viewBox="0 0 26 17" fill="none" xmlns="http://www.w3.org/2000/svg">
<g clip-path="url(#clip0_1889_3380)">
<path d="M23.6209 16.9998H22.9595C22.9307 16.9841 22.9046 16.9581 22.8758 16.9555C22.1072 16.8409 21.4275 16.5076 20.7765 16.1091C19.7176 15.4659 18.7739 14.6716 17.8614 13.8435C17.2078 13.2498 16.4444 12.8748 15.6 12.6508C14.0706 12.242 12.5255 12.2133 10.9752 12.5128C9.86928 12.7263 8.86013 13.1482 8.03399 13.9425C7.71242 14.2524 7.36994 14.5414 7.01961 14.8227C5.83791 15.7706 4.62484 16.6664 3.10065 16.9998H2.33987C2.31111 16.9841 2.28235 16.9633 2.25098 16.9581C1.6732 16.88 1.23137 16.5779 0.875817 16.1352C0.457516 15.6144 0.264052 14.9998 0.156863 14.3539C0.0862745 13.9581 0.0496732 13.5571 0 13.1586C0 12.6534 0 12.1482 0 11.643C0.0156863 11.5779 0.0339869 11.5128 0.0418301 11.4477C0.146405 10.5961 0.216993 9.73936 0.360784 8.89561C0.690196 6.96592 1.19477 5.08311 2.11503 3.33571C2.59085 2.43467 3.17386 1.61175 3.97386 0.960709C5.03007 0.101334 6.2536 -0.122624 7.56078 0.101334C8.57516 0.275813 9.58954 0.484147 10.5804 0.757584C12.1595 1.19508 13.715 1.22633 15.3046 0.788834C16.4261 0.481543 17.5739 0.247168 18.7216 0.0570634C19.6758 -0.0991866 20.6092 0.0596676 21.4641 0.554459C22.3216 1.04925 22.9412 1.77842 23.4719 2.58831C24.2275 3.74196 24.6876 5.02581 25.0667 6.33831C25.6758 8.44248 26.0314 10.5883 26 12.7836C25.9895 13.5336 25.932 14.281 25.6993 15.0024C25.451 15.781 25.0641 16.4581 24.2719 16.8045C24.0654 16.8956 23.8379 16.9347 23.6209 16.9972V16.9998ZM1.20261 12.505C1.20784 13.2836 1.24183 14.0545 1.49542 14.7993C1.76993 15.6039 2.3268 15.9477 3.14248 15.7107C3.64706 15.5649 4.14118 15.3383 4.59869 15.0779C5.61046 14.5024 6.4732 13.7237 7.33333 12.9529C8.0915 12.2758 8.97516 11.8279 9.9451 11.5519C11.9686 10.9789 14.0026 10.9685 16.0288 11.5519C16.9725 11.8253 17.817 12.281 18.5621 12.9373C19.315 13.5987 20.0941 14.2368 20.8993 14.8357C21.5294 15.3045 22.2222 15.6795 23.0196 15.8149C23.6235 15.9164 24.0627 15.7107 24.3425 15.1664C24.6588 14.5545 24.7556 13.8878 24.7843 13.2133C24.881 11.0206 24.5229 8.88519 23.9477 6.78102C23.5608 5.36175 23.0379 3.99717 22.1412 2.80706C21.2837 1.66904 20.1516 1.07269 18.7137 1.27842C17.6549 1.42946 16.6013 1.65863 15.566 1.92946C13.8928 2.36696 12.2405 2.41123 10.5595 1.9555C9.5268 1.67425 8.4732 1.44248 7.41699 1.27321C6.30065 1.09352 5.28889 1.37998 4.44444 2.17165C3.69412 2.87477 3.19216 3.73936 2.80523 4.66904C1.75948 7.17686 1.2549 9.79665 1.20261 12.5076V12.505Z" fill="white"/>
<path d="M6.89665 3.23687C7.78554 3.16655 8.63783 3.8202 8.81822 4.73166C8.85221 4.89572 8.91757 4.9478 9.07182 4.97645C9.91888 5.1327 10.5646 5.92437 10.5672 6.80457C10.5699 7.67437 9.95025 8.45562 9.1058 8.62489C8.92541 8.66134 8.84698 8.72124 8.80515 8.91135C8.62214 9.76551 7.8143 10.3931 6.94894 10.3775C6.05482 10.3619 5.27574 9.71343 5.12933 8.84624C5.10319 8.6926 5.02999 8.66655 4.90188 8.64051C4.00776 8.46603 3.39339 7.7577 3.35156 6.86187C3.31234 6.02853 3.8692 5.27072 4.71365 5.0103C4.78685 4.98687 4.87312 4.99728 4.93326 4.96082C5.00646 4.91655 5.10319 4.84624 5.11888 4.77332C5.31495 3.8827 5.96855 3.31239 6.89404 3.23947L6.89665 3.23687ZM6.98554 9.17957C7.34633 9.17957 7.60777 8.9478 7.65221 8.58322C7.67051 8.44259 7.66005 8.29676 7.66267 8.15614C7.67051 7.73687 7.89535 7.50509 8.31626 7.48166C8.49404 7.47124 8.67182 7.48166 8.84698 7.45822C9.19992 7.40874 9.4143 7.12489 9.40123 6.7603C9.38816 6.41916 9.13979 6.15614 8.79469 6.1327C8.64306 6.12228 8.49143 6.1327 8.33718 6.12749C7.9241 6.11707 7.68097 5.87749 7.66267 5.46864C7.65482 5.28374 7.65744 5.09624 7.62345 4.91655C7.55548 4.56499 7.27835 4.36187 6.93326 4.38791C6.5777 4.41395 6.32149 4.66916 6.30058 5.02332C6.29273 5.15874 6.30058 5.29155 6.29796 5.42697C6.29273 5.86447 6.05482 6.10666 5.61038 6.12749C5.4509 6.1353 5.2862 6.12228 5.12933 6.14312C4.76332 6.1952 4.5411 6.46864 4.55678 6.82541C4.57247 7.15874 4.82607 7.41655 5.17901 7.44259C5.33064 7.45301 5.48227 7.44259 5.63652 7.4478C6.02084 7.45562 6.2692 7.68739 6.29535 8.06759C6.3058 8.22645 6.29535 8.38791 6.30319 8.54676C6.3241 8.92437 6.60646 9.18218 6.98554 9.17957Z" fill="white"/>
<path d="M18.62 5.63291C17.9952 5.62509 17.5063 5.11989 17.5168 4.48968C17.5272 3.86468 18.0318 3.38291 18.6645 3.39072C19.2919 3.40114 19.7782 3.90374 19.7677 4.53395C19.7599 5.15634 19.2527 5.64072 18.62 5.63291Z" fill="white"/>
<path d="M16.3291 5.67704C16.9513 5.67183 17.4663 6.17183 17.4742 6.78902C17.482 7.40621 16.9801 7.91402 16.3552 7.92444C15.7356 7.93225 15.2206 7.43225 15.2101 6.81506C15.1997 6.20048 15.7121 5.68485 16.3291 5.67965V5.67704Z" fill="white"/>
<path d="M20.9357 5.67701C21.5606 5.67441 22.0651 6.1718 22.073 6.7942C22.0782 7.41139 21.5736 7.9218 20.9488 7.92441C20.324 7.92701 19.8141 7.42701 19.8115 6.80722C19.8089 6.18743 20.3135 5.67962 20.9357 5.67701Z" fill="white"/>
<path d="M19.7673 9.08854C19.7673 9.70833 19.2601 10.2161 18.6405 10.2161C18.0209 10.2161 17.5137 9.70833 17.5137 9.08854C17.5137 8.46615 18.0182 7.96094 18.6405 7.96094C19.2601 7.96094 19.7673 8.46875 19.7673 9.08854Z" fill="white"/>
</g>
<defs>
<clipPath id="clip0_1889_3380">
<rect width="26" height="17" fill="white"/>
</clipPath>
</defs>
</svg>
