<svg width="16" height="17" viewBox="0 0 16 17" fill="none" xmlns="http://www.w3.org/2000/svg">
<g clip-path="url(#clip0_234_21)">
<path d="M4.66667 3.1665C3.2 3.1665 2 4.3665 2 5.83317C2 7.29984 3.2 8.49984 4.66667 8.49984C6.13333 8.49984 7.33333 7.29984 7.33333 5.83317C7.33333 4.3665 6.13333 3.1665 4.66667 3.1665ZM4.66667 7.1665C3.93333 7.1665 3.33333 6.5665 3.33333 5.83317C3.33333 5.09984 3.93333 4.49984 4.66667 4.49984C5.4 4.49984 6 5.09984 6 5.83317C6 6.5665 5.4 7.1665 4.66667 7.1665ZM4.66667 9.83317C2.06667 9.83317 0 11.0332 0 12.4998V13.8332H7.33333V12.4998H1.33333C1.33333 12.0998 2.53333 11.1665 4.66667 11.1665C5.86667 11.1665 6.8 11.4998 7.33333 11.8332V10.3665C6.6 10.0332 5.66667 9.83317 4.66667 9.83317ZM14.6667 3.1665H10C9.26667 3.1665 8.66667 3.7665 8.66667 4.49984V12.4998C8.66667 13.2332 9.26667 13.8332 10 13.8332H14.6667C15.4 13.8332 16 13.2332 16 12.4998V4.49984C16 3.7665 15.4 3.1665 14.6667 3.1665ZM10.6667 12.4998H10V4.49984H10.6667V12.4998ZM14.6667 12.4998H12V4.49984H14.6667V12.4998Z" fill="white"/>
</g>
<defs>
<clipPath id="clip0_234_21">
<rect width="16" height="16" fill="white" transform="translate(0 0.5)"/>
</clipPath>
</defs>
</svg>
