<svg width="54" height="63" viewBox="0 0 54 63" fill="none" xmlns="http://www.w3.org/2000/svg">
<path d="M70.8063 39.852C64.3665 30.2724 57.9267 20.6928 51.487 11.1133C48.6575 7.40886 45.8217 3.70443 42.9922 0C41.1371 0.451458 41.2808 2.45519 40.1627 3.50653C39.7567 3.70443 39.3507 3.90851 38.951 4.10641V5.10827C36.8273 5.71434 37.0209 6.82134 35.8154 8.21282C35.5468 8.31177 35.2782 8.41072 35.0034 8.51585C34.1289 9.33219 34.8035 10.6062 33.4856 11.1195C34.3101 9.46824 35.1096 7.58202 36.5212 6.51212C36.4587 5.9679 36.5649 6.07922 36.1152 5.91224C34.3725 6.98213 33.8291 9.69706 32.1739 10.9216C32.1364 11.6575 32.1427 12.0904 32.7798 12.2203C32.5049 13.2778 31.4493 14.0199 30.856 14.8239C28.8322 17.4584 26.8084 20.0991 24.7847 22.7337C18.9508 30.829 13.804 39.6479 7.99506 47.7679C6.53971 49.8088 2.59839 56.9826 0.306055 57.4836C0.206117 58.0154 0.106184 58.5534 0 59.0853C5.40916 59.1286 11.4304 58.9802 16.5835 58.9863C16.7209 59.2523 16.8521 59.5182 16.9895 59.7903H17.3955V58.8874C22.5174 58.7514 27.6454 58.6215 32.7673 58.4854C33.1295 59.2523 32.9984 61.2808 32.7673 61.893C32.5424 62.227 32.43 62.2084 31.8553 62.196C31.8241 62.3321 31.7866 62.462 31.7554 62.598V62.697C32.074 62.8949 32.0989 62.9691 32.6673 63C33.4606 61.6147 33.0733 60.6623 33.3731 58.7946C35.3907 58.337 38.4075 58.0896 40.956 58.2937C41.8991 58.3246 42.8423 58.3617 43.7855 58.3927C45.4282 58.0216 47.833 58.5225 49.7505 58.1948C55.3783 58.1638 61.0123 58.1267 66.6401 58.0958C72.1929 58.0958 77.8082 59.1039 81 56.7971C80.8126 55.016 79.0949 53.272 78.2704 51.8929C75.8095 47.7865 73.3984 43.7605 70.7876 39.8767L70.8063 39.852ZM9.719 50.1675C9.71275 49.8088 9.70651 49.9077 9.81894 49.5676H10.2249C10.2562 49.6665 10.2936 49.7655 10.3249 49.8706C10.0688 50.2355 10.1687 50.2293 9.719 50.1737V50.1675ZM15.0844 49.5676C15.0157 49.4315 14.947 49.3017 14.8846 49.1656C15.022 49.2336 15.1532 49.3017 15.2906 49.3635C15.2219 49.4315 15.1531 49.4996 15.0907 49.5614L15.0844 49.5676ZM53.6169 38.5471C53.7168 38.5161 53.8168 38.479 53.923 38.4481H54.229C54.0229 38.6522 54.0479 38.6151 53.6232 38.646V38.5471H53.6169ZM34.7036 26.636C37.7455 23.2037 40.575 20.0497 43.0984 16.0237H43.4045C44.5537 16.8771 45.2596 18.2933 46.134 19.4312C48.5325 22.5296 52.224 25.1394 53.011 29.7467V29.8457C51.918 30.3404 50.3065 29.9323 48.8636 30.1487C43.6043 30.3157 38.3451 30.4827 33.0858 30.6497C32.3238 29.3509 33.954 27.4894 34.7036 26.6422V26.636ZM31.974 36.0486C32.1427 35.8816 32.3113 35.7146 32.48 35.5477C32.7485 35.5786 33.0171 35.6157 33.2919 35.6466C33.4918 35.962 33.5668 35.9867 33.598 36.5495C33.5668 36.6176 33.5293 36.6856 33.4981 36.7474C32.9484 37.0938 32.5674 37.0505 31.9803 36.7474V36.0486H31.974ZM30.1501 37.7493H30.756C30.7872 37.9843 30.8247 38.2193 30.856 38.4481C30.756 38.5471 30.6561 38.646 30.5499 38.7512H30.2438C30.1751 38.6522 30.1064 38.5533 30.044 38.4481C30.0752 38.2131 30.1127 37.9781 30.1439 37.7493H30.1501ZM30.6561 55.6715H30.35C30.044 55.4798 30.1814 55.653 30.044 55.2696C30.1439 55.1335 30.2438 55.0036 30.35 54.8676C30.5874 54.8985 30.8247 54.9356 31.0558 54.9665C31.0871 55.1026 31.1245 55.2325 31.1558 55.3685C30.9496 55.585 31.0184 55.5602 30.6498 55.6715H30.6561ZM38.039 54.1687H37.633C37.5331 54.0018 37.4332 53.8348 37.327 53.6678V52.7649H38.0328C38.3138 53.136 38.47 53.136 38.5387 53.7668C38.3701 53.9028 38.2014 54.0327 38.0328 54.1687H38.039ZM59.076 49.7655C56.5838 49.0357 52.2615 49.3635 48.8636 49.3635C42.4613 49.4625 36.0527 49.5614 29.6504 49.6665C26.7647 49.8397 20.7122 50.52 18.7259 49.1656C18.626 49.0976 18.5261 49.0295 18.4199 48.9677C19.2506 46.964 22.5673 41.6331 24.4911 41.0579C25.5342 41.027 26.5836 40.9899 27.6267 40.959C31.3494 40.1179 34.4163 41.2373 37.9453 40.3591C39.0946 40.2725 40.3876 40.0622 40.575 41.0579C40.7124 41.1569 40.8435 41.2558 40.9809 41.361C41.1558 41.0641 41.1808 40.9528 41.0809 40.557C42.3988 39.9633 44.3726 40.557 45.6343 40.0561C50.7562 40.1241 55.8843 40.1921 61.0061 40.2539C61.4496 40.6807 62.2803 41.2682 62.1179 41.9546C62.4864 42.4247 62.7925 42.134 63.3297 42.4556C64.3977 43.0864 67.1023 47.0258 67.3772 48.4668C66.84 49.2893 60.5501 50.1984 59.0823 49.7655H59.076Z" fill="#E96200"/>
</svg>
