<?xml version="1.0" encoding="UTF-8"?>
<svg id="Layer_2" data-name="Layer 2" xmlns="http://www.w3.org/2000/svg" viewBox="0 0 220.09 254.24">
  <defs>
    <style>
      .cls-1 {
        fill: #80a800;
      }
    </style>
  </defs>
  <g id="Layer_1-2" data-name="Layer 1">
    <g>
      <path class="cls-1" d="M215.47,33.13c-.17.17-.34.34-.51.51.17.09.34.17.51.26,1.03-1.37,2.05-2.74,3.08-4.11h1.54v-1.54h-1.28c-1.44,1.07-2.67,3.1-3.34,4.88Z"/>
      <path class="cls-1" d="M218.8,35.7h1.28v-.77h-2.05c.26.26.51.51.77.77Z"/>
      <path class="cls-1" d="M215.21,79.1c.56,2.6,2.11,6.13,4.88,6.68v-1.8h-1.28c-1-1.57-1.63-4.22-3.6-4.88Z"/>
      <path class="cls-1" d="M216.49,66.77c.68.17,1.37.34,2.05.51h1.54v-1.03c-1.2-.17-2.4-.34-3.6-.51v1.03Z"/>
      <path class="cls-1" d="M218.8,96.82c-.51-.41-.35-.35-1.28-.51v.77h1.28v-.26Z"/>
      <path class="cls-1" d="M219.32,98.1c-.43.77-.86,1.54-1.28,2.31v.26c.68-.51,1.37-1.03,2.05-1.54-.35-.97,0-.53-.77-1.03Z"/>
      <path class="cls-1" d="M219.06,102.73l.51.26h.26c-.33-.77.01-.31-.51-.77-.09.17-.17.34-.26.51Z"/>
      <path class="cls-1" d="M216.49,119.42c.26-.34.51-.68.77-1.03-.34-.26-.68-.51-1.03-.77-.26.34-.51.68-.77,1.03v.77h1.03Z"/>
      <path class="cls-1" d="M216.24,42.37h-.77v1.28h.26c.17-.09.34-.17.51-.26v-1.03Z"/>
      <path class="cls-1" d="M215.72,99.39h-.51c.46.23.07.25.51,0Z"/>
      <path class="cls-1" d="M216.24,128.66h.77c.52-.46.19,0,.51-.77v-.26c-.6-.17-1.2-.34-1.8-.51-.19.98-.27.92.51,1.54Z"/>
      <path class="cls-1" d="M9.5,209.56c.09.34.17.68.26,1.03h.51c.17-.17.34-.34.51-.51-.17-.17-.34-.34-.51-.51h-.77Z"/>
      <path class="cls-1" d="M94.51,118.39h1.03c.51-2.22.1-4.66-2.05-5.14-.26.26-.51.51-.77.77.26,1.2.51,2.4.77,3.6.34.26.68.51,1.03.77Z"/>
      <path class="cls-1" d="M84.49,113.51c-.43-.17-.86-.34-1.28-.51-.17.34-.34.68-.51,1.03v.26c.51.17,1.03.34,1.54.51.09-.43.17-.86.26-1.28Z"/>
      <path class="cls-1" d="M214.44,47c.6.82.48.83,1.8,1.03h.26c.17-.26.34-.51.51-.77-.8-.76-.68-.94-2.31-1.03-.09.26-.17.51-.26.77Z"/>
      <path class="cls-1" d="M58.55,149.21c.44-2.47.35-5.72,1.03-7.7-.26-.17-.51-.34-.77-.51-2.03,3.99-5.88,6.85-7.7,11.04.09.26.17.51.26.77,2.87-.33,5.28-2.19,7.19-3.6Z"/>
      <path class="cls-1" d="M65.74,250.39c-.26.17-.51.34-.77.51.43,3.71,2.52,2.82,6.16,2.57,1.11-3.6-2.56-3.14-5.39-3.08Z"/>
      <path class="cls-1" d="M74.48,251.68c-.43.34-.86.68-1.28,1.03v1.03c.17.17.34.34.51.51h1.28c.34-.43.68-.86,1.03-1.28-.09-.34-.17-.68-.26-1.03-.43-.09-.86-.17-1.28-.26Z"/>
      <path class="cls-1" d="M120.19,193.38c-.16-4.01-1.65-7.23-3.34-9.76-.43-.09-.86-.17-1.28-.26-.33,2.58,2.57,7.11,3.6,9.76.34.09.68.17,1.03.26Z"/>
      <path class="cls-1" d="M21.06,248.59v1.28c.77.26,1.54.51,2.31.77.26-.26.51-.51.77-.77-.17-.34-.34-.68-.51-1.03-.86-.09-1.71-.17-2.57-.26Z"/>
      <path class="cls-1" d="M22.86,189.53h-.51c-.26.43-.51.86-.77,1.28-.17.17-.34.34-.51.51,1.13.17,1.56-.36,1.8-1.8Z"/>
      <path class="cls-1" d="M26.19,186.19v-.51h-1.03c-.09.26-.17.51-.26.77.34.26.68.51,1.03.77.17-.09.34-.17.51-.26-.09-.26-.17-.51-.26-.77Z"/>
      <path class="cls-1" d="M128.41,161.28c.17-.34.34-.68.51-1.03,1.33-3.29-4.41-9.83-6.68-10.53-.31,2.64,3.32,10.96,6.16,11.56Z"/>
      <path class="cls-1" d="M26.45,250.14c-.09.34-.17.68-.26,1.03.17.26.34.51.51.77.26-.09.51-.17.77-.26h.51c-.09-.34-.17-.68-.26-1.03-.52-.53-.25-.37-1.28-.51Z"/>
      <path class="cls-1" d="M27.48,200.06c-.09.51-.17,1.03-.26,1.54l.51.26h1.03v-1.28c-.52-.53-.25-.37-1.28-.51Z"/>
      <path class="cls-1" d="M113.51,172.84c.09-.86.17-1.71.26-2.57-.26-.17-.51-.34-.77-.51h-.77c-.36.61-.44.67-.51,1.8.26.43.51.86.77,1.28h1.03Z"/>
      <path class="cls-1" d="M130.97,215.98h.77c-1.37-6.38-7.03-10.31-10.02-15.41-1.8-3.94-3.6-7.88-5.39-11.81-5.56-9.48-10.53-19.54-15.15-30.05-2.91-6.33-5.82-12.67-8.73-19l-1.54-.77c-1.54,1.71-3.08,3.42-4.62,5.14-1.53-2.82-1.44-5.19-5.65-5.39-.09.26-.17.51-.26.77,1.61,1.74,3.79,2.89,5.14,4.88-.33,5.72-9.86,16.53-12.84,21.32-10.61,17.03-23.11,35.05-31.59,53.42v1.28c14.48,3.09,30.48,1.68,47.25,2.05,14.21.26,28.42.51,42.63.77.17-.17.34-.34.51-.51-.74-5.97-5.46-10.17-7.19-15.67,1.97,2.82,3.94,5.65,5.91,8.47.26.17.51.34.77.51ZM58.81,220.09v-.26c.34-.09.68-.17,1.03-.26,6.54-.02,14.02-.54,19.77.51.09.17.17.34.26.51-7.02-.17-14.04-.34-21.06-.51Z"/>
      <path class="cls-1" d="M208.53,4.37c.09-.43.17-.86.26-1.28h-.77c-.09.43-.17.86-.26,1.28h.77Z"/>
      <path class="cls-1" d="M176.17,122.5c.17-.51.34-1.03.51-1.54-.34-.17-.68-.34-1.03-.51-.26.17-.51.34-.77.51h.51l-.51.26c.36.99-.42,1.02,1.28,1.28Z"/>
      <path class="cls-1" d="M177.46,69.6c-.17.51-.34,1.03-.51,1.54.17.26.34.51.51.77.34.09.68.17,1.03.26.34-.26.68-.51,1.03-.77-.09-.43-.17-.86-.26-1.28-.6-.17-1.2-.34-1.8-.51Z"/>
      <path class="cls-1" d="M179.77,125.58c.17-.09.34-.17.51-.26-.09-.43-.17-.86-.26-1.28-.34-.17-.68-.34-1.03-.51.09.43.17.86.26,1.28.17.26.34.51.51.77Z"/>
      <path class="cls-1" d="M216.75,6.16c-.26.34-.51.68-.77,1.03v.77c.51-.09,1.03-.17,1.54-.26.17-.34.34-.68.51-1.03-.17-.17-.34-.34-.51-.51h-.77Z"/>
      <path class="cls-1" d="M210.33,1.03h1.03c.77-.49.43-.04.77-1.03h-1.03c-.26.34-.51.68-.77,1.03Z"/>
      <path class="cls-1" d="M4.37,231.65c-1.42,1.57-2.05.74-3.6,1.54-.26.17-.51.34-.77.51.09.34.17.68.26,1.03,2.1.28,2.37.23,4.62.51,1.32-.56,1.81-.6,2.05-2.31-.43-.34-.86-.68-1.28-1.03-.43-.09-.86-.17-1.28-.26Z"/>
      <path class="cls-1" d="M3.08,241.66c-.09.43-.17.86-.26,1.28.93,1.37,1.79,2.31,3.34,3.08.26-.26.51-.51.77-.77-.84-1.62-1.83-3.13-3.85-3.6Z"/>
    </g>
  </g>
</svg>