<svg width="31" height="31" viewBox="0 0 31 31" fill="none" xmlns="http://www.w3.org/2000/svg">
<path d="M20.6667 11.6249C21.3182 12.4934 21.7402 13.512 21.8938 14.5867M25.0119 7.27975C26.6639 8.93084 27.7803 11.0413 28.2155 13.336C28.6507 15.6308 28.3846 18.0034 27.4518 20.1448M2.58337 2.58325L28.4167 28.4166M9.04171 9.04159L8.2835 9.79979C8.11481 9.96949 7.91413 10.104 7.69307 10.1956C7.47201 10.2872 7.23498 10.334 6.99571 10.3333H3.87504C3.53247 10.3333 3.20393 10.4693 2.96169 10.7116C2.71946 10.9538 2.58337 11.2823 2.58337 11.6249V19.3749C2.58337 19.7175 2.71946 20.046 2.96169 20.2883C3.20393 20.5305 3.53247 20.6666 3.87504 20.6666H6.99571C7.23498 20.6659 7.47201 20.7127 7.69307 20.8042C7.91413 20.8958 8.11481 21.0303 8.2835 21.2L12.6532 25.571C12.7806 25.6987 12.9429 25.7856 13.1197 25.8208C13.2966 25.8561 13.4799 25.838 13.6464 25.769C13.813 25.7 13.9553 25.5831 14.0553 25.4331C14.1554 25.2831 14.2086 25.1068 14.2084 24.9265V14.2083M12.6945 5.38875C12.8184 5.26443 12.9764 5.17968 13.1485 5.14525C13.3205 5.11082 13.499 5.12826 13.6611 5.19536C13.8233 5.26247 13.9618 5.37621 14.0593 5.52216C14.1567 5.66812 14.2086 5.83972 14.2084 6.01521V6.90129" stroke="white" stroke-width="2" stroke-linecap="round" stroke-linejoin="round"/>
</svg>
