<svg width="31" height="31" viewBox="0 0 31 31" fill="none" xmlns="http://www.w3.org/2000/svg">
<path d="M20.6668 11.625C21.5053 12.7429 21.9585 14.1026 21.9585 15.5C21.9585 16.8973 21.5053 18.257 20.6668 19.375M25.012 23.7201C26.0915 22.6406 26.9478 21.3591 27.532 19.9487C28.1162 18.5383 28.4169 17.0266 28.4169 15.5C28.4169 13.9733 28.1162 12.4616 27.532 11.0512C26.9478 9.64081 26.0915 8.35927 25.012 7.27979M14.2085 6.07337C14.2082 5.89346 14.1547 5.71765 14.0546 5.56814C13.9545 5.41863 13.8124 5.30212 13.6462 5.23331C13.4799 5.16449 13.2971 5.14646 13.1206 5.18149C12.9441 5.21652 12.782 5.30303 12.6546 5.43012L8.28362 9.79983C8.11494 9.96952 7.91425 10.1041 7.69319 10.1956C7.47213 10.2872 7.2351 10.334 6.99583 10.3333H3.87516C3.53259 10.3333 3.20405 10.4694 2.96182 10.7116C2.71958 10.9538 2.5835 11.2824 2.5835 11.625V19.375C2.5835 19.7175 2.71958 20.0461 2.96182 20.2883C3.20405 20.5305 3.53259 20.6666 3.87516 20.6666H6.99583C7.2351 20.6659 7.47213 20.7127 7.69319 20.8043C7.91425 20.8959 8.11494 21.0304 8.28362 21.2001L12.6533 25.5711C12.7807 25.6987 12.9431 25.7856 13.1199 25.8209C13.2967 25.8561 13.48 25.8381 13.6465 25.769C13.8131 25.7 13.9554 25.5831 14.0554 25.4331C14.1555 25.2831 14.2087 25.1068 14.2085 24.9265V6.07337Z" stroke="white" stroke-width="2.58333" stroke-linecap="round" stroke-linejoin="round"/>
</svg>
