<svg width="42" height="41" viewBox="0 0 42 41" fill="none" xmlns="http://www.w3.org/2000/svg">
<path d="M15.8754 25.6252L26.1254 15.3752M19.2921 10.2502L20.083 9.33453C21.6851 7.73267 23.8579 6.83285 26.1234 6.83301C28.389 6.83317 30.5616 7.7333 32.1635 9.33538C33.7653 10.9375 34.6652 13.1103 34.665 15.3758C34.6649 17.6413 33.7647 19.814 32.1626 21.4159L31.2504 22.2085M22.7087 30.7502L22.0305 31.6624C20.4093 33.2644 18.222 34.1627 15.9429 34.1627C13.6637 34.1627 11.4764 33.2644 9.85522 31.6624C9.05591 30.8728 8.42131 29.9323 7.98818 28.8955C7.55506 27.8587 7.33203 26.7463 7.33203 25.6226C7.33203 24.499 7.55506 23.3866 7.98818 22.3498C8.42131 21.313 9.05591 20.3725 9.85522 19.5828L10.7504 18.7919" stroke="white" stroke-width="3.41667" stroke-linecap="round" stroke-linejoin="round"/>
</svg>
