<svg width="42" height="41" viewBox="0 0 42 41" fill="none" xmlns="http://www.w3.org/2000/svg">
<path d="M33.0436 8.38833C31.4772 6.8066 29.6116 5.55244 27.5556 4.69895C25.4996 3.84546 23.2943 3.40971 21.0682 3.41708C11.7407 3.41708 4.13862 11.0192 4.13862 20.3467C4.13862 23.3363 4.92445 26.2404 6.39362 28.8029L4.00195 37.5838L12.9707 35.2263C15.4478 36.5758 18.2324 37.2933 21.0682 37.2933C30.3957 37.2933 37.9978 29.6913 37.9978 20.3638C37.9978 15.8367 36.2382 11.5829 33.0436 8.38833ZM21.0682 34.4233C18.5399 34.4233 16.0628 33.74 13.8932 32.4588L13.3807 32.1513L8.0507 33.5521L9.46862 28.3588L9.12695 27.8292C7.72193 25.5862 6.97603 22.9933 6.97445 20.3467C6.97445 12.5908 13.2953 6.27 21.0511 6.27C24.8095 6.27 28.3457 7.73917 30.9936 10.4042C32.305 11.7091 33.3441 13.2614 34.0509 14.9711C34.7576 16.6808 35.1179 18.5138 35.1107 20.3638C35.1449 28.1196 28.824 34.4233 21.0682 34.4233ZM28.7899 23.9C28.3628 23.695 26.2786 22.67 25.9028 22.5163C25.5099 22.3796 25.2365 22.3113 24.9461 22.7213C24.6557 23.1483 23.8528 24.105 23.6136 24.3783C23.3745 24.6688 23.1182 24.7029 22.6911 24.4808C22.264 24.2758 20.8974 23.8146 19.2915 22.3796C18.0274 21.2521 17.1903 19.8683 16.934 19.4413C16.6949 19.0142 16.8999 18.7921 17.122 18.57C17.3099 18.3821 17.549 18.0746 17.754 17.8354C17.959 17.5963 18.0445 17.4083 18.1811 17.135C18.3178 16.8446 18.2495 16.6054 18.147 16.4004C18.0445 16.1954 17.1903 14.1113 16.8486 13.2571C16.507 12.4371 16.1482 12.5396 15.892 12.5225H15.072C14.7815 12.5225 14.3374 12.625 13.9445 13.0521C13.5686 13.4792 12.4753 14.5042 12.4753 16.5883C12.4753 18.6725 13.9957 20.6883 14.2007 20.9617C14.4057 21.2521 17.1903 25.5229 21.427 27.3508C22.4349 27.795 23.2207 28.0513 23.8357 28.2392C24.8436 28.5638 25.7661 28.5125 26.5007 28.41C27.3207 28.2904 29.012 27.385 29.3536 26.3942C29.7124 25.4033 29.7124 24.5663 29.5928 24.3783C29.4732 24.1904 29.217 24.105 28.7899 23.9Z" fill="white"/>
</svg>
