<?xml version="1.0" encoding="UTF-8"?>
<svg id="Layer_2" data-name="Layer 2" xmlns="http://www.w3.org/2000/svg" viewBox="0 0 129.53 180.05">
  <defs>
    <style>
      .cls-1 {
        fill: #faaf02;
      }
    </style>
  </defs>
  <g id="Layer_1-2" data-name="Layer 1">
    <g>
      <path class="cls-1" d="M57.32,179.41v.49c.11.05.22.11.32.16.55-.34.59-.25.81-.97-.16-.05-.32-.11-.49-.16-.22.16-.43.32-.65.49Z"/>
      <path class="cls-1" d="M59.1,174.06c-.11.05-.22.11-.32.16.05.22.11.43.16.65.22.05.43.11.65.16h.16c.11-.16.22-.32.32-.49-.05-.11-.11-.22-.16-.32-.27-.05-.54-.11-.81-.16Z"/>
      <path class="cls-1" d="M17.81,122.73v-.65h-.49c-.11.22-.22.43-.32.65l.49.32c.11-.11.22-.22.32-.32Z"/>
      <path class="cls-1" d="M55.21,170.34c.27.16.54.32.81.49l.32-.16v-.49c-.38-.11-.76-.22-1.13-.32v.49Z"/>
      <path class="cls-1" d="M32.06,139.41c.32.05.65.11.97.16h.16c.11-.22.22-.43.32-.65v-.16c-.43-.05-.86-.11-1.3-.16-.05.27-.11.54-.16.81Z"/>
      <path class="cls-1" d="M16.35,125.49c-.11.22-.22.43-.32.65.54.65,1.08,1.3,1.62,1.94.11.05.22.11.32.16h.49v-.49c-.44-.6-.79-.86-.97-1.78-.38-.16-.76-.32-1.13-.49Z"/>
      <path class="cls-1" d="M73.51,168.56c.2.82.29.94,1.13,1.13-.3-.61-.42-.89-1.13-1.13Z"/>
      <path class="cls-1" d="M73.35,170.5c-.11.16-.22.32-.32.49v.65c.32.05.65.11.97.16.16-.22.32-.43.49-.65.26-.32.22-.22.32-.81-.27-.05-.54-.11-.81-.16-.22.11-.43.22-.65.32Z"/>
      <path class="cls-1" d="M65.9,176.81c.05.16.11.32.16.49h.65c.16-.16.32-.32.49-.49v-.65c-.27-.05-.54-.11-.81-.16-.16.27-.32.54-.49.81Z"/>
      <path class="cls-1" d="M64.93,179.08h.16c.46-.48.51-.3.16-.81-.11.27-.22.54-.32.81Z"/>
      <path class="cls-1" d="M12.14,113.67h.49c.43-.35.46-.32.65-.97h-.49c-.38.4-.45.3-.65.97Z"/>
      <path class="cls-1" d="M8.42,117.71h-.49c.25,1.23,3.44,5.58,4.37,6.48.16.05.32.11.49.16.05-.05.11-.11.16-.16-.42-1.27-3.46-5.67-4.53-6.48Z"/>
      <path class="cls-1" d="M11.66,115.93c-.16.16-.32.32-.49.49v.49c.11.05.22.11.32.16.27-.27.54-.54.81-.81-.22-.11-.43-.22-.65-.32Z"/>
      <path class="cls-1" d="M14.09,126.3c-.11.16-.22.32-.32.49.05.11.11.22.16.32h.32c.11-.05.22-.11.32-.16-.22-.61,0-.33-.49-.65Z"/>
      <path class="cls-1" d="M14.73,114.96c-.16.32-.32.65-.49.97h.49c.16-.11.32-.22.49-.32-.22-.61,0-.33-.49-.65Z"/>
      <path class="cls-1" d="M78.85,159.17v1.46h.65c.25-.86.25-1.22-.65-1.46Z"/>
      <path class="cls-1" d="M85.17,157.22c.16-.05.32-.11.49-.16v-.65h-.97c.18.69.05.45.49.81Z"/>
      <path class="cls-1" d="M80.31,157.06c-.05.87-.11,1-.49,1.46v.16c.11.05.22.11.32.16.32-.43.65-.86.97-1.3-.33-.35-.22-.31-.81-.49Z"/>
      <path class="cls-1" d="M75.78,165.16v.16c.41.34.24.34.97.49.47-.39.51-.34.65-1.13-.32-.05-.65-.11-.97-.16-.22.22-.43.43-.65.65Z"/>
      <path class="cls-1" d="M90.84,148.48c-.16.22-.32.43-.49.65.16.16.32.32.49.49.16-.16.32-.32.49-.49-.22-.61,0-.33-.49-.65Z"/>
      <path class="cls-1" d="M58.61,91.65c.11.11.22.22.32.32l.32-.16c.05-.11.11-.22.16-.32v-.16h-.65c-.05.11-.11.22-.16.32Z"/>
      <path class="cls-1" d="M69.3,139.74c.29-.21.09-.17.16-.32-.05.11-.11.22-.16.32Z"/>
      <path class="cls-1" d="M70.11,140.22c.05.16.11.32.16.49.22-.05.43-.11.65-.16.05-.16.11-.32.16-.49-.27-.05-.54-.11-.81-.16-.05.11-.11.22-.16.32Z"/>
      <path class="cls-1" d="M68.33,127.27c.79,1.17,2.47,2.25,3.4.65-1.51.3-1.65-.54-3.24-.97-.05.11-.11.22-.16.32Z"/>
      <path class="cls-1" d="M74.97,128.4c-.49-1.13-.97-2.27-1.46-3.4.54-.27,1.08-.54,1.62-.81v-.32c-.11-.11-.22-.22-.32-.32h-.49c-.62.47-1.07.36-1.94.49.16.49.32.97.49,1.46-.37.55-.59.74-1.3.97-.05.11-.11.22-.16.32v.16c.7-.11,1.4-.22,2.1-.32.11.11.22.22.32.32v.65c-.54.05-1.08.11-1.62.16-.31.57-.09,1.76-.49,2.27-.58.74-1.21.51-1.62,1.62-.32.38-.65.76-.97,1.13.7-.43,1.4-.86,2.1-1.3h.49c-.11,1.07-.38,1.28-.81,1.94.38.65.76,1.3,1.13,1.94.11.11.22.22.32.32-1.09.56-1.31.88-2.1,1.62.8.69,1.62.72,2.1,1.78.68-.25.4.03.65-.65-.43-.54-.86-1.08-1.3-1.62.42-.34.86-.38,1.46-.16.35-.33.31-.22.49-.81-.49-.54-.97-1.08-1.46-1.62-.51-1.28.71-4.18.97-5.18.59-.22,1.19-.43,1.78-.65Z"/>
      <path class="cls-1" d="M69.14,140.38c.16.22.32.43.49.65-.22-.48-.1-.36-.49-.65Z"/>
      <path class="cls-1" d="M75.78,122.25c-.22.16-.43.32-.65.49v.16h.16c.52-.35.39-.3.49-.65Z"/>
      <path class="cls-1" d="M77.4,121.44c-.22.11-.43.22-.65.32-.08.86.36.92.49,2.1-.49.11-.97.22-1.46.32-.19.7-.1,1.24-.65,1.62-.11.22-.22.43-.32.65.59-.05,1.19-.11,1.78-.16.49-.48.65-.41.81-1.3.43.11.86.22,1.3.32.11-.11.22-.22.32-.32-.6-1.31-.34-2.79-1.62-3.56Z"/>
      <path class="cls-1" d="M73.67,121.6c.05-.11.11-.22.16-.32-.37-.48-.43-.61-1.13-.81.16.32.32.65.49.97.16.05.32.11.49.16Z"/>
      <path class="cls-1" d="M74.97,135.04h.65c.27-.65.54-1.3.81-1.94v-.16c-.32-.05-.65-.11-.97-.16-.13,1.15-.57,1.45-.49,2.27Z"/>
      <path class="cls-1" d="M78.21,130.99v-.16l-.65-.16c.32.33.06.18.65.32Z"/>
      <path class="cls-1" d="M85.17,113.18c-.22.43-.43.86-.65,1.3h1.3c-.05-.38-.11-.76-.16-1.13-.16-.05-.32-.11-.49-.16Z"/>
      <path class="cls-1" d="M61.85,139.25v.16c.27.05.54.11.81.16h.16c.11-.22.22-.43.32-.65v-.16c-.32-.05-.65-.11-.97-.16-.11.22-.22.43-.32.65Z"/>
      <path class="cls-1" d="M56.51,136.5c-.05.11-.11.22-.16.32.29-.21.09-.17.16-.32Z"/>
      <path class="cls-1" d="M54.4,130.18c.11-.05.22-.11.32-.16.24-1.43.2-2.12-.16-3.4h-.49c-.06,1,.46,2.01,0,3.24.11.11.22.22.32.32Z"/>
      <path class="cls-1" d="M59.91,147.35c-.11.16-.22.32-.32.49v.65c.5.24.53.28,1.13.16.05-.16.11-.32.16-.49-.16-.27-.32-.54-.49-.81h-.49Z"/>
      <path class="cls-1" d="M53.27,136.82c.05.16.11.32.16.49,1.01-.11,1.07-.34,1.78-.65.05-.11.11-.22.16-.32-.49-.16-.97-.32-1.46-.49-.22.32-.43.65-.65.97Z"/>
      <path class="cls-1" d="M70.92,123.06v.32c.65-.05,1.3-.11,1.94-.16.11-.22.22-.43.32-.65h-.32c-.48.45-.93.52-1.94.49Z"/>
      <path class="cls-1" d="M53.27,140.87c.29.56.25.4.81.65h.16v-1.13h-.65c-.11.16-.22.32-.32.49Z"/>
      <path class="cls-1" d="M60.23,138.6c-.05-.22-.11-.43-.16-.65-.32-.05-.65-.11-.97-.16v.65c.32.11.65.22.97.32.05-.05.11-.11.16-.16Z"/>
      <path class="cls-1" d="M68.98,133.74c-.54.54-1.08,1.08-1.62,1.62-.05.22-.11.43-.16.65.65-.54,1.3-1.08,1.94-1.62.03-.55.2-.23-.16-.65Z"/>
      <path class="cls-1" d="M64.44,132.77l.65.16v-.81c-.32-.11-.65-.22-.97-.32-.12.62-.17.58.32.97Z"/>
      <path class="cls-1" d="M77.07,117.71c-.16-.05-.32-.11-.49-.16-.16.11-.32.22-.49.32-.11.32-.22.65-.32.97.39.62.16.7.97.97-.24-.53-.32-.44-.65-.81.43-.52.73-.53.97-1.3Z"/>
      <path class="cls-1" d="M83.23,116.91c.39.31.82.35,1.62.32.28-.77.8-1.41.65-2.1-.7.75-1.46,1.11-2.27,1.78Z"/>
      <path class="cls-1" d="M53.92,125.49c-.22-.11-.43-.22-.65-.32-.27.7-.54,1.4-.81,2.1.11.11.22.22.32.32.27-.22.54-.43.81-.65.11-.49.22-.97.32-1.46Z"/>
      <path class="cls-1" d="M82.09,113.5c.34,1.03,1.1.8,1.62,1.62h.49c-.42-.76-.93-1.44-1.78-1.78-.11.05-.22.11-.32.16Z"/>
      <path class="cls-1" d="M88.89,112.86c.38-.54.76-1.08,1.13-1.62-.33-.35-.22-.31-.81-.49-.11.05-.22.11-.32.16-.22.54-.43,1.08-.65,1.62.05.11.11.22.16.32h.49Z"/>
      <path class="cls-1" d="M80.15,120.14c-.51.82-.91,1.6-.97,2.91.27.05.54.11.81.16.31-1.36.31-1.54.97-2.59-.05-.16-.11-.32-.16-.49h-.65Z"/>
      <path class="cls-1" d="M79.18,128.56v.65c.22.11.43.22.65.32,2.04-1.82,3.94-3.85,5.18-6.48l-.65-.32c-1.39,2.38-2.6,4.64-5.18,5.83Z"/>
      <path class="cls-1" d="M80.15,119.66c-.38-.52-.3-.52-1.13-.65.32.53.4.53,1.13.65Z"/>
      <path class="cls-1" d="M77.4,117.71c.69.65,1.8.72,3.24.65.05-.05.11-.11.16-.16v-.16c-1.03-.22-2.05-.43-3.08-.65-.11.11-.22.22-.32.32Z"/>
      <path class="cls-1" d="M80.8,113.99c-.65.71-1.33,1.15-1.62,2.27.27.22.54.43.81.65.43.05.86.11,1.3.16.11-.05.22-.11.32-.16.11-.16.22-.32.32-.49-.43.05-.86.11-1.3.16-.22-.22-.43-.43-.65-.65.43-.65.86-1.3,1.3-1.94h-.49Z"/>
      <path class="cls-1" d="M87.76,111.08c-.16.22-.32.43-.49.65l.32.32c.22-.43.43-.86.65-1.3-.38-.59-.76-1.19-1.13-1.78.22-.16.43-.32.65-.49-.11-.11-.22-.22-.32-.32h-.49c-.11.16-.22.32-.32.49.13,1.32.61,1.58,1.13,2.43Z"/>
      <path class="cls-1" d="M82.9,111.89c.58-.32,1.1-1.41,1.46-1.94,1.08.02,1.38.06,1.62.97h.32c.16-.27.32-.54.49-.81-.45-.6-.65-.85-1.62-.97-1.09.68-1.75,1.07-2.59,1.94.11.58.06.49.32.81Z"/>
      <path class="cls-1" d="M87.44,107.03c.11-.05.22-.11.32-.16v-.49c-.46-.4-.41-.59-1.13-.81.11.32.22.65.32.97.16.16.32.32.49.49Z"/>
      <path class="cls-1" d="M83.06,107.84c.11-.11.22-.22.32-.32h-.32v.32Z"/>
      <path class="cls-1" d="M75.94,131.96c.11-.05.22-.11.32-.16v-.49c-.27-.16-.54-.32-.81-.49-.14.68-.13.78.49,1.13Z"/>
      <path class="cls-1" d="M16.52,116.91c-.22.32-.43.65-.65.97.16.16.32.32.49.49.16-.05.32-.11.49-.16.11-.32.21-.64.32-.96,0,0-.01-.02-.02-.03-.21-.1-.42-.21-.62-.31Z"/>
      <path class="cls-1" d="M100.07,102.17c.76-.21.76-.21.97-.97h-.49c-.16.32-.32.65-.49.97Z"/>
      <path class="cls-1" d="M105.57,94.24c.16-.05.32-.11.49-.16.11-.22.22-.43.32-.65v-.16c-.38-.05-.76-.11-1.13-.16-.11.27-.22.54-.32.81.05.05.11.11.16.16.16.05.32.11.49.16Z"/>
      <path class="cls-1" d="M52.95,128.56c-.22.43-.43.86-.65,1.3.6-.27.38-.06.65-.65.16-.22.32-.43.49-.65h-.49Z"/>
      <path class="cls-1" d="M100.39,89.38c-.05.16-.11.32-.16.49.23-.32.13-.25.16-.49Z"/>
      <path class="cls-1" d="M101.52,93.59h.16c-.22-.59-.43-1.19-.65-1.78.11-.05.22-.11.32-.16.49.27.97.54,1.46.81v-.16c-.53-.65-1.25-.81-2.1-1.13-.16.16-.32.32-.49.49.08,1.22.47,1.51,1.3,1.94Z"/>
      <path class="cls-1" d="M102.01,95.69c.05.11.11.22.16.32l.49-.16c.22-.22.43-.43.65-.65-.27-.05-.54-.11-.81-.16-.16.22-.32.43-.49.65Z"/>
      <path class="cls-1" d="M102.33,103.95c.05.05.11.11.16.16l.65-.16h.32v-.81c-.32-.11-.65-.22-.97-.32-.05.38-.11.76-.16,1.13Z"/>
      <path class="cls-1" d="M13.44,72.54h.49c-.19-.69-2.14-3.52-2.75-3.89-.11.05-.22.11-.32.16-.23,1.45.01,2.14-.32,3.56.22-.22.43-.43.65-.65.94-.35,1.39.26,2.27.81Z"/>
      <path class="cls-1" d="M13.76,78.53l.32-.16c-.21-.8-.51-1.21-1.3-1.46-.19.93.18,1.23.97,1.62Z"/>
      <path class="cls-1" d="M14.41,76.91c.05-.11.11-.22.16-.32-.48-.59-.99-.84-1.94-.97v.32c.49.22.97.43,1.46.65.11.11.22.22.32.32Z"/>
      <path class="cls-1" d="M11.33,74.32c.05-.05.11-.11.16-.16-.24-.99-.75-1.31-1.46-1.78h-.49c.54.65,1.08,1.3,1.62,1.94h.16Z"/>
      <path class="cls-1" d="M99.74,100.23c.11-.32.22-.65.32-.97-.37-.39-.26-.36-.97-.49-.11.49-.22.97-.32,1.46.05.05.11.11.16.16.27-.05.54-.11.81-.16Z"/>
      <path class="cls-1" d="M14.41,69.79c-.22.38-.43.76-.65,1.13v.49c.54-.42.91-.85.65-1.62Z"/>
      <path class="cls-1" d="M10.36,79.02v-.49c-.16-.05-.32-.11-.49-.16-.93.76-1.49.55-2.59.16v.16c.48.44.6.34.81,1.13h.49c.59-.27,1.19-.54,1.78-.81Z"/>
      <path class="cls-1" d="M11.5,75.29c-.65-.05-1.3-.11-1.94-.16-.11.05-.22.11-.32.16v.65h2.27v-.65Z"/>
      <path class="cls-1" d="M39.67,117.39c-.05.22-.11.43-.16.65v.16c.11.05.22.11.32.16h.65c.05-.16.11-.32.16-.49-.38-.45-.18-.37-.97-.49Z"/>
      <path class="cls-1" d="M43.88,123.71c-.27.16-.54.32-.81.49.05.16.11.32.16.49.27-.11.54-.22.81-.32.11-.16.22-.32.32-.49-.16-.05-.32-.11-.49-.16Z"/>
      <path class="cls-1" d="M49.06,126.3c.05.54.11,1.08.16,1.62h.65c.16-.27.32-.54.49-.81v-.81c-.91-.34-1.33-.74-2.59-.81-.43.65-.86,1.3-1.3,1.94-.38.05-.76.11-1.13.16.09-.5.48-.7.65-1.62v-.16c-.38-.05-.76-.11-1.13-.16-.16.54-.32,1.08-.49,1.62.65.49,1.3.97,1.94,1.46-.22.49-.43.97-.65,1.46,1.38-.88,1.59-2.64,2.43-4.05h.65c.11.05.22.11.32.16Z"/>
      <path class="cls-1" d="M38.7,106.7c-.16.11-.32.22-.49.32.05.27.11.54.16.81.16.05.32.11.49.16.11-.16.22-.32.32-.49-.18-.69-.05-.45-.49-.81Z"/>
      <path class="cls-1" d="M39.67,123.06c.16.16.32.32.49.49.16-.16.32-.32.49-.49v-.65h-.65c-.11.22-.22.43-.32.65Z"/>
      <path class="cls-1" d="M49.22,117.39v.49c.16.11.32.22.49.32.11-.11.22-.22.32-.32-.37-.3-.22-.3-.81-.49Z"/>
      <path class="cls-1" d="M37.08,113.18c.17.63.06.49.49.81.22.11.43.22.65.32-.19-.87-.26-.95-1.13-1.13Z"/>
      <path class="cls-1" d="M52.14,133.1c.73-.23.59-.08.81-.81h-.32c-.3.37-.3.22-.49.81Z"/>
      <path class="cls-1" d="M50.84,128.24c-.59.22-1.19.43-1.78.65.24.87.37.95,1.46.97.11-.05.22-.11.32-.16.27-.38.54-.76.81-1.13-.11-.11-.22-.22-.32-.32h-.49Z"/>
      <path class="cls-1" d="M48.58,130.99c.54.16,1.08.32,1.62.49v-.65c-.49-.05-.97-.11-1.46-.16-.05.11-.11.22-.16.32Z"/>
      <path class="cls-1" d="M36.76,119.5c.32-.11.65-.22.97-.32v-.65h-.49c-.16.32-.32.65-.49.97Z"/>
      <path class="cls-1" d="M34.65,101.2c-.39-.3-.31-.17-1.13-.16-.05-.05-.11-.11-.16-.16.27-.81.54-1.62.81-2.43-.49-.86-.97-1.73-1.46-2.59.27-.81.54-1.62.81-2.43-.22-.11-.43-.22-.65-.32-.49.05-.97.11-1.46.16-1.01,1.83.43,2.43.16,4.21v.32c-1.82,1.16-3.8,1.35-5.51.16h-.16c.27.43.54.86.81,1.3,1.34.38,2.43.38,3.4-.32.9.1.85.13,1.13.81h.49c-.16-.38-.32-.76-.49-1.13v-.16h1.46c-.19,1.32-.88,1.38-1.46,2.27.5.32.36.15.97-.16.49.43.97.86,1.46,1.3-.04.09-.09.18-.13.27.5-.36,1-.7,1.11-.76v-.16Z"/>
      <path class="cls-1" d="M25.75,99.58c-.32-.26-.22-.22-.81-.32v.49h.81v-.16Z"/>
      <path class="cls-1" d="M28.17,96.5c-.38-.05-.76-.11-1.13-.16-.16.38-.32.76-.49,1.13v.16c.49-.05.97-.11,1.46-.16.11-.22.22-.43.32-.65-.05-.11-.11-.22-.16-.32Z"/>
      <path class="cls-1" d="M30.44,99.9h-.16c-.93.75-2.33,1.81-3.72,1.13-.27.59-.54,1.19-.81,1.78v.16c.59.01,1.41-.62,2.27-.97-.43.86-.86,1.73-1.3,2.59v.16h.16c.9-.89,1.95-1.96,2.75-2.91.43.11.86.22,1.3.32.92,1.33.4,2.1-.32,3.4.39.67.21.39.97.32.27-.97.54-1.94.81-2.91.1-.1.59-.46,1.09-.82-1.39-.22-2.78-.85-3.04-2.26Z"/>
      <path class="cls-1" d="M33.52,102.17s.02-.04.03-.05c-.02.02-.04.03-.07.05.01,0,.03,0,.04,0Z"/>
      <path class="cls-1" d="M30.93,88.25c-.22-.11-.43-.22-.65-.32-.11.11-.22.22-.32.32l.65.49.32-.16v-.32Z"/>
      <path class="cls-1" d="M35.95,104.11h-.49c-.38.4-.45.3-.65.97h.65c.16-.32.32-.65.49-.97Z"/>
      <path class="cls-1" d="M35.3,106.7c.05,1.19.11,2.37.16,3.56h.65c.11-.92.22-1.84.32-2.75-.36-.57-.34-.63-1.13-.81Z"/>
      <path class="cls-1" d="M28.17,107.84c.05.11.11.22.16.32.54-.16,1.08-.32,1.62-.49.11-.22.22-.43.32-.65h-.65c-.49.27-.97.54-1.46.81Z"/>
      <path class="cls-1" d="M34.97,115.29c.05.16.11.32.16.49h.49c.26-.32.22-.22.32-.81l-.81-.16c-.05.16-.11.32-.16.49Z"/>
      <path class="cls-1" d="M72.7,56.19h.32v-.81c-.38-.11-.76-.22-1.13-.32-.08.8-.04.69.32,1.3.16-.05.32-.11.49-.16Z"/>
      <path class="cls-1" d="M65.09,45.5c.11-.22.22-.43.32-.65-.89-.44-.74-.86-1.13-1.78-.08.95-.05,1.16.16,1.94.22.16.43.32.65.49Z"/>
      <path class="cls-1" d="M55.21,53.27v.32h.49c-.16-.11-.32-.22-.49-.32Z"/>
      <path class="cls-1" d="M56.67,57.97c-.34-.27-.32-.26-.97-.32-.51.4-.57.23-.81.97.43-.11.86-.22,1.3-.32l.49-.32Z"/>
      <path class="cls-1" d="M52.3,63.96h1.62c.43-1.03.86-2.05,1.3-3.08-.16-.05-.32-.11-.49-.16-1.09.75-.63.91-.97,2.1-.33.57-.58.63-1.3.81-.05.11-.11.22-.16.32Z"/>
      <path class="cls-1" d="M63.8,53.59c.11-.27.22-.54.32-.81l-.65-.16c-.11.27-.22.54-.32.81.05.05.11.11.16.16h.49Z"/>
      <path class="cls-1" d="M55.7,56.35c.43.05.86.11,1.3.16.22-.86.04-1.17-.97-1.3-.11.16-.22.32-.32.49v.65Z"/>
      <path class="cls-1" d="M48.41,67.84c-.27.38-.54.76-.81,1.13.05.16.11.32.16.49.11.05.22.11.32.16h.49c-.17-1.07-.16-.84.16-1.78h-.32Z"/>
      <path class="cls-1" d="M54.24,67.52c-.25-.81-.46-.92-1.46-.97-.11.05-.22.11-.32.16.27.71.31.56.97.81h.81Z"/>
      <path class="cls-1" d="M57.97,50.19c.05-.05.11-.11.16-.16-.05-.22-.11-.43-.16-.65-.16-.05-.32-.11-.49-.16-.16.16-.32.32-.49.49.05.16.11.32.16.49h.81Z"/>
      <path class="cls-1" d="M58.61,58.45c.16-.05.32-.11.49-.16-.23-.73-.08-.59-.81-.81-.09.64-.12.53.32.97Z"/>
      <path class="cls-1" d="M59.26,53.43c.11-.16.22-.32.32-.49-.22-.11-.43-.22-.65-.32-.11.16-.22.32-.32.49.05.11.11.22.16.32h.49Z"/>
      <path class="cls-1" d="M52.62,52.46c-.32.38-.65.76-.97,1.13.68-.17,1.23-.57.97-1.13Z"/>
      <path class="cls-1" d="M53.27,60.4c-.08-.8.03-.63-.49-.97-.05.27-.11.54-.16.81.22.05.43.11.65.16Z"/>
      <path class="cls-1" d="M48.41,72.7h.97v-.16c-.27-.27-.54-.54-.81-.81h-.49c-.2.48-.16.33-.16.81.16.05.32.11.49.16Z"/>
      <path class="cls-1" d="M51,68.65c.6-.13.47-.73.81-1.3-.16-.11-.32-.22-.49-.32-.16.22-.32.43-.49.65.05.22.11.43.16.65v.32Z"/>
      <path class="cls-1" d="M50.52,58.94v-.16c-.27-.11-.54-.22-.81-.32-.05.27-.11.54-.16.81.11.05.22.11.32.16.22-.16.43-.32.65-.49Z"/>
      <path class="cls-1" d="M48.25,61.04c.79-.1.61-.04.97-.49-.16-.22-.32-.43-.49-.65-.59-.11-1.19-.22-1.78-.32.22.87.66,1.06,1.3,1.46Z"/>
      <path class="cls-1" d="M66.22,40.64v-.49h-.65c-.05.16-.11.32-.16.49.11.05.22.11.32.16l.49-.16Z"/>
      <path class="cls-1" d="M69.95,52.46c-.11.05-.22.11-.32.16-.11.16-.22.32-.32.49.53-.16,1.02-.08.65-.65Z"/>
      <path class="cls-1" d="M65.09,49.39h.65c.16-.05.32-.11.49-.16-.11-.22-.22-.43-.32-.65l-.32.16c-.16.22-.32.43-.49.65Z"/>
      <path class="cls-1" d="M71.41,42.26c-.22.16-.43.32-.65.49v.16c.87-.2.89-.14.65-.65Z"/>
      <path class="cls-1" d="M71.41,46.15c.05-.27.11-.54.16-.81v-.16c-.32-.05-.65-.11-.97-.16-.11.05-.22.11-.32.16.22.8.24.83,1.13.97Z"/>
      <path class="cls-1" d="M62.66,100.23c.11.05.22.11.32.16h.49c-.12-1.06-.42-1.33-1.3-1.62.16.49.32.97.49,1.46Z"/>
      <path class="cls-1" d="M62.99,89.54c-.16-.16-.32-.32-.49-.49h-.49c-.16.11-.32.22-.49.32-.05.32-.11.65-.16.97l.32.16c.65-.29.91-.41,1.3-.97Z"/>
      <path class="cls-1" d="M36.92,78.53c-.22-.16-.43-.32-.65-.49-.11.22-.22.43-.32.65.05.11.11.22.16.32.59-.18.48-.13.81-.49Z"/>
      <path class="cls-1" d="M57.16,91.48c.11.05.22.11.32.16.16-.11.32-.22.49-.32v-.65h-.49c-.11.27-.22.54-.32.81Z"/>
      <path class="cls-1" d="M58.13,61.21c-.11.16-.22.32-.32.49,1.09-.27,2.16.19,3.08-.16.32-.38.65-.76.97-1.13.8-.25,1.07.5,1.94.16-.52.82-.87,1.44-2.1,1.13-.63.47-.61,1.04-.97,1.78-.05.11-.11.22-.16.32v-1.13c-.66-.26-1.4-.07-2.43-.16.38.49.76.97,1.13,1.46-.05.43-.11.86-.16,1.3-.76.7-1.51,1.4-2.27,2.1-.94,1.57-1.05,3.59-3.24,2.43-.38.55-.2.57,0,1.3-.76-.59-1.51-1.19-2.27-1.78.53,1.83.54,1.92.16,4.05-.56.33-1.4.07-1.94.49-1.15.88-.43,4.52-3.24,3.08-.49.05-.97.11-1.46.16.43.16.86.32,1.3.49.16.22.32.43.49.65-.75,2.54-3.8,4-5.02,6.15v.16c1.3-.81,2.59-1.62,3.89-2.43-3.03,3.77-7.45,6.42-9.72,11.01.27,5.65,7.2,12.94,9.88,17,.95,1.44,3.23,4.09,2.59,5.83v1.13c.69.34.8-.4.97-.65,1.57.49,3.14,3.01,3.89,4.37-.34.61-.55.69-.65,1.62,2.11,1.21,2.2,4.98,3.56,5.99.43.54.86,1.08,1.3,1.62-.27-.16-.54-.32-.81-.49-.11.05-.22.11-.32.16.39,1.15,1.32,1.27,1.3,2.59,1.99,4,8.89-4.79,10.2-6.64,5.89-8.34,12.46-15.93,18.46-24.13,2.37-3.02,4.75-6.05,7.12-9.07-.21-3.36-3.96-6.86-5.51-9.39-4.63-7.57-9.57-14.94-14.09-22.34-1.71-2.8-3.54-7.61-6.64-8.91v.65c-.52.41-.6.17-1.3.49-.16.11-.32.22-.49.32.22.27.43.54.65.81.49-.27.97-.54,1.46-.81.11.7.22,1.4.32,2.1-.11.11-.22.22-.32.32-.9-.04-.64-.4-1.62-.65-.11,1.31.09,1.93-.32,3.08-.43-.16-.86-.32-1.3-.49-.32.7-.65,1.4-.97,2.1h-.65c-.78-.59-.83-.87-.81-1.94h-.16c-.27.32-.54.65-.81.97-.19.82.15.43.49,1.46-.16.16-.32.32-.49.49-.67.2-.9-.12-1.62-.32-.32.27-.65.54-.97.81ZM47.28,79.34c.19-.58.18-.44.49-.81h.16c.05.11.11.22.16.32-.33.35-.22.31-.81.49ZM49.39,75.45c.22-.32.43-.65.65-.97h.32c-.25.72-.36.67-.97.97ZM52.62,71.57c.22.11.43.22.65.32v.65c-.22.11-.43.22-.65.32h-.16c-.15-.63-.09-.79.16-1.3ZM61.21,108.97c-.27-.27-.54-.54-.81-.81.15-.72.15-.56.49-.97h.81c.11.16.22.32.32.49.12.4.06.57-.16.97-.05.16-.11.32-.16.49-.16-.05-.32-.11-.49-.16ZM64.61,58.78c.11.05.22.11.32.16-.11.16-.22.32-.32.49h-.16c.05-.22.11-.43.16-.65ZM66.55,76.75h.49c.95.77,10.59,15.65,10.85,16.84-1.54,2.81-7.24,10.42-10.04,11.66h-.16c.22-.49.43-.97.65-1.46-.05-.11-.11-.22-.16-.32h-.49c-.22.22-.43.43-.65.65-.19.86-.23,1.22.49,1.62-.11,2.4-2.81,2.07-3.4,4.05.43-.16.86-.32,1.3-.49-.5.88-1.63,1.15-2.27,1.94-.27-.05-.54-.11-.81-.16-.16-.27-.32-.54-.49-.81v-.16c.16-.22.32-.43.49-.65.61.22.33,0,.65.49h.49c-.2-.77-.56-1.05-.32-1.78.49-.76.94-.43,1.62-.65h.32c-.28-1.11-.85-1.04-1.78-.65-.72-.67-.24-.91,0-1.94.33.32.18.06.32.65h.81c-.16-.38-.32-.76-.49-1.13.22-.22.43-.43.65-.65.8.69.56,1.22.32,2.43.59-.11,1.19-.22,1.78-.32-.11-.54-.22-1.08-.32-1.62-.76-.38-1.51-.76-2.27-1.13-.31,1.05-1.79,3.1-2.75,3.56-2.49,1.17-3.59-2.12-4.7-3.4.05-.16.11-.32.16-.49.43-.43.86-.86,1.3-1.3.97.05,1.94.11,2.91.16v-.16c-1.61-1.27-3.17-.33-4.7.16-.16-.05-.32-.11-.49-.16-.5-1.07-1.31-2.25-.97-3.56-.37-.43-.43-.5-1.13-.65.32-.9,1.35-1.22,2.27-1.46.05-.22.11-.43.16-.65-.7.1-2.48.85-2.91.65-.65-.31-.31-.75-1.62-.81-.11-.27-.22-.54-.32-.81,4.04-6.87,10.81-11.08,15.22-17.49Z"/>
      <path class="cls-1" d="M65.42,95.53c-.22-.22-.43-.43-.65-.65h-.49c-.05.16-.11.32-.16.49.4.24.55.3,1.3.32v-.16Z"/>
      <path class="cls-1" d="M46.15,62.34c-.27-.32-.54-.65-.81-.97h-.49c-.05.11-.11.22-.16.32.38.27.76.54,1.13.81.11-.05.22-.11.32-.16Z"/>
      <path class="cls-1" d="M64.77,100.23c-.74,1.58-2.15,2.47-2.59,4.37,1.19-1.04,1.73-3.18,3.56-3.08.05-.11.11-.22.16-.32-.53-.32-.75-.52-1.13-.97Z"/>
      <path class="cls-1" d="M59.59,95.37c.11.11.22.22.32.32.31-.42.38-.39.49-1.13h-.49c-.11.27-.22.54-.32.81Z"/>
      <path class="cls-1" d="M65.25,97.47c-.05.22-.11.43-.16.65h.49c-.16-.59.01-.33-.32-.65Z"/>
      <path class="cls-1" d="M65.74,91.48h.49c-.49-.62-1.07-1.47-1.62-2.1h-.32c-.05.22-.11.43-.16.65.22.38.43.76.65,1.13.32.11.65.22.97.32Z"/>
      <path class="cls-1" d="M44.69,74.97c-.11.38-.22.76-.32,1.13.11.05.22.11.32.16.32-.49.65-.97.97-1.46h-.65c-.11.05-.22.11-.32.16Z"/>
      <path class="cls-1" d="M43.23,72.05c.71-.26.56-.09.65-.97h-.49c-.05.32-.11.65-.16.97Z"/>
      <path class="cls-1" d="M54.57,94.56c.23-.34.37-.21.16-.65-.05.22-.11.43-.16.65Z"/>
      <path class="cls-1" d="M43.88,78.85c.11.11.22.22.32.32.16.05.32.11.49.16.05-.65.02-.75-.81-.97v.49Z"/>
      <path class="cls-1" d="M52.62,93.91c.48-.21.19,0,.49-.32h-.32c-.05.11-.11.22-.16.32Z"/>
      <path class="cls-1" d="M52.3,94.24c.45.13.28.09.65-.16h-.32l-.32.16Z"/>
      <path class="cls-1" d="M45.18,71.57c-.3.37-.3.22-.49.81.27-.05.54-.11.81-.16.11-.22.22-.43.32-.65h-.65Z"/>
      <path class="cls-1" d="M42.26,73.35h-.49c-.05.16-.11.32-.16.49-.38.43-.76.86-1.13,1.3,1-.24,1.54-.79,1.78-1.78Z"/>
      <path class="cls-1" d="M40.97,77.24c.52-.39.76-.55.97-1.3h-.65c-.42.5-.62.48-.81,1.3h.49Z"/>
      <path class="cls-1" d="M47.28,69.62c-.11-.11-.22-.22-.32-.32h-.49c-.59.16-1.19.32-1.78.49-.16.22-.32.43-.49.65.86-.16,1.73-.32,2.59-.49.16-.11.32-.22.49-.32Z"/>
      <path class="cls-1" d="M43.39,69.14v.16h.16c.38-.37.27-.31.32-.65-.16.16-.32.32-.49.49Z"/>
      <path class="cls-1" d="M26.55,95.53c-.11-.11-.22-.22-.32-.32h-.49c-.05.11-.11.22-.16.32.32.26.22.22.81.32.05-.11.11-.22.16-.32Z"/>
      <path class="cls-1" d="M2.27,91.48c.93,1.53-1.94,3.75-2.27,5.67,1.34,1.35,3.88,3.15,4.37,5.18-.38.38-.76.76-1.13,1.13-.38-.52-.23-.98-.16-1.94-.73-.31-1.75-.09-2.59.32v1.46c.71-.35.58-.84,1.13-1.3.22-.05.43-.11.65-.16v2.27c.42.21.56.29,1.3.32.49-.59.97-1.19,1.46-1.78h.32c4.48,3.36,7.77,9.29,11.17,13.76.2.27.42.53.62.8,0,0,.02,0,.03.01,0,0,0,0,0,.01,4.01,5.15,8.5,9.95,12.47,15.21,1.28,1.69,3.24,3.24,4.05,5.34.11.86.22,1.73.32,2.59.05.16.11.32.16.49.49-.11.97-.22,1.46-.32,1.55,1.16,3.52,4.1,3.4,6.31,3.03.54,4.28,3.5,5.99,5.83,4.26,5.5,8.53,11.01,12.79,16.52,1.62,2.16,5.97,5.69,2.59,7.93.05.54.11,1.08.16,1.62.22.22.43.43.65.65.32-.16.65-.32.97-.49.42-3,6.99-8.76,9.07-11.5,5.83-7.56,11.66-15.11,17.49-22.67,2.45-3.58,7.25-12.02,10.85-13.92h.16c.05.22.11.43.16.65-.59.49-1.19.97-1.78,1.46v.49c1.9-.33,1.74.29,3.24.81-.27-.86-.54-1.73-.81-2.59v-.16l.65-.16c.52.33.57.33.81.97h.49v-1.13c-.53-.33-.65-.47-1.62-.49-.32-.51-.44-.55-.49-1.46,2.43-3.13,4.86-6.26,7.29-9.39,4.57-5.68,9.43-11.09,13.92-17,2.2-2.89,5.85-5.72,7.45-9.07.62-1.67-2.64-6.86-4.05-7.29.43.92.86,1.84,1.3,2.75-3.72-5.94-7.45-11.87-11.17-17.81-5.24-7.43-10.81-14.69-15.71-22.51-6.94-11.08-12.55-22.68-20.24-32.87.13-.72.2-.68.49-1.13-.27.05-.54.11-.81.16-1-.71-1.52-1.65-2.27-2.59.39-.31,1.33-.4,1.94-.49.16-.27.32-.54.49-.81v-.16c-.16-.22-.32-.43-.49-.65-.59.22-1.19.43-1.78.65v-2.1c-.38-.11-.76-.22-1.13-.32-.49.43-.97.86-1.46,1.3-.86-.27-1.73-.54-2.59-.81-.38.27-.76.54-1.13.81.42.52.53.36.65,1.3-.05.05-.11.11-.16.16-.49-.22-.97-.43-1.46-.65h-.16c.22.54.43,1.08.65,1.62-1.01.45-1.17.92-2.59.97-.05.32-.11.65-.16.97.49.05.97.11,1.46.16.05.05.11.11.16.16-.05.16-.11.32-.16.49-.22.22-.43.43-.65.65-.85-.45-1.32-1.13-1.62-2.1-.22-.05-.43-.11-.65-.16.39,1.31,1.48,2.4,1.13,3.89v.32c-.81.46-.64.37-1.46-.16-.87,1.08-1.01,2.59-1.94,3.56h-.65c-.27-.54-.54-1.08-.81-1.62-.32-.05-.65-.11-.97-.16.2,1.19.72,1.37,1.3,2.1-.57,3.27-4.44,4.44-6.96,5.34-.16.11-.32.22-.49.32.23.65.15.48.65.81-.42.32-.41.28-.97.16v1.46c-.7-.27-1.4-.54-2.1-.81v.16c.54.54,1.08,1.08,1.62,1.62-.19,1.03-.52,1.5-1.3,1.94-.38-.54-.76-1.08-1.13-1.62h-.49c.32.76.65,1.51.97,2.27-.87,1.45-2.54,1.83-3.56,3.08-2.28,2.77-4.36,5.54-6.64,8.26-1.13.97-2.27,1.94-3.4,2.91-3.88,6.86-9.68,12.55-14.25,18.94-2.21,2.75-4.43,5.51-6.64,8.26-.49-.16-.97-.32-1.46-.49v1.46c-.16.16-.32.32-.49.49-.86-.97-1.73-1.94-2.59-2.91h-.16c-.05.05-.11.11-.16.16.16.59.32,1.19.49,1.78.76-.05.69-.07,1.3.16.16.76.32,1.51.49,2.27-.49.65-.97,1.3-1.46,1.94-1.78-.4-2.44-2-3.72-2.91h-.65c-.05.16-.11.32-.16.49.86.59,1.73,1.19,2.59,1.78v1.62c-2.3-.17-2.73,1.17-4.7,1.78.39,1.16,1.12,1.68,1.62,2.59-1.71,2.5-3.51,4.47-5.18,6.8h-.65c-.38-.65-.76-1.3-1.13-1.94h-.49c-.11.11-.22.22-.32.32.37.87,1.02.8,1.46,1.62ZM67.2,146.05c-.11.05-.22.11-.32.16-.11-.16-.22-.32-.32-.49.22.05.43.11.65.16v.16ZM67.84,145.24c-.11-.11-.22-.22-.32-.32.48-.84,1.27-1.11,1.78-2.1h.16c.11.16.22.32.32.49l-1.94,1.94ZM74.32,143.3c-.33-.29-.12,0-.32-.49.11-.16.22-.32.32-.49v.97ZM80.96,132.45c-.05.11-.11.22-.16.32-.73-.23-.59-.08-.81-.81.32.11.65.22.97.32v.16ZM79.18,45.01c.32.43.65.86.97,1.3-.54-.11-1.08-.22-1.62-.32v-1.13c.22.05.43.11.65.16ZM78.53,43.72c-.11.11-.22.22-.32.32-.05-.32-.11-.65-.16-.97.16.22.32.43.49.65ZM70.76,12.14h.32c0,.55.04.56-.49.97-.11-.11-.22-.22-.32-.32.16-.22.32-.43.49-.65ZM71.08,34.49v.65c-.22.05-.43.11-.65.16v-1.13c.22.11.43.22.65.32ZM28.17,80.15c3.74-4.79,7.83-9.1,11.5-13.92,1.24-1.19,2.48-2.37,3.72-3.56,2.89-4.03,6.13-7.67,9.88-10.85.54.22,1.08.43,1.62.65.11-.11.22-.22.32-.32-.43-.27-.86-.54-1.3-.81.28-1.62,5.4-6.96,6.8-7.61.16-.16.32-.32.49-.49-.43.7-.86,1.4-1.3,2.1h.97c.76-1.19,1.49-2.16,1.94-3.72.27-.05.54-.11.81-.16-.13.72-.2.68-.49,1.13v.16h.16c.54-.49,1.08-.97,1.62-1.46-.28-.76-.64-.71-.49-1.46.49-.71,2.04-1.96,2.91-2.27.6.67.44,1.28,1.46,1.62-.18-.86-.59-1.68-.32-2.43.44-.62,1.1-.61,1.78-.97h.49c.41.58.59.59.65,1.62-.49.43-.97.86-1.46,1.3.16.43.32.86.49,1.3l.32.32h.49c.44-.6-.12-.75-.49-1.46.7-.76,1.4-1.51,2.1-2.27.07,1.59.62,1.54,1.46,2.27-.38.05-.76.11-1.13.16-.23,1.32-.36,2.22-.65,3.4,1.08-.38,1.27-1.29,2.27-1.78h1.13c1.91,1.11,2.38,5.91,1.46,7.93.31.59.11.55.81.81.32-.22.65-.43.97-.65-.16-.43-.32-.86-.49-1.3v-.81h1.3c.09.9,0,1.09-.16,1.94.87-.15.62-.05.97-.65h.32c3.83,5.56,7.66,11.12,11.5,16.68,3.02,3.89,6.05,7.77,9.07,11.66,1.62,2.7,3.24,5.4,4.86,8.1,1.89,2.86,3.78,5.72,5.67,8.58.3,2.09-9.31,11.35-10.85,13.76-.67-.21-.51-.08-.81-.65-.8.43-.78,1.17-1.62,1.62-.87.23-1.52-.41-2.43-.65h-.16c-.05.32-.11.65-.16.97.65.05,1.3.11,1.94.16v.16c-.28.82-.24,1.25-.16,2.27-1.03,1.19-2.05,2.37-3.08,3.56v.32c-.11-.27-.22-.54-.32-.81h-.32c-1.3.82-.58,1.26-1.13,2.43-.65.43-1.3.86-1.94,1.3-1.46,2-2.91,3.99-4.37,5.99-1.62,1.57-3.24,3.13-4.86,4.7-.27.59-.54,1.19-.81,1.78-.92.32-1.84.65-2.75.97.91,1.3.66,1.93.16,3.56-2.25,1.29-3.37,2.42-4.7,4.7-.77,1.33-2.08.52-2.91,2.91-.8.42-1.95.16-3.08-.16-.05-.11-.11-.22-.16-.32.43.05.86.11,1.3.16v-.16c-.38-.49-.76-.97-1.13-1.46,1.1-.16,1.62-1.22,1.13-2.27-1.13-2.03-3.89.95-4.37,1.46v.16c.27-.05.54-.11.81-.16.52.57.54.91,1.3,1.3-.11.43-.22.86-.32,1.3.37.46,1.01.91,1.46,1.3.05.16.11.32.16.49-2.42-.28-2.71,1.99-2.59,4.53-.83.41-1.33.24-2.1-.16h-.16c.25.76.54.78.97,1.3v.65c-1.2.92-2.46,2.08-4.05,2.59-.11-.11-.22-.22-.32-.32.05-.16.11-.32.16-.49,1.03-.49,2.07-.62,2.75-1.46-.32-.27-.65-.54-.97-.81.22-.54.43-1.08.65-1.62-.27.05-.54.11-.81.16-.41.7-.54,1.48-.49,2.75-.38-.22-.76-.43-1.13-.65-.38.43-.76.86-1.13,1.3h-.65c-1.28-1.2-2.49-3.36-3.08-5.18v-.16c.49-.05.97-.11,1.46-.16.11-.22.22-.43.32-.65-.05-.11-.11-.22-.16-.32h-2.75c-.32-.51-.44-.55-.49-1.46.49-.22.97-.43,1.46-.65v-.65c-.76-.17-.27-.18-.97.32-.77-.23-.57-.1-.81-.81-.26.32-.22.22-.32.81-3.94-2.87-1.82-3.4-.81-6.96h-.49c-.66.5-.98.92-1.13,1.94-.27.16-.54.32-.81.49-.11-.05-.22-.11-.32-.16.3-.86.75-.87,1.13-1.62-.11-.11-.22-.22-.32-.32-.43.32-.86.65-1.3.97-.16-.11-.32-.22-.49-.32-.27-.38-.54-.76-.81-1.13.06-1.3.67-2.15,1.94-2.27-1.05-1.15-1.84.4-1.78-1.78-.16-.16-.32-.32-.49-.49h-.65c-.22.32-.43.65-.65.97.35.93.88,1,1.13,2.1h-.16c-2.49-1.56-4.25-5.72-5.99-8.1-4.52-6.18-10.72-12.21-14.09-19.27.55-.8.31-1.15-.49-1.13v-1.3c-3.95-2.11-6.81-6.47-8.74-10.52.46-3.79,8.44-10.57,10.69-13.44ZM74.48,39.83c-.11.11-.22.22-.32.32-.52-.55-.31-.16-.16-.81h.16c.11.16.22.32.32.49ZM10.2,81.44h.97c.05.22.11.43.16.65-.38-.05-.76-.11-1.13-.16v-.49ZM8.26,83.71c-.29-.61-.23-.47,0-1.13h.65c.11.16.22.32.32.49-.16.22-.32.43-.49.65h-.49ZM5.51,90.84c-.05-.11-.11-.22-.16-.32.29.21.09.17.16.32Z"/>
      <path class="cls-1" d="M102.17,130.34c.05-.16.11-.32.16-.49-.22-.22-.43-.43-.65-.65.05.32.11.65.16.97.11.05.22.11.32.16Z"/>
      <path class="cls-1" d="M83.23,65.9c-.22-.16-.43-.32-.65-.49-.16.22-.32.43-.49.65.16.16.32.32.49.49.22-.22.43-.43.65-.65Z"/>
      <path class="cls-1" d="M80.64,68.01c-.11-.11-.22-.22-.32-.32h-.49c-.16.32-.32.65-.49.97h.81c.16-.22.32-.43.49-.65Z"/>
      <path class="cls-1" d="M76.1,41.94c-.32-.27-.65-.54-.97-.81.27.27.54.54.81.81h.16Z"/>
      <path class="cls-1" d="M77.07,46.63v-.16c-.35-.32-.52-.38-1.13-.49.34.47.44.51,1.13.65Z"/>
      <path class="cls-1" d="M91.65,85.01h-.32c-.48.43-.72.4-.97,1.13.32-.11.65-.22.97-.32.11-.27.22-.54.32-.81Z"/>
      <path class="cls-1" d="M96.99,89.06c-.32-.05-.65-.11-.97-.16-.05.16-.11.32-.16.49h.97c.05-.11.11-.22.16-.32Z"/>
      <path class="cls-1" d="M93.43,84.52c-.33-.35-.22-.31-.81-.49-.11.16-.22.32-.32.49v.49h.81c.11-.16.22-.32.32-.49Z"/>
      <path class="cls-1" d="M96.99,84.2l-.49-.16c-.05.22-.11.43-.16.65h.16c.16-.16.32-.32.49-.49Z"/>
      <path class="cls-1" d="M96.83,110.1h.16c.05-.11.11-.22.16-.32-.32-.11-.65-.22-.97-.32.22.22.43.43.65.65Z"/>
      <path class="cls-1" d="M90.84,109.78c-.16.16-.32.32-.49.49.11.16.22.32.32.49.43-.16.86-.32,1.3-.49.22.38.43.76.65,1.13,1.2.54,1.67-.36,2.1-1.46-.59-.16-1.19-.32-1.78-.49-.7.11-1.4.22-2.1.32Z"/>
      <path class="cls-1" d="M18.3,73.03c.12-.75.28-.73-.32-1.13-.11.32-.22.65-.32.97.42.32.15.16.65.16Z"/>
      <path class="cls-1" d="M45.82,67.52c.32.27.65.54.97.81-.16-.38-.32-.76-.49-1.13.05-.11.11-.22.16-.32.89-.06.99.25,1.94.49v-.16c-.38-.49-.76-.97-1.13-1.46v-.16c.38-.27.76-.54,1.13-.81.87.88-.08,1.89,1.94,1.94.11-.32.22-.65.32-.97-1.15-.64-1.63-1.85-2.75-2.27v1.13c-.11.05-.22.11-.32.16-.54-.11-1.08-.22-1.62-.32-.11-.11-.22-.22-.32-.32.16-.49.32-.97.49-1.46h-.32c-.27.38-.54.76-.81,1.13-.11.05-.22.11-.32.16-.27-.27-.54-.54-.81-.81h-.16c.39,1.22,1.76,1.82,2.75,2.43-.1.97-.82,1.26-1.62,1.94-.95-.65-.83-.56-1.94-.16-.11-.05-.22-.11-.32-.16.21-.71.2-.69.81-.97v-.49c-.87.24-1.19.63-1.46,1.46v.16c.71.39,1.79.72,2.43,1.13.49-.32.97-.65,1.46-.97Z"/>
      <path class="cls-1" d="M95.86,90.67c-.11-.11-.22-.22-.32-.32-.54.67-1.16.85-1.46,1.78h.16c.35-.69,1-1.06,1.62-1.46Z"/>
      <path class="cls-1" d="M90.67,102.66c-.05-.22-.11-.43-.16-.65-.16-.05-.32-.11-.49-.16-.11.05-.22.11-.32.16.05.22.11.43.16.65.16.05.32.11.49.16.11-.05.22-.11.32-.16Z"/>
      <path class="cls-1" d="M92.94,104.76c-.11.38-.22.76-.32,1.13-.59.07-.46-.12-.97-.49-.86.38-1.73.76-2.59,1.13-.16.05-.32.11-.49.16.11.32.22.65.32.97.54-.27,1.08-.54,1.62-.81.7.54,1.4,1.08,2.1,1.62h.49c-.4-1.62-.14-1.84.49-3.4l-.65-.32Z"/>
      <path class="cls-1" d="M97.96,101.85c-.11.38-.22.76-.32,1.13h.16c.5-.33.54-.4.81-.97-.58-1.02-1.85-1.79-3.08-2.1-.52,1.18-1.38,1.77-1.62,3.08.22-.22.43-.43.65-.65.7-.37,2.09-.27,3.4-.49Z"/>
      <path class="cls-1" d="M98.12,82.25h-.32c-.11.16-.22.32-.32.49.05.05.11.11.16.16.16-.22.32-.43.49-.65Z"/>
      <path class="cls-1" d="M36.92,74.48h-.81c-.22.11-.43.22-.65.32v.65c.43-.11.86-.22,1.3-.32.05-.22.11-.43.16-.65Z"/>
      <path class="cls-1" d="M22.99,96.67h-.65c-.05.22-.11.43-.16.65.27-.05.54-.11.81-.16v-.49Z"/>
      <path class="cls-1" d="M34.33,80.8c.11-.11.22-.22.32-.32-.16-.16-.32-.32-.49-.49-.05.11-.11.22-.16.32.05.16.11.32.16.49h.16Z"/>
      <path class="cls-1" d="M33.36,79.83c.11-.16.22-.32.32-.49-.22-.16-.43-.32-.65-.49-.49.65-.97,1.3-1.46,1.94v.16l.32.16c.49-.43.97-.86,1.46-1.3Z"/>
      <path class="cls-1" d="M38.21,72.86c-.1-1.24-.5-1.88-1.46-2.27.36,1.25.92,1.06.97,2.27h.49Z"/>
      <path class="cls-1" d="M33.03,83.39c-.11.05-.22.11-.32.16.05.22.11.43.16.65.16-.05.32-.11.49-.16.16-.11.32-.22.49-.32l-.32-.32h-.49Z"/>
      <path class="cls-1" d="M41.94,71.57c-.11-.11-.22-.22-.32-.32-.16.49-.32.97-.49,1.46.49-.35.56-.53.81-1.13Z"/>
      <path class="cls-1" d="M37.24,84.36c.16.05.32.11.49.16.22-.16.43-.32.65-.49v-.16c-.38-.11-.76-.22-1.13-.32v.81Z"/>
      <path class="cls-1" d="M39.51,71.89c.39.67.21.39.97.32.16-.32.32-.65.49-.97-.05-.11-.11-.22-.16-.32h-.81c-.16.32-.32.65-.49.97Z"/>
      <path class="cls-1" d="M40.48,66.87h-.32c-.38.49-.76.97-1.13,1.46v.16c.74-.33,1.22-.77,1.46-1.62Z"/>
      <path class="cls-1" d="M34.65,102.66c.37.48.43.61,1.13.81.38-.38.76-.76,1.13-1.13-.05-.32-.11-.65-.16-.97-.38-.05-.76-.11-1.13-.16.11.38.22.76.32,1.13v.16c-.69.26-.43.15-1.3,0v.16Z"/>
      <path class="cls-1" d="M90.03,114.48c-1.91,1.33-2.96,2.69-4.05,4.86.11.11.22.22.32.32,1.09-1.63,2.18-3.68,4.05-4.53.43.32.86.65,1.3.97-.16-.43-.32-.86-.49-1.3-.38-.11-.76-.22-1.13-.32Z"/>
      <path class="cls-1" d="M23.8,96.99c.05.11.11.22.16.32.16.05.32.11.49.16h.81c-.05-.27-.11-.54-.16-.81-.38-.11-.76-.22-1.13-.32-.05.22-.11.43-.16.65Z"/>
      <path class="cls-1" d="M32.06,81.44h-.49c-.69.8-1.28,1.03-1.62,2.27-.22.27-.43.54-.65.81,1.11-.31,2.38-2.07,2.75-3.08Z"/>
      <path class="cls-1" d="M22.83,95.37c-.37-.48-.43-.61-1.13-.81.29.64.38.77,1.13.97v-.16Z"/>
      <path class="cls-1" d="M22.02,93.26c-.49-.38-.46-.21-.97-.16-.54-.37-.77-.41-1.13-.97.62-1.37,1.57-2.88,3.08-3.4.05-.11.11-.22.16-.32-.36-.29-.56-.31-1.3-.32-.97,1.46-1.94,2.91-2.91,4.37.52.76,1.45,1.33,2.59,1.46h.16c.11-.22.22-.43.32-.65Z"/>
      <path class="cls-1" d="M24.29,87.27v-.65c-.38-.05-.76-.11-1.13-.16-.43.38-.41.15-.65.81h1.78Z"/>
      <path class="cls-1" d="M29.47,81.77c-.16-.22-.32-.43-.49-.65.11.22.22.43.32.65h.16Z"/>
      <path class="cls-1" d="M27.2,89.54h-.49c-.27.16-.54.32-.81.49-.05.11-.11.22-.16.32.05.11.11.22.16.32.88-.18,1.07-.3,1.3-1.13Z"/>
      <path class="cls-1" d="M27.2,88.08v.49c.65.05,1.3.11,1.94.16-.28-.76-.84-.93-1.62-1.13-.11.16-.22.32-.32.49Z"/>
      <path class="cls-1" d="M27.85,86.95c.11-.16.22-.32.32-.49-.27-.16-.54-.32-.81-.49-.16.05-.32.11-.49.16.23.76.12.66.97.81Z"/>
      <path class="cls-1" d="M75.62,44.69h.49c.11-.16.22-.32.32-.49l-.65-.16c-.26.46-.15.14-.16.65Z"/>
      <path class="cls-1" d="M113.5,121.92c-.24,1.43-1.22,1.27-2.43,1.62-.66-.63-.45-1.49-.32-2.59h-.65c-.16.27-.32.54-.49.81.34,1.32.36,2.06.97,2.91-.05,1.04-.12,1.21-.97,1.46.32.43.65.86.97,1.3-1.07.78-1.95,3.16-2.1,4.86h.16c1.07-.84,2.73-3.51,2.75-5.18,0-.74-.69-1.78-.16-2.75.29-.53,1.12-.45,1.94-.49.54-.7,1.01-1.09,1.3-2.1v-.16c-.74-.45-1.37-.78-2.59-.81.32.7.94.85,1.62,1.13Z"/>
      <path class="cls-1" d="M106.87,129.53c-.38.67-.62,1.19-.65,2.27.43.27.86.54,1.3.81.11-.05.22-.11.32-.16-.32-.38-.65-.76-.97-1.13.32-.43.65-.86.97-1.3-.37-.39-.26-.36-.97-.49Z"/>
      <path class="cls-1" d="M111.89,125.97c.85-.25,1.08-.97.97-1.62-.32.54-.65,1.08-.97,1.62Z"/>
      <path class="cls-1" d="M106.7,136.66c.22-.22.43-.43.65-.65h-.32c-.11.22-.22.43-.32.65Z"/>
      <path class="cls-1" d="M118.52,116.91c.23.73.08.59.81.81.05-.11.11-.22.16-.32-.22-.22-.43-.43-.65-.65-.11.05-.22.11-.32.16Z"/>
      <path class="cls-1" d="M119.01,109.13c-.34-.27-.32-.26-.97-.32-.05.11-.11.22-.16.32.34.27.32.26.97.32.05-.11.11-.22.16-.32Z"/>
      <path class="cls-1" d="M113.83,118.04c.05.11.11.22.16.32h.49c.43-.92.86-1.84,1.3-2.75-.16-.11-.32-.22-.49-.32-.49.92-.97,1.84-1.46,2.75Z"/>
      <path class="cls-1" d="M104.11,136.01v.65c.49.32.97.65,1.46.97.16-.16.32-.32.49-.49-.46-.58-1.09-.95-1.94-1.13Z"/>
      <path class="cls-1" d="M117.39,120.31l.32.16c.22-.27.43-.54.65-.81h-.49c-.16.22-.32.43-.49.65Z"/>
      <path class="cls-1" d="M96.83,139.41c-.76-.27-1.51-.54-2.27-.81-.11.05-.22.11-.32.16.34.82,1.49.99,2.27,1.3.11-.22.22-.43.32-.65Z"/>
      <path class="cls-1" d="M123.22,104.76c-.26-.71-.09-.56-.97-.65-.05.11-.11.22-.16.32.11.16.22.32.32.49l.49-.16h.32Z"/>
      <path class="cls-1" d="M100.07,140.06c.05.49.11.97.16,1.46v.32c.22-.05.43-.11.65-.16-.05-.43-.11-.86-.16-1.3l-.65-.32Z"/>
      <path class="cls-1" d="M96.5,141.03v.49c.11.05.22.11.32.16.43-.37.5-.43.65-1.13h-.49c-.16.16-.32.32-.49.49Z"/>
      <path class="cls-1" d="M101.36,142.65c.11-.11.22-.22.32-.32h-.32v.32Z"/>
      <path class="cls-1" d="M101.85,133.91c.11-.05.22-.11.32-.16.11-.64.25-.71-.16-1.13-.05.43-.11.86-.16,1.3Z"/>
      <path class="cls-1" d="M98.28,140.71v.32c.43.05.86.11,1.3.16.05-.05.11-.11.16-.16v-.49c-.27-.11-.54-.22-.81-.32-.22.16-.43.32-.65.49Z"/>
      <path class="cls-1" d="M93.91,141.19c-.22.11-.43.22-.65.32.05.27.11.54.16.81.59,0,.34.08.81-.16.38-.28.28-.16.49-.65l-.32-.32h-.49Z"/>
      <path class="cls-1" d="M92.46,148.32c-.11.16-.22.32-.32.49.05.11.11.22.16.32h.81c.05-.05.11-.11.16-.16v-.32c-.11-.11-.22-.22-.32-.32h-.49Z"/>
      <path class="cls-1" d="M39.51,38.21c-.22-.16-.43-.32-.65-.49-.27-.05-.54-.11-.81-.16.16.22.32.43.49.65.05.59.11,1.19.16,1.78-.43.27-.86.54-1.3.81-.11.22-.22.43-.32.65.86-.16,1.73-.32,2.59-.49-.5-1.03-.75-1.48-.16-2.75Z"/>
      <path class="cls-1" d="M24.29,53.27c.78-.32,1.02-1.87,1.13-2.75v-.16c-.43-.05-.86-.11-1.3-.16-.56.44-.63.22-.81,1.13,1.08.35,1.17.73.97,1.94Z"/>
      <path class="cls-1" d="M26.55,54.73c.05.22.11.43.16.65.16.16.32.32.49.49h.16c.05-.27.11-.54.16-.81-.16-.11-.32-.22-.49-.32h-.49Z"/>
      <path class="cls-1" d="M23.96,61.04c.22-.16.43-.32.65-.49-.11-.05-.22-.11-.32-.16-.11.22-.22.43-.32.65Z"/>
      <path class="cls-1" d="M27.2,51.49c.39-.31.27-.1.49-.65v-.16c-.32-.16-.65-.32-.97-.49-.11.05-.22.11-.32.16.19.79.23.78.81,1.13Z"/>
      <path class="cls-1" d="M30.76,51.98c-.35-.43-.32-.46-.97-.65-.05.16-.11.32-.16.49.45.35.42.47,1.13.65v-.49Z"/>
      <path class="cls-1" d="M17.97,69.3v.49h.32c-.21-.48,0-.19-.32-.49Z"/>
      <path class="cls-1" d="M22.18,62.66c.05.22.11.43.16.65h1.13c.05-.27.11-.54.16-.81-.27-.11-.54-.22-.81-.32-.22.16-.43.32-.65.49Z"/>
      <path class="cls-1" d="M23.32,54.89c.11-.05.22-.11.32-.16-.05-.38-.11-.76-.16-1.13h-2.1c-.16.43-.32.86-.49,1.3,1.13-.14,1.51-.37,2.43,0Z"/>
      <path class="cls-1" d="M36.43,40.64h.16c-.04-.85.04-.79-.49-1.13.05.27.11.54.16.81.05.11.11.22.16.32Z"/>
      <path class="cls-1" d="M32.38,45.01v-.49c-.32-.11-.65-.22-.97-.32-.05.11-.11.22-.16.32.27.22.54.43.81.65l.32-.16Z"/>
      <path class="cls-1" d="M35.78,46.47c-.51.45-.53.19-.65,1.13.22.16.43.32.65.49.22-.05.43-.11.65-.16h.32c-.05-.27-.11-.54-.16-.81-.3-.5-.23-.43-.81-.65Z"/>
      <path class="cls-1" d="M30.28,54.08v.16h.65c.16-.27.32-.54.49-.81-.22-.11-.43-.22-.65-.32-.16.32-.32.65-.49.97Z"/>
      <path class="cls-1" d="M32.06,46.47c.5.72.96,1.04,2.1,1.13v-.16c-.49-.66-.98-1.1-1.94-1.3-.05.11-.11.22-.16.32Z"/>
      <path class="cls-1" d="M36.11,43.07v-.16c-.44-1.05-1.09-1.82-2.1-2.27.49.76.97,1.51,1.46,2.27l.65.16Z"/>
      <path class="cls-1" d="M124.35,84.2c.22-.11.43-.22.65-.32v-1.78h-.65c-.16.16-.32.32-.49.49.05.38.11.76.16,1.13.11.16.22.32.32.49Z"/>
      <path class="cls-1" d="M70.11,7.29c-.54-.11-1.08-.22-1.62-.32-.05.27-.11.54-.16.81.54-.05,1.08-.11,1.62-.16.05-.11.11-.22.16-.32Z"/>
      <path class="cls-1" d="M73.83,0c-.11.16-.22.32-.32.49v.49c.32-.16.65-.32.97-.49-.22-.16-.43-.32-.65-.49Z"/>
      <path class="cls-1" d="M71.57,7.93c-.22-.61,0-.33-.49-.65-.05.11-.11.22-.16.32.16.16.32.32.49.49.05-.05.11-.11.16-.16Z"/>
      <path class="cls-1" d="M73.19,1.3h-.49l-.32.16v.49c.67-.21.51-.08.81-.65Z"/>
      <path class="cls-1" d="M73.03,8.91c.63-.83.68-1.19,1.78-1.62-.05-.16-.11-.32-.16-.49s-.11-.32-.16-.49h-.32c-.35.33-.31.22-.49.81-.22.16-.43.32-.65.49-.51-.98-.5-2.29-1.78-2.59.49,1.24.97,2.48,1.46,3.72.11.05.22.11.32.16Z"/>
      <path class="cls-1" d="M67.68,10.04c.22.65.43,1.3.65,1.94.16.05.32.11.49.16-.31-.89-.44-1.6-1.13-2.1Z"/>
      <path class="cls-1" d="M65.09,16.52c.74-.21.85-.33,1.13-.97-.22-.11-.43-.22-.65-.32-.16.16-.32.32-.49.49v.81Z"/>
      <path class="cls-1" d="M68.65,4.86v-.49c-.32-.22-.65-.43-.97-.65-.11.11-.22.22-.32.32.32.32.65.65.97.97.11-.05.22-.11.32-.16Z"/>
      <path class="cls-1" d="M65.58,3.4c-.27-.05-.54-.11-.81-.16-.11.27-.22.54-.32.81.63-.13.74-.22,1.13-.49v-.16Z"/>
      <path class="cls-1" d="M65.25,12.79c.38.05.76.11,1.13.16.05-.32.11-.65.16-.97l-.65-.32c-.22.22-.43.43-.65.65v.49Z"/>
      <path class="cls-1" d="M124.84,79.02v-.81c-.31-.49-.03-.27-.65-.49-.11.38-.22.76-.32,1.13.11.05.22.11.32.16h.65Z"/>
      <path class="cls-1" d="M65.25,7.29l-.49-.16c-.11.27-.22.54-.32.81.22.05.43.11.65.16.05-.27.11-.54.16-.81Z"/>
      <path class="cls-1" d="M127.43,98.77c.18,1.18,1.03,3.51,2.1,3.89-.37-1.28-.8-3.45-2.1-3.89Z"/>
      <path class="cls-1" d="M123.71,101.52c-.22.27-.43.54-.65.81.4.5.52.64,1.3.81-.02-.9-.07-1.26-.65-1.62Z"/>
      <path class="cls-1" d="M92.94,30.6h.16c.11-.27.22-.54.32-.81-.05-.16-.11-.32-.16-.49-.38-.11-.76-.22-1.13-.32.07,1.12.25,1.08.81,1.62Z"/>
      <path class="cls-1" d="M84.2,19.59h.16c-.32-.65-.65-1.3-.97-1.94-.17-1.4.53-2.5-.16-4.21-.11-.16-.22-.32-.32-.49v3.4c-.38-.59-.76-1.19-1.13-1.78-.43-.16-.86-.32-1.3-.49.21,2.6,2.18,2.75,2.91,4.86.27.22.54.43.81.65Z"/>
      <path class="cls-1" d="M79.34,6.96l-.65-.32c-.05.27-.11.54-.16.81.11.05.22.11.32.16.16-.22.32-.43.49-.65Z"/>
      <path class="cls-1" d="M88.08,25.58h.16c.13-.6.06-.76-.16-1.3-.38-.05-.76-.11-1.13-.16.05.32.11.65.16.97.32.16.65.32.97.49Z"/>
      <path class="cls-1" d="M76.43,6.8h-.49c-.11.05-.22.11-.32.16-.11.16-.22.32-.32.49.11.11.22.22.32.32.55-.34.59-.25.81-.97Z"/>
      <path class="cls-1" d="M86.79,12.47h-.32c-.43.16-.86.32-1.3.49-.49.31-.27.03-.49.65.59-.22,1.19-.43,1.78-.65.33-.29.12,0,.32-.49Z"/>
      <path class="cls-1" d="M122.9,106.38c.13.72.2.68.49,1.13h.65c-.2-.84-.31-.93-1.13-1.13Z"/>
      <path class="cls-1" d="M44.2,29.31c-.22-.49-.43-.97-.65-1.46-.26.58-.22.51-.16,1.3.11.05.22.11.32.16h.49Z"/>
      <path class="cls-1" d="M44.53,25.75c.13-.45.09-.28-.16-.65-.65.81-1.3,1.62-1.94,2.43.82-.44,1.69-.91,2.1-1.78Z"/>
      <path class="cls-1" d="M42.42,28.01h-.49c-.7.97-1.4,1.94-2.1,2.91,1.32-.29,2.28-1.65,2.59-2.91Z"/>
      <path class="cls-1" d="M47.93,28.01c-.16-.11-.32-.22-.49-.32-.38.16-.76.32-1.13.49-.11.16-.22.32-.32.49.36.29.56.31,1.3.32.22-.32.43-.65.65-.97Z"/>
      <path class="cls-1" d="M44.53,35.95l.32.16h.16c-.05-.43-.11-.86-.16-1.3-.64-.5-.68-.85-1.78-.97-.04.95,1.04.95,1.46,2.1Z"/>
      <path class="cls-1" d="M52.79,19.27c.16-.05.32-.11.49-.16.11-.27.22-.54.32-.81-.11-.22-.22-.43-.32-.65-.27-.05-.54-.11-.81-.16-.26.53-.35.94-.16,1.62l.49.16Z"/>
      <path class="cls-1" d="M61.37,17.81c.31.92,1.4,2.04,2.27,2.43.11-.05.22-.11.32-.16-.26-1.18-1.42-2.03-2.59-2.27Z"/>
      <path class="cls-1" d="M47.44,27.04c.37-.51.27-.24.32-.81-.54-.11-1.08-.22-1.62-.32.38.38.76.76,1.13,1.13h.16Z"/>
      <path class="cls-1" d="M60.56,8.26h-.32c-.27.38-.54.76-.81,1.13v.49h.65c.16-.54.32-1.08.49-1.62Z"/>
      <path class="cls-1" d="M50.84,30.28c-.11-.44-.02-.59-.81-.81.22.27.43.54.65.81h.16Z"/>
      <path class="cls-1" d="M38.7,43.07c.2,1.06.78,1.25,1.62,1.62h.81c-.65-.65-1.3-1.3-1.94-1.94-.16.11-.32.22-.49.32Z"/>
      <path class="cls-1" d="M42.26,42.75h.32c-.38-.05-.76-.11-1.13-.16.35.33.31.35.81.16Z"/>
      <path class="cls-1" d="M62.5,8.42c.32-.43.65-.86.97-1.3-.05-.84-.1-1.26-.65-1.62-.54.54-1.08,1.08-1.62,1.62v.49c.22.27.43.54.65.81h.65Z"/>
      <path class="cls-1" d="M43.72,37.24c-.54.11-1.08.22-1.62.32-.68.9-.76.73-1.62.16-.11.11-.22.22-.32.32.69.55,1.11,1.04,1.3,2.1.92.39,2.32-.08,3.24-.65.69-.46.59-.6.32-1.3.65-.05,1.3-.11,1.94-.16.16-.32.32-.65.49-.97-.22-.27-.43-.54-.65-.81-.97.13-.93.34-1.62.65-.76-.54-1.51-1.08-2.27-1.62.44.98.93.7.81,1.94ZM42.42,39.67c-.11-.05-.22-.11-.32-.16-.07-.79.03-.88.49-1.46h.97c.05.38.11.76.16,1.13-.43.16-.86.32-1.3.49Z"/>
    </g>
  </g>
</svg>