<?xml version="1.0" encoding="UTF-8"?>
<svg id="Layer_2" data-name="Layer 2" xmlns="http://www.w3.org/2000/svg" viewBox="0 0 129.59 181.85">
  <defs>
    <style>
      .cls-1 {
        fill: #faaf02;
      }
    </style>
  </defs>
  <g id="Layer_1-2" data-name="Layer 1">
    <g>
      <path class="cls-1" d="M1.06,104.25c.18.26.35.53.53.79.7.09,1.41.18,2.11.26.18-.35.35-.7.53-1.06v-3.17c-.53-.54-.26-.38-1.32-.53-1.16.84-2.27.35-2.9,1.85h2.11c-.35.62-.7,1.23-1.06,1.85Z"/>
      <path class="cls-1" d="M107.42,69.41v.26c.44.26.88.53,1.32.79h1.06v-1.32c-.58-.85-.45-.72-1.85-.79-.18.35-.35.7-.53,1.06Z"/>
      <path class="cls-1" d="M100.03,2.9c.26-.62.53-1.23.79-1.85-.35-.09-.7-.18-1.06-.26-.7.7-1.41,1.41-2.11,2.11-.95-1.41.27-1.78,1.06-2.9h-.79c-.88.88-1.76,1.76-2.64,2.64v.79c.18.26.35.53.53.79,2.27-.08,2.76-.68,4.22-1.32Z"/>
      <path class="cls-1" d="M84.46,22.43c-.26-.18-.53-.35-.79-.53-.18.44-.35.88-.53,1.32.95-.3.78-.21,1.32-.79Z"/>
      <path class="cls-1" d="M106.63,181.85c.64-.74.82-2.17,0-2.9v2.9Z"/>
      <path class="cls-1" d="M87.89,25.6c-.09.26-.18.53-.26.79.37-.53.21-.4.26-.79Z"/>
      <path class="cls-1" d="M86.04,178.95l-.79.79c.63,1.1.33.53,1.32.53.26-.26.53-.53.79-.79-.18-.18-.35-.35-.53-.53h-.79Z"/>
      <path class="cls-1" d="M83.4,180.53c.35-.18.7-.35,1.06-.53-1.58-.35-3.17-.7-4.75-1.06-.27,1.85,2.05,1.88,3.7,1.58Z"/>
      <path class="cls-1" d="M2.38,106.37c-.18.88-.35,1.76-.53,2.64.53.26,1.06.53,1.58.79.09-.97.18-1.94.26-2.9-.53-.54-.26-.38-1.32-.53Z"/>
      <path class="cls-1" d="M90.27,178.95v.79c.26.18.53.35.79.53h.79c-.38-1.24-.2-1.08-1.58-1.32Z"/>
      <path class="cls-1" d="M100.56,173.67v1.32h1.06l.26-.53c-.54-.58-.36-.51-1.32-.79Z"/>
      <path class="cls-1" d="M95.02,179.74c-.18.26-.35.53-.53.79.35.35.7.7,1.06,1.06,2.35.35,3.19-.65,5.81-.79.09-.35.18-.7.26-1.06-2.02-.09-4.05-.18-6.07-.26l-.53.26Z"/>
      <path class="cls-1" d="M103.2,156.51v.26h1.58c-.26-.18-.53-.35-.79-.53-.26.09-.53.18-.79.26Z"/>
      <path class="cls-1" d="M11.61,8.97c-.39-1.28-.31-1.2-1.85-1.32.26.44.53.88.79,1.32h1.06Z"/>
      <path class="cls-1" d="M21.91,27.98v-1.06c-.44-.09-.88-.18-1.32-.26l-.79.79v.26c.67.55.4.56,1.58.79.18-.18.35-.35.53-.53Z"/>
      <path class="cls-1" d="M5.54,11.09h-1.06c-.18.35-.35.7-.53,1.06v1.06c.09.09.18.18.26.26h.79c.52-.85.71-.83.53-1.85v-.53Z"/>
      <path class="cls-1" d="M1.85,112.7c.18.09.35.18.53.26.44-.44.88-.88,1.32-1.32v-.79c-.35-.18-.7-.35-1.06-.53-.26.79-.53,1.58-.79,2.38Z"/>
      <path class="cls-1" d="M1.85,58.86v.79h.53c-.34-.79.01-.32-.53-.79Z"/>
      <path class="cls-1" d="M75.22,21.64v-.26h-.79c-.49.6-.49.36-.79,1.32,1.15-.3,1.01-.26,1.58-1.06Z"/>
      <path class="cls-1" d="M29.82,155.72c9.58,4.83,26.69,1.07,41.17,1.06,3.52,0,14.43-1.92,15.84.26,3.01-1.59,9.55-1.2,14.78-1.58,2.96-4.85.39-14.27,1.58-20.85,3.19-17.53,1.28-41.71,1.06-57.27,1.83-.38,3.48,5.58,4.22,7.92,1.82-1.21.41-5.65-.53-7.13l.26-.26c1.63.22,1.98-1.03,2.11-2.9-.7.18-1.41.35-2.11.53.69-1.46,1.76-1.45,2.38-3.17v-.26c-.53-.18-1.06-.35-1.58-.53-.87,1.08-1.66,2.43-3.17,2.9.26-1.76.53-3.52.79-5.28.47-1.66,1.74-1.74,2.11-3.7-.8-1.32-1.33-2.55-3.17-2.9-.09.79-.18,1.58-.26,2.38l-.26.26h-.79c-2.98-10.63-1.06-24.5-4.75-34.58.29-.87.86-1.68,0-2.38-.72-.58-23.85-.93-25.6-1.06-3.41,2.9-33.75,2.91-40.65,2.38-5.68,9.06-3.11,28.26-5.01,40.38-.75,4.74,1.59,16.02-1.58,18.48,5.6,18.25-.48,47.23,3.17,67.3ZM104.78,69.94c.67.6.75,1.1.79,2.38v.26c-.26.18-.53.35-.79.53v-3.17ZM101.88,79.97c.18-.09.35-.18.53-.26.35.18.7.35,1.06.53-.18.26-.35.53-.53.79h-1.06v-1.06ZM57.27,81.82h1.32l.26.53v1.06l-.53.53h-1.06l-.53-.26c-.09-.26-.18-.53-.26-.79.26-.35.53-.7.79-1.06ZM51.73,93.7c-.09.09-.18.18-.26.26h-.79v-1.58c.35.18.7.35,1.06.53v.79ZM46.72,53.31l1.32-1.32c2.2.09,2.72.83,2.64,3.17-.09.18-.18.35-.26.53-2.04,1.36-3.04.56-4.22-1.06.19-.95.11-.8.53-1.32ZM41.97,64.66c.09-.35.18-.7.26-1.06h.26c.18.35.35.7.53,1.06h-1.06ZM44.08,72.85h.26c.09.26.18.53.26.79-.26-.18-.53-.35-.79-.53l.26-.26ZM42.23,45.92c1.1.41.65-.05,1.06,1.06-.35.09-.7.18-1.06.26-.18-.35-.35-.7-.53-1.06.18-.09.35-.18.53-.26ZM39.33,52.26c.35-.44.7-.88,1.06-1.32.44.09.88.18,1.32.26.26.09.53.18.79.26v2.38c-.97.18-1.94.35-2.9.53h-.26c-.37-.9-.34-.93,0-2.11Z"/>
      <path class="cls-1" d="M33.78,12.93v-1.06c-.35-.18-.7-.35-1.06-.53-.26.35-.53.7-.79,1.06v.26c.53.18,1.06.35,1.58.53l.26-.26Z"/>
      <path class="cls-1" d="M35.1,21.38c.26-.18.53-.35.79-.53-.3-1.15-.26-1.01-1.06-1.58-.26.18-.53.35-.79.53.24,1.3.08,1.07,1.06,1.58Z"/>
      <path class="cls-1" d="M79.97,21.91v.79h.79c-.48-.93.15-.32-.79-.79Z"/>
      <path class="cls-1" d="M114.28,170.24c.09.35.18.7.26,1.06h.79c.18-.26.35-.53.53-.79-.35-.18-.7-.35-1.06-.53-.18.09-.35.18-.53.26Z"/>
      <path class="cls-1" d="M115.34,9.5c2.37-1.28,2.39-5-.79-5.54-.26.35-.53.7-.79,1.06.09.35.18.7.26,1.06h1.58c-.56.74-1.04.83-2.11,1.06l-.26.53c.77.91.92,1.28,2.11,1.85Z"/>
      <path class="cls-1" d="M129.06,167.6l.53-.53c-.53-9.5-1.06-19-1.58-28.5-2.2,8.14-1.4,20.84.26,28.5.26.18.53.35.79.53Z"/>
      <path class="cls-1" d="M2.38,131.97c.7-.35,1.41-.7,2.11-1.06-.09-.26-.18-.53-.26-.79-.53-.82-.13-.57-1.32-.79-.35.44-.7.88-1.06,1.32-.56,1.18-.2,3.09.26,3.96h1.06c.09-.26.18-.53.26-.79-.35-.62-.7-1.23-1.06-1.85Z"/>
      <path class="cls-1" d="M2.64,95.28c.35-.09.7-.18,1.06-.26,1.05-5.09,1.01-13.64,0-19-.26-.18-.53-.35-.79-.53h-.79c-1.39,3.08-.84,16.2.53,19.27v.53Z"/>
      <path class="cls-1" d="M2.38,69.15c-.09,1.67-.18,3.34-.26,5.01.18.09.35.18.53.26.77-1,.44-4.09-.26-5.28Z"/>
      <path class="cls-1" d="M5.28,159.42c-.62-.26-1.23-.53-1.85-.79-.43,1.67.14,3.35.53,5.01.53.18,1.06.35,1.58.53l.26-.26c-.31-1.85-.78-2.48-.53-4.49Z"/>
      <path class="cls-1" d="M2.64,98.45c.09.18.18.35.26.53.26.18.53.35.79.53l.79-.79c.09-.53.18-1.06.26-1.58-.7-.26-1.41-.53-2.11-.79v2.11Z"/>
      <path class="cls-1" d="M4.49,152.82c-1.05,3.79-2.41,4.25,1.32,6.07.44-.44.88-.88,1.32-1.32-.44-1.41-.88-2.82-1.32-4.22-.53-.54-.26-.38-1.32-.53Z"/>
      <path class="cls-1" d="M6.07,40.91c1.29-1.55,1.17-5.32,1.06-8.18-.53-.26-1.06-.53-1.58-.79-.26.35-.53.7-.79,1.06.72,3.03-.71,6.19,1.32,7.92Z"/>
    </g>
  </g>
</svg>